<mxfile host="app.diagrams.net" modified="2023-07-27T17:38:04.351Z" agent="Mozilla/5.0 (X11; Linux x86_64) AppleWebKit/537.36 (KHTML, like Gecko) Chrome/115.0.0.0 Safari/537.36" etag="igf3Oar52vMBJf0sNkMo" version="21.6.1" type="google" pages="7">
  <diagram id="C5RBs43oDa-KdzZeNtuy" name="Context Diagram">
    <mxGraphModel grid="0" page="1" gridSize="10" guides="1" tooltips="1" connect="1" arrows="1" fold="1" pageScale="1" pageWidth="1169" pageHeight="827" background="none" math="1" shadow="0">
      <root>
        <mxCell id="WIyWlLk6GJQsqaUBKTNV-0" />
        <mxCell id="WIyWlLk6GJQsqaUBKTNV-1" parent="WIyWlLk6GJQsqaUBKTNV-0" />
        <mxCell id="Fn0Dg_lWbShL7G17eSs9-4" style="edgeStyle=orthogonalEdgeStyle;rounded=0;orthogonalLoop=1;jettySize=auto;html=1;strokeWidth=3;fontSize=16;" edge="1" parent="WIyWlLk6GJQsqaUBKTNV-1" source="lOjWm8NBbpihADKnmKry-4" target="6Ek2NTnfPAuvdOVVpA-y-1">
          <mxGeometry relative="1" as="geometry">
            <Array as="points">
              <mxPoint x="180" y="381" />
            </Array>
          </mxGeometry>
        </mxCell>
        <mxCell id="Fn0Dg_lWbShL7G17eSs9-9" style="edgeStyle=orthogonalEdgeStyle;rounded=0;orthogonalLoop=1;jettySize=auto;html=1;strokeWidth=3;fontSize=16;fillColor=#f5f5f5;strokeColor=#666666;" edge="1" parent="WIyWlLk6GJQsqaUBKTNV-1" source="lOjWm8NBbpihADKnmKry-4" target="Fn0Dg_lWbShL7G17eSs9-8">
          <mxGeometry relative="1" as="geometry">
            <Array as="points">
              <mxPoint x="595" y="171" />
            </Array>
          </mxGeometry>
        </mxCell>
        <mxCell id="k6j6I_MTcVq9ZIuQR5ka-1" style="edgeStyle=orthogonalEdgeStyle;rounded=0;orthogonalLoop=1;jettySize=auto;html=1;entryX=0.5;entryY=0;entryDx=0;entryDy=0;strokeWidth=3;" edge="1" parent="WIyWlLk6GJQsqaUBKTNV-1" source="lOjWm8NBbpihADKnmKry-4" target="k6j6I_MTcVq9ZIuQR5ka-0">
          <mxGeometry relative="1" as="geometry" />
        </mxCell>
        <mxCell id="lOjWm8NBbpihADKnmKry-4" value="&lt;font style=&quot;font-size: 12px;&quot;&gt;Hemostasia (coagulação),&lt;br style=&quot;border-color: var(--border-color);&quot;&gt;&lt;span style=&quot;&quot;&gt;Hematologia Geral e&lt;/span&gt;&lt;br style=&quot;border-color: var(--border-color);&quot;&gt;&lt;span style=&quot;&quot;&gt;Hemoglobinopatia&lt;/span&gt;&lt;br&gt;&lt;/font&gt;" style="ellipse;whiteSpace=wrap;html=1;aspect=fixed;fillColor=#dae8fc;strokeColor=#6c8ebf;gradientColor=#7ea6e0;gradientDirection=south;" vertex="1" parent="WIyWlLk6GJQsqaUBKTNV-1">
          <mxGeometry x="516.5" y="345" width="126" height="126" as="geometry" />
        </mxCell>
        <mxCell id="Fn0Dg_lWbShL7G17eSs9-6" style="edgeStyle=orthogonalEdgeStyle;rounded=0;orthogonalLoop=1;jettySize=auto;html=1;strokeWidth=3;fontSize=16;entryX=0.313;entryY=0.028;entryDx=0;entryDy=0;entryPerimeter=0;" edge="1" parent="WIyWlLk6GJQsqaUBKTNV-1" source="6Ek2NTnfPAuvdOVVpA-y-1" target="lOjWm8NBbpihADKnmKry-4">
          <mxGeometry relative="1" as="geometry">
            <mxPoint x="555" y="345" as="targetPoint" />
            <Array as="points">
              <mxPoint x="556" y="171" />
            </Array>
          </mxGeometry>
        </mxCell>
        <mxCell id="6Ek2NTnfPAuvdOVVpA-y-1" value="Fornecedores de reagentes" style="rounded=0;whiteSpace=wrap;html=1;fontSize=16;fillColor=#f8cecc;strokeColor=#b85450;gradientColor=#ea6b66;" vertex="1" parent="WIyWlLk6GJQsqaUBKTNV-1">
          <mxGeometry x="85" y="141" width="190" height="80" as="geometry" />
        </mxCell>
        <mxCell id="Fn0Dg_lWbShL7G17eSs9-5" value="Pedidos de Compra, &lt;br&gt;Pagamentos" style="text;html=1;align=center;verticalAlign=middle;resizable=0;points=[];autosize=1;strokeColor=none;fillColor=none;fontSize=16;" vertex="1" parent="WIyWlLk6GJQsqaUBKTNV-1">
          <mxGeometry x="225" y="330" width="170" height="50" as="geometry" />
        </mxCell>
        <mxCell id="Fn0Dg_lWbShL7G17eSs9-7" value="Reagentes e Acessórios" style="text;html=1;align=center;verticalAlign=middle;resizable=0;points=[];autosize=1;strokeColor=none;fillColor=none;fontSize=16;" vertex="1" parent="WIyWlLk6GJQsqaUBKTNV-1">
          <mxGeometry x="305" y="191" width="191" height="31" as="geometry" />
        </mxCell>
        <mxCell id="Fn0Dg_lWbShL7G17eSs9-11" style="edgeStyle=orthogonalEdgeStyle;rounded=0;orthogonalLoop=1;jettySize=auto;html=1;strokeWidth=3;fontSize=16;entryX=0.972;entryY=0.293;entryDx=0;entryDy=0;entryPerimeter=0;fillColor=#f5f5f5;strokeColor=#666666;" edge="1" parent="WIyWlLk6GJQsqaUBKTNV-1" source="Fn0Dg_lWbShL7G17eSs9-8" target="lOjWm8NBbpihADKnmKry-4">
          <mxGeometry relative="1" as="geometry">
            <Array as="points">
              <mxPoint x="990" y="381" />
              <mxPoint x="665" y="381" />
            </Array>
            <mxPoint x="665" y="391" as="targetPoint" />
          </mxGeometry>
        </mxCell>
        <mxCell id="Fn0Dg_lWbShL7G17eSs9-8" value="Prestadores de &lt;br&gt;Servições" style="rounded=0;whiteSpace=wrap;html=1;fontSize=16;fillColor=#f8cecc;strokeColor=#b85450;gradientColor=#ea6b66;" vertex="1" parent="WIyWlLk6GJQsqaUBKTNV-1">
          <mxGeometry x="895" y="141" width="190" height="80" as="geometry" />
        </mxCell>
        <mxCell id="Fn0Dg_lWbShL7G17eSs9-10" value="Solicitação de serviço" style="text;html=1;align=center;verticalAlign=middle;resizable=0;points=[];autosize=1;strokeColor=none;fillColor=none;fontSize=16;fontColor=#333333;" vertex="1" parent="WIyWlLk6GJQsqaUBKTNV-1">
          <mxGeometry x="642.5" y="190" width="173" height="31" as="geometry" />
        </mxCell>
        <mxCell id="Fn0Dg_lWbShL7G17eSs9-12" value="Ordem de Serviço" style="text;html=1;align=center;verticalAlign=middle;resizable=0;points=[];autosize=1;strokeColor=none;fillColor=none;fontSize=16;gradientColor=#ea6b66;" vertex="1" parent="WIyWlLk6GJQsqaUBKTNV-1">
          <mxGeometry x="715" y="340" width="150" height="30" as="geometry" />
        </mxCell>
        <mxCell id="PzTII8Qz_thhIWK01yW--1" value="&lt;font color=&quot;#000000&quot;&gt;Este diagrama mapeia o relacionamento do laboratório com entidades externas&lt;/font&gt;" style="text;html=1;strokeColor=#666666;fillColor=#f5f5f5;align=center;verticalAlign=middle;whiteSpace=wrap;rounded=0;fontSize=26;fontColor=#333333;" vertex="1" parent="WIyWlLk6GJQsqaUBKTNV-1">
          <mxGeometry x="40" y="640" width="430" height="100" as="geometry" />
        </mxCell>
        <mxCell id="k6j6I_MTcVq9ZIuQR5ka-2" style="edgeStyle=orthogonalEdgeStyle;rounded=0;orthogonalLoop=1;jettySize=auto;html=1;entryX=0.5;entryY=1;entryDx=0;entryDy=0;strokeWidth=3;" edge="1" parent="WIyWlLk6GJQsqaUBKTNV-1" source="k6j6I_MTcVq9ZIuQR5ka-0" target="lOjWm8NBbpihADKnmKry-4">
          <mxGeometry relative="1" as="geometry" />
        </mxCell>
        <mxCell id="k6j6I_MTcVq9ZIuQR5ka-0" value="Clientes" style="rounded=0;whiteSpace=wrap;html=1;fontSize=16;fillColor=#f8cecc;strokeColor=#b85450;gradientColor=#ea6b66;" vertex="1" parent="WIyWlLk6GJQsqaUBKTNV-1">
          <mxGeometry x="895" y="591" width="190" height="80" as="geometry" />
        </mxCell>
        <mxCell id="k6j6I_MTcVq9ZIuQR5ka-3" value="&lt;font style=&quot;font-size: 16px;&quot;&gt;Solicita exames&lt;/font&gt;" style="text;html=1;align=center;verticalAlign=middle;resizable=0;points=[];autosize=1;strokeColor=none;fillColor=none;" vertex="1" parent="WIyWlLk6GJQsqaUBKTNV-1">
          <mxGeometry x="595" y="586" width="140" height="30" as="geometry" />
        </mxCell>
        <mxCell id="k6j6I_MTcVq9ZIuQR5ka-4" value="&lt;font style=&quot;font-size: 16px;&quot;&gt;Envia resultado &lt;br&gt;de exames&lt;/font&gt;" style="text;html=1;align=center;verticalAlign=middle;resizable=0;points=[];autosize=1;strokeColor=none;fillColor=none;" vertex="1" parent="WIyWlLk6GJQsqaUBKTNV-1">
          <mxGeometry x="715" y="415" width="130" height="50" as="geometry" />
        </mxCell>
        <mxCell id="W91GgD0ROdwa8XdkrmBa-0" value="" style="endArrow=none;html=1;rounded=0;strokeColor=#171717;strokeWidth=3;fontColor=#171717;fillColor=#FFE45E;" edge="1" parent="WIyWlLk6GJQsqaUBKTNV-1">
          <mxGeometry width="50" height="50" relative="1" as="geometry">
            <mxPoint x="40" y="116" as="sourcePoint" />
            <mxPoint x="1120" y="116" as="targetPoint" />
          </mxGeometry>
        </mxCell>
        <mxCell id="W91GgD0ROdwa8XdkrmBa-1" value="&lt;div style=&quot;&quot;&gt;&lt;span style=&quot;font-size: 24px;&quot;&gt;&lt;b&gt;Context Diagram:&lt;/b&gt;&lt;/span&gt;&lt;/div&gt;&lt;div style=&quot;&quot;&gt;&lt;span style=&quot;font-size: 24px;&quot;&gt;Relação com Entidades externas&lt;/span&gt;&lt;/div&gt;&lt;div style=&quot;&quot;&gt;&lt;span style=&quot;font-size: 24px;&quot;&gt;&lt;br&gt;&lt;/span&gt;&lt;/div&gt;&lt;font style=&quot;&quot;&gt;&lt;div style=&quot;&quot;&gt;&lt;span style=&quot;background-color: initial;&quot;&gt;Projeto: HematologyApp&lt;/span&gt;&lt;/div&gt;&lt;/font&gt;" style="text;html=1;align=left;verticalAlign=middle;resizable=0;points=[];autosize=1;strokeColor=none;fillColor=none;fontColor=#171717;" vertex="1" parent="WIyWlLk6GJQsqaUBKTNV-1">
          <mxGeometry x="40" y="3" width="370" height="113" as="geometry" />
        </mxCell>
      </root>
    </mxGraphModel>
  </diagram>
  <diagram name="Functional Flow Diagram" id="9OIyRDjDBGrYJVDGI2b0">
    <mxGraphModel grid="1" page="1" gridSize="10" guides="1" tooltips="1" connect="1" arrows="1" fold="1" pageScale="1" pageWidth="1169" pageHeight="827" math="0" shadow="0">
      <root>
        <mxCell id="3Nr1HzTjKnq9LVh7Uha1-0" />
        <mxCell id="3Nr1HzTjKnq9LVh7Uha1-1" parent="3Nr1HzTjKnq9LVh7Uha1-0" />
        <mxCell id="3Nr1HzTjKnq9LVh7Uha1-2" style="edgeStyle=orthogonalEdgeStyle;rounded=0;orthogonalLoop=1;jettySize=auto;html=1;fontSize=12;strokeWidth=3;" edge="1" parent="3Nr1HzTjKnq9LVh7Uha1-1" source="3Nr1HzTjKnq9LVh7Uha1-6" target="3Nr1HzTjKnq9LVh7Uha1-19">
          <mxGeometry relative="1" as="geometry">
            <Array as="points">
              <mxPoint x="980" y="705" />
            </Array>
          </mxGeometry>
        </mxCell>
        <mxCell id="3Nr1HzTjKnq9LVh7Uha1-3" value="Informa a Liberação do &lt;br&gt;empenho (Verba)" style="edgeLabel;html=1;align=center;verticalAlign=middle;resizable=0;points=[];fontSize=12;" vertex="1" connectable="0" parent="3Nr1HzTjKnq9LVh7Uha1-2">
          <mxGeometry x="0.1111" y="1" relative="1" as="geometry">
            <mxPoint x="-11" y="-59" as="offset" />
          </mxGeometry>
        </mxCell>
        <mxCell id="3Nr1HzTjKnq9LVh7Uha1-4" style="edgeStyle=orthogonalEdgeStyle;rounded=0;orthogonalLoop=1;jettySize=auto;html=1;fontSize=12;strokeWidth=3;entryX=1.01;entryY=0.452;entryDx=0;entryDy=0;entryPerimeter=0;" edge="1" parent="3Nr1HzTjKnq9LVh7Uha1-1" source="3Nr1HzTjKnq9LVh7Uha1-6" target="3Nr1HzTjKnq9LVh7Uha1-9">
          <mxGeometry relative="1" as="geometry">
            <mxPoint x="680" y="205" as="targetPoint" />
            <Array as="points">
              <mxPoint x="1015" y="205" />
              <mxPoint x="672" y="205" />
            </Array>
          </mxGeometry>
        </mxCell>
        <mxCell id="3Nr1HzTjKnq9LVh7Uha1-5" value="Envia o pedido &lt;br&gt;de compras" style="edgeLabel;html=1;align=center;verticalAlign=middle;resizable=0;points=[];fontSize=12;" vertex="1" connectable="0" parent="3Nr1HzTjKnq9LVh7Uha1-4">
          <mxGeometry x="-0.1695" y="2" relative="1" as="geometry">
            <mxPoint as="offset" />
          </mxGeometry>
        </mxCell>
        <mxCell id="3Nr1HzTjKnq9LVh7Uha1-6" value="Setor de Compras e Contratos" style="ellipse;whiteSpace=wrap;html=1;fontSize=16;gradientColor=#7ea6e0;gradientDirection=south;fillColor=#dae8fc;strokeColor=#6c8ebf;" vertex="1" parent="3Nr1HzTjKnq9LVh7Uha1-1">
          <mxGeometry x="920" y="365" width="170" height="110" as="geometry" />
        </mxCell>
        <mxCell id="3Nr1HzTjKnq9LVh7Uha1-9" value="Fornecedores" style="ellipse;whiteSpace=wrap;html=1;fontSize=16;gradientColor=#7ea6e0;gradientDirection=south;fillColor=#dae8fc;strokeColor=#6c8ebf;" vertex="1" parent="3Nr1HzTjKnq9LVh7Uha1-1">
          <mxGeometry x="500" y="155" width="170" height="110" as="geometry" />
        </mxCell>
        <mxCell id="3Nr1HzTjKnq9LVh7Uha1-10" style="edgeStyle=orthogonalEdgeStyle;rounded=0;orthogonalLoop=1;jettySize=auto;html=1;fontSize=12;strokeWidth=3;" edge="1" parent="3Nr1HzTjKnq9LVh7Uha1-1" source="3Nr1HzTjKnq9LVh7Uha1-14" target="3Nr1HzTjKnq9LVh7Uha1-19">
          <mxGeometry relative="1" as="geometry">
            <mxPoint x="730" y="765" as="targetPoint" />
            <Array as="points">
              <mxPoint x="480" y="745" />
              <mxPoint x="480" y="745" />
            </Array>
          </mxGeometry>
        </mxCell>
        <mxCell id="3Nr1HzTjKnq9LVh7Uha1-11" value="Devolve relaçãode pedido" style="edgeLabel;html=1;align=center;verticalAlign=middle;resizable=0;points=[];fontSize=12;" vertex="1" connectable="0" parent="3Nr1HzTjKnq9LVh7Uha1-10">
          <mxGeometry x="-0.2504" relative="1" as="geometry">
            <mxPoint as="offset" />
          </mxGeometry>
        </mxCell>
        <mxCell id="3Nr1HzTjKnq9LVh7Uha1-12" style="edgeStyle=orthogonalEdgeStyle;rounded=0;orthogonalLoop=1;jettySize=auto;html=1;fontSize=12;strokeWidth=3;entryX=0.588;entryY=1;entryDx=0;entryDy=0;entryPerimeter=0;" edge="1" parent="3Nr1HzTjKnq9LVh7Uha1-1" source="3Nr1HzTjKnq9LVh7Uha1-14" target="3Nr1HzTjKnq9LVh7Uha1-24">
          <mxGeometry relative="1" as="geometry">
            <mxPoint x="210" y="615" as="targetPoint" />
            <Array as="points">
              <mxPoint x="210" y="705" />
            </Array>
          </mxGeometry>
        </mxCell>
        <mxCell id="3Nr1HzTjKnq9LVh7Uha1-13" value="Devolve a nota &lt;br&gt;após conferência" style="edgeLabel;html=1;align=center;verticalAlign=middle;resizable=0;points=[];fontSize=12;" vertex="1" connectable="0" parent="3Nr1HzTjKnq9LVh7Uha1-12">
          <mxGeometry x="-0.0127" y="-1" relative="1" as="geometry">
            <mxPoint as="offset" />
          </mxGeometry>
        </mxCell>
        <mxCell id="3Nr1HzTjKnq9LVh7Uha1-14" value="Supervisão da Hematologia" style="ellipse;whiteSpace=wrap;html=1;fontSize=16;gradientColor=#7ea6e0;gradientDirection=south;fillColor=#dae8fc;strokeColor=#6c8ebf;" vertex="1" parent="3Nr1HzTjKnq9LVh7Uha1-1">
          <mxGeometry x="280" y="665" width="170" height="110" as="geometry" />
        </mxCell>
        <mxCell id="3Nr1HzTjKnq9LVh7Uha1-15" style="edgeStyle=orthogonalEdgeStyle;rounded=0;orthogonalLoop=1;jettySize=auto;html=1;fontSize=12;strokeWidth=3;" edge="1" parent="3Nr1HzTjKnq9LVh7Uha1-1" source="3Nr1HzTjKnq9LVh7Uha1-19" target="3Nr1HzTjKnq9LVh7Uha1-14">
          <mxGeometry relative="1" as="geometry">
            <Array as="points">
              <mxPoint x="490" y="695" />
              <mxPoint x="490" y="695" />
            </Array>
          </mxGeometry>
        </mxCell>
        <mxCell id="3Nr1HzTjKnq9LVh7Uha1-16" value="Solicita relação de reagentes&lt;br&gt;&amp;nbsp;para pedido (Verba disponível)" style="edgeLabel;html=1;align=center;verticalAlign=middle;resizable=0;points=[];fontSize=12;" vertex="1" connectable="0" parent="3Nr1HzTjKnq9LVh7Uha1-15">
          <mxGeometry x="0.0889" y="5" relative="1" as="geometry">
            <mxPoint as="offset" />
          </mxGeometry>
        </mxCell>
        <mxCell id="3Nr1HzTjKnq9LVh7Uha1-17" style="edgeStyle=orthogonalEdgeStyle;rounded=0;orthogonalLoop=1;jettySize=auto;html=1;fontSize=12;strokeWidth=3;" edge="1" parent="3Nr1HzTjKnq9LVh7Uha1-1" source="3Nr1HzTjKnq9LVh7Uha1-19" target="3Nr1HzTjKnq9LVh7Uha1-6">
          <mxGeometry relative="1" as="geometry">
            <mxPoint x="730" y="-85" as="targetPoint" />
            <Array as="points">
              <mxPoint x="1040" y="735" />
            </Array>
          </mxGeometry>
        </mxCell>
        <UserObject label="Envia relação&lt;br&gt;&amp;nbsp;de compras" link="data:page/id,xLHHl48_HawWUtXH5hrj" id="3Nr1HzTjKnq9LVh7Uha1-18">
          <mxCell style="edgeLabel;html=1;align=center;verticalAlign=middle;resizable=0;points=[];fontSize=12;" vertex="1" connectable="0" parent="3Nr1HzTjKnq9LVh7Uha1-17">
            <mxGeometry x="-0.2551" y="1" relative="1" as="geometry">
              <mxPoint y="-75" as="offset" />
            </mxGeometry>
          </mxCell>
        </UserObject>
        <mxCell id="3Nr1HzTjKnq9LVh7Uha1-19" value="Secretaria do laboratório" style="ellipse;whiteSpace=wrap;html=1;fontSize=16;gradientColor=#7ea6e0;gradientDirection=south;fillColor=#dae8fc;strokeColor=#6c8ebf;" vertex="1" parent="3Nr1HzTjKnq9LVh7Uha1-1">
          <mxGeometry x="740" y="665" width="170" height="110" as="geometry" />
        </mxCell>
        <mxCell id="3Nr1HzTjKnq9LVh7Uha1-20" style="edgeStyle=orthogonalEdgeStyle;rounded=0;orthogonalLoop=1;jettySize=auto;html=1;fontSize=12;strokeWidth=3;" edge="1" parent="3Nr1HzTjKnq9LVh7Uha1-1" source="3Nr1HzTjKnq9LVh7Uha1-24">
          <mxGeometry relative="1" as="geometry">
            <mxPoint x="290" y="745" as="targetPoint" />
            <Array as="points">
              <mxPoint x="160" y="745" />
            </Array>
          </mxGeometry>
        </mxCell>
        <mxCell id="3Nr1HzTjKnq9LVh7Uha1-21" value="Envia os produtos para&lt;br&gt;&amp;nbsp;conferência e armazenamento" style="edgeLabel;html=1;align=center;verticalAlign=middle;resizable=0;points=[];fontSize=12;" vertex="1" connectable="0" parent="3Nr1HzTjKnq9LVh7Uha1-20">
          <mxGeometry x="0.048" y="-2" relative="1" as="geometry">
            <mxPoint x="-8" y="63" as="offset" />
          </mxGeometry>
        </mxCell>
        <mxCell id="3Nr1HzTjKnq9LVh7Uha1-24" value="Almoxarifado" style="ellipse;whiteSpace=wrap;html=1;fontSize=16;gradientColor=#7ea6e0;gradientDirection=south;fillColor=#dae8fc;strokeColor=#6c8ebf;" vertex="1" parent="3Nr1HzTjKnq9LVh7Uha1-1">
          <mxGeometry x="110" y="365" width="170" height="110" as="geometry" />
        </mxCell>
        <mxCell id="iTuOaSP3k6uv5GRxKFEU-7" style="edgeStyle=orthogonalEdgeStyle;rounded=0;orthogonalLoop=1;jettySize=auto;html=1;entryX=0.5;entryY=0;entryDx=0;entryDy=0;strokeWidth=3;fontSize=12;" edge="1" parent="3Nr1HzTjKnq9LVh7Uha1-1" source="iTuOaSP3k6uv5GRxKFEU-0" target="iTuOaSP3k6uv5GRxKFEU-6">
          <mxGeometry relative="1" as="geometry">
            <Array as="points">
              <mxPoint x="160" y="1115" />
            </Array>
          </mxGeometry>
        </mxCell>
        <mxCell id="iTuOaSP3k6uv5GRxKFEU-8" value="Envia os produtos" style="edgeLabel;html=1;align=center;verticalAlign=middle;resizable=0;points=[];fontSize=12;" connectable="0" vertex="1" parent="iTuOaSP3k6uv5GRxKFEU-7">
          <mxGeometry x="0.0174" y="5" relative="1" as="geometry">
            <mxPoint as="offset" />
          </mxGeometry>
        </mxCell>
        <mxCell id="iTuOaSP3k6uv5GRxKFEU-0" value="Fornecedores" style="ellipse;whiteSpace=wrap;html=1;fontSize=16;gradientColor=#7ea6e0;gradientDirection=south;fillColor=#dae8fc;strokeColor=#6c8ebf;" vertex="1" parent="3Nr1HzTjKnq9LVh7Uha1-1">
          <mxGeometry x="504" y="1060" width="170" height="110" as="geometry" />
        </mxCell>
        <mxCell id="iTuOaSP3k6uv5GRxKFEU-4" style="edgeStyle=orthogonalEdgeStyle;rounded=0;orthogonalLoop=1;jettySize=auto;html=1;entryX=1;entryY=0.5;entryDx=0;entryDy=0;strokeWidth=3;fontSize=12;" edge="1" parent="3Nr1HzTjKnq9LVh7Uha1-1" source="iTuOaSP3k6uv5GRxKFEU-1" target="iTuOaSP3k6uv5GRxKFEU-0">
          <mxGeometry relative="1" as="geometry">
            <Array as="points">
              <mxPoint x="1000" y="1115" />
            </Array>
          </mxGeometry>
        </mxCell>
        <mxCell id="iTuOaSP3k6uv5GRxKFEU-5" value="Envia o pedido de compra" style="edgeLabel;html=1;align=center;verticalAlign=middle;resizable=0;points=[];fontSize=12;" connectable="0" vertex="1" parent="iTuOaSP3k6uv5GRxKFEU-4">
          <mxGeometry x="0.0292" y="-1" relative="1" as="geometry">
            <mxPoint x="-1" as="offset" />
          </mxGeometry>
        </mxCell>
        <mxCell id="iTuOaSP3k6uv5GRxKFEU-1" value="Setor de Compras e Contratos" style="ellipse;whiteSpace=wrap;html=1;fontSize=16;gradientColor=#7ea6e0;gradientDirection=south;fillColor=#dae8fc;strokeColor=#6c8ebf;" vertex="1" parent="3Nr1HzTjKnq9LVh7Uha1-1">
          <mxGeometry x="925" y="1280" width="170" height="110" as="geometry" />
        </mxCell>
        <mxCell id="iTuOaSP3k6uv5GRxKFEU-10" style="edgeStyle=orthogonalEdgeStyle;rounded=0;orthogonalLoop=1;jettySize=auto;html=1;entryX=0;entryY=0.5;entryDx=0;entryDy=0;strokeWidth=3;fontSize=12;" edge="1" parent="3Nr1HzTjKnq9LVh7Uha1-1" source="iTuOaSP3k6uv5GRxKFEU-6" target="iTuOaSP3k6uv5GRxKFEU-9">
          <mxGeometry relative="1" as="geometry">
            <Array as="points">
              <mxPoint x="155" y="1535" />
            </Array>
          </mxGeometry>
        </mxCell>
        <mxCell id="iTuOaSP3k6uv5GRxKFEU-11" value="Informa o recebimento dos produtos" style="edgeLabel;html=1;align=center;verticalAlign=middle;resizable=0;points=[];fontSize=12;" connectable="0" vertex="1" parent="iTuOaSP3k6uv5GRxKFEU-10">
          <mxGeometry x="0.1192" relative="1" as="geometry">
            <mxPoint y="1" as="offset" />
          </mxGeometry>
        </mxCell>
        <mxCell id="iTuOaSP3k6uv5GRxKFEU-6" value="Almoxarifado" style="ellipse;whiteSpace=wrap;html=1;fontSize=16;gradientColor=#7ea6e0;gradientDirection=south;fillColor=#dae8fc;strokeColor=#6c8ebf;" vertex="1" parent="3Nr1HzTjKnq9LVh7Uha1-1">
          <mxGeometry x="75" y="1270" width="170" height="110" as="geometry" />
        </mxCell>
        <mxCell id="iTuOaSP3k6uv5GRxKFEU-12" style="edgeStyle=orthogonalEdgeStyle;rounded=0;orthogonalLoop=1;jettySize=auto;html=1;strokeWidth=3;fontSize=12;" edge="1" parent="3Nr1HzTjKnq9LVh7Uha1-1" source="iTuOaSP3k6uv5GRxKFEU-9" target="iTuOaSP3k6uv5GRxKFEU-0">
          <mxGeometry relative="1" as="geometry">
            <Array as="points">
              <mxPoint x="595" y="1330" />
              <mxPoint x="595" y="1330" />
            </Array>
          </mxGeometry>
        </mxCell>
        <mxCell id="iTuOaSP3k6uv5GRxKFEU-13" value="Efetua o pagamento" style="edgeLabel;html=1;align=center;verticalAlign=middle;resizable=0;points=[];fontSize=12;" connectable="0" vertex="1" parent="iTuOaSP3k6uv5GRxKFEU-12">
          <mxGeometry x="0.1625" y="-2" relative="1" as="geometry">
            <mxPoint as="offset" />
          </mxGeometry>
        </mxCell>
        <mxCell id="iTuOaSP3k6uv5GRxKFEU-9" value="Pagamento" style="ellipse;whiteSpace=wrap;html=1;fontSize=16;gradientColor=#7ea6e0;gradientDirection=south;fillColor=#dae8fc;strokeColor=#6c8ebf;" vertex="1" parent="3Nr1HzTjKnq9LVh7Uha1-1">
          <mxGeometry x="515" y="1480" width="170" height="110" as="geometry" />
        </mxCell>
        <mxCell id="-YNx9I_gI7iT6QgYbmuq-0" style="edgeStyle=orthogonalEdgeStyle;rounded=0;orthogonalLoop=1;jettySize=auto;html=1;fontSize=12;strokeWidth=3;exitX=0;exitY=0.5;exitDx=0;exitDy=0;" edge="1" parent="3Nr1HzTjKnq9LVh7Uha1-1" source="3Nr1HzTjKnq9LVh7Uha1-9">
          <mxGeometry relative="1" as="geometry">
            <mxPoint x="200" y="365" as="targetPoint" />
            <mxPoint x="415" y="110" as="sourcePoint" />
            <Array as="points">
              <mxPoint x="200" y="210" />
            </Array>
          </mxGeometry>
        </mxCell>
        <mxCell id="-YNx9I_gI7iT6QgYbmuq-1" value="Envia os produtos" style="edgeLabel;html=1;align=center;verticalAlign=middle;resizable=0;points=[];fontSize=12;" connectable="0" vertex="1" parent="-YNx9I_gI7iT6QgYbmuq-0">
          <mxGeometry x="-0.2383" y="2" relative="1" as="geometry">
            <mxPoint as="offset" />
          </mxGeometry>
        </mxCell>
        <mxCell id="l7YXBQVZOV5jCF0Sgh4B-0" value="&lt;font style=&quot;font-size: 24px;&quot;&gt;Aqui mapeamos cada iteração, seu &lt;br&gt;fluxo de informações e entidades envolvidas&lt;/font&gt;" style="text;html=1;align=center;verticalAlign=middle;resizable=0;points=[];autosize=1;strokeColor=#666666;fillColor=#f5f5f5;fontSize=26;fontColor=#333333;" vertex="1" parent="3Nr1HzTjKnq9LVh7Uha1-1">
          <mxGeometry x="598" y="860" width="490" height="75" as="geometry" />
        </mxCell>
        <mxCell id="kLPvAn1P3xzHvE62M3Iz-0" value="&lt;font style=&quot;font-size: 24px;&quot;&gt;Aqui mapeamos cada iteração, seu &lt;br&gt;fluxo de informações e entidades envolvidas&lt;/font&gt;" style="text;html=1;align=center;verticalAlign=middle;resizable=0;points=[];autosize=1;strokeColor=#666666;fillColor=#f5f5f5;fontSize=26;fontColor=#333333;" vertex="1" parent="3Nr1HzTjKnq9LVh7Uha1-1">
          <mxGeometry x="626" y="28" width="490" height="75" as="geometry" />
        </mxCell>
        <mxCell id="cwu2GUoARXlWpmp4cSdC-0" value="" style="endArrow=none;html=1;rounded=0;strokeColor=#171717;strokeWidth=3;fontColor=#171717;fillColor=#FFE45E;" edge="1" parent="3Nr1HzTjKnq9LVh7Uha1-1">
          <mxGeometry width="50" height="50" relative="1" as="geometry">
            <mxPoint x="55" y="122" as="sourcePoint" />
            <mxPoint x="1114" y="120" as="targetPoint" />
          </mxGeometry>
        </mxCell>
        <mxCell id="cwu2GUoARXlWpmp4cSdC-1" value="&lt;div style=&quot;&quot;&gt;&lt;span style=&quot;font-size: 24px;&quot;&gt;&lt;b&gt;Functional Flow Diagram:&lt;/b&gt;&lt;/span&gt;&lt;/div&gt;&lt;div style=&quot;&quot;&gt;&lt;span style=&quot;font-size: 24px;&quot;&gt;Pedidos de Compra&lt;/span&gt;&lt;/div&gt;&lt;div style=&quot;&quot;&gt;&lt;span style=&quot;font-size: 24px;&quot;&gt;&lt;br&gt;&lt;/span&gt;&lt;/div&gt;&lt;font style=&quot;&quot;&gt;&lt;div style=&quot;&quot;&gt;&lt;span style=&quot;background-color: initial;&quot;&gt;Projeto: HematologyApp&lt;/span&gt;&lt;/div&gt;&lt;/font&gt;" style="text;html=1;align=left;verticalAlign=middle;resizable=0;points=[];autosize=1;strokeColor=none;fillColor=none;fontColor=#171717;" vertex="1" parent="3Nr1HzTjKnq9LVh7Uha1-1">
          <mxGeometry x="55" y="10" width="320" height="110" as="geometry" />
        </mxCell>
        <mxCell id="cwu2GUoARXlWpmp4cSdC-2" value="&lt;div style=&quot;&quot;&gt;&lt;span style=&quot;font-size: 24px;&quot;&gt;&lt;b&gt;Functional Flow Diagram:&lt;/b&gt;&lt;/span&gt;&lt;/div&gt;&lt;div style=&quot;&quot;&gt;&lt;span style=&quot;font-size: 24px;&quot;&gt;Pagamentos&lt;/span&gt;&lt;/div&gt;&lt;div style=&quot;&quot;&gt;&lt;span style=&quot;font-size: 24px;&quot;&gt;&lt;br&gt;&lt;/span&gt;&lt;/div&gt;&lt;font style=&quot;&quot;&gt;&lt;div style=&quot;&quot;&gt;&lt;span style=&quot;background-color: initial;&quot;&gt;Projeto: HematologyApp&lt;/span&gt;&lt;/div&gt;&lt;/font&gt;" style="text;html=1;align=left;verticalAlign=middle;resizable=0;points=[];autosize=1;strokeColor=none;fillColor=none;fontColor=#171717;" vertex="1" parent="3Nr1HzTjKnq9LVh7Uha1-1">
          <mxGeometry x="55" y="843" width="311" height="113" as="geometry" />
        </mxCell>
        <mxCell id="cwu2GUoARXlWpmp4cSdC-3" value="" style="endArrow=none;html=1;rounded=0;strokeColor=#171717;strokeWidth=3;fontColor=#171717;fillColor=#FFE45E;" edge="1" parent="3Nr1HzTjKnq9LVh7Uha1-1">
          <mxGeometry width="50" height="50" relative="1" as="geometry">
            <mxPoint x="55" y="956" as="sourcePoint" />
            <mxPoint x="1114" y="954" as="targetPoint" />
          </mxGeometry>
        </mxCell>
      </root>
    </mxGraphModel>
  </diagram>
  <diagram id="xLHHl48_HawWUtXH5hrj" name="Cross-Functional Flow Diagram">
    <mxGraphModel grid="0" page="1" gridSize="10" guides="1" tooltips="1" connect="1" arrows="1" fold="1" pageScale="1" pageWidth="1169" pageHeight="827" math="0" shadow="0">
      <root>
        <mxCell id="0" />
        <mxCell id="1" parent="0" />
        <mxCell id="lVapkDd-fh6AjAawqO9X-33" value="Efetuar um pedido de compra" style="shape=table;childLayout=tableLayout;startSize=50;collapsible=0;recursiveResize=0;expand=0;fontSize=16;gradientColor=#7ea6e0;gradientDirection=south;fillColor=#dae8fc;strokeColor=#6c8ebf;strokeWidth=2;rounded=0;" vertex="1" parent="1">
          <mxGeometry x="63" y="142" width="1043" height="632" as="geometry" />
        </mxCell>
        <mxCell id="lVapkDd-fh6AjAawqO9X-34" value="Secretaria do &#xa;laboratório" style="shape=tableRow;horizontal=0;swimlaneHead=0;swimlaneBody=0;top=0;left=0;strokeColor=inherit;bottom=0;right=0;dropTarget=0;fontStyle=0;fillColor=none;points=[[0,0.5],[1,0.5]];portConstraint=eastwest;startSize=40;collapsible=0;recursiveResize=0;expand=0;fontSize=16;rounded=0;" vertex="1" parent="lVapkDd-fh6AjAawqO9X-33">
          <mxGeometry y="50" width="1043" height="144" as="geometry" />
        </mxCell>
        <mxCell id="lVapkDd-fh6AjAawqO9X-35" value="Fase 1" style="swimlane;swimlaneHead=0;swimlaneBody=0;fontStyle=0;strokeColor=inherit;connectable=0;fillColor=none;startSize=40;collapsible=0;recursiveResize=0;expand=0;fontSize=16;rounded=0;" vertex="1" parent="lVapkDd-fh6AjAawqO9X-34">
          <mxGeometry x="40" width="334" height="144" as="geometry">
            <mxRectangle width="334" height="144" as="alternateBounds" />
          </mxGeometry>
        </mxCell>
        <mxCell id="lVapkDd-fh6AjAawqO9X-36" value="Início" style="strokeWidth=2;html=1;shape=mxgraph.flowchart.start_2;whiteSpace=wrap;fontSize=16;gradientDirection=south;fillColor=#f8cecc;strokeColor=#b85450;rounded=0;" vertex="1" parent="lVapkDd-fh6AjAawqO9X-35">
          <mxGeometry x="20" y="84" width="50" height="50" as="geometry" />
        </mxCell>
        <mxCell id="lVapkDd-fh6AjAawqO9X-37" value="&lt;font style=&quot;font-size: 11px;&quot;&gt;Gera o pedido &lt;br&gt;no sistema&lt;/font&gt;" style="text;html=1;align=center;verticalAlign=middle;resizable=0;points=[];autosize=1;strokeColor=none;fillColor=none;rounded=0;" vertex="1" parent="lVapkDd-fh6AjAawqO9X-35">
          <mxGeometry y="39" width="90" height="40" as="geometry" />
        </mxCell>
        <mxCell id="lVapkDd-fh6AjAawqO9X-38" value="Fase 2" style="swimlane;swimlaneHead=0;swimlaneBody=0;fontStyle=0;strokeColor=inherit;connectable=0;fillColor=none;startSize=40;collapsible=0;recursiveResize=0;expand=0;fontSize=16;rounded=0;" vertex="1" parent="lVapkDd-fh6AjAawqO9X-34">
          <mxGeometry x="374" width="336" height="144" as="geometry">
            <mxRectangle width="336" height="144" as="alternateBounds" />
          </mxGeometry>
        </mxCell>
        <mxCell id="lVapkDd-fh6AjAawqO9X-39" value="&lt;font style=&quot;font-size: 11px;&quot;&gt;Lança Nota Fiscal no sistema&lt;/font&gt;" style="whiteSpace=wrap;html=1;aspect=fixed;fontSize=16;gradientDirection=south;fillColor=#f8cecc;strokeColor=#b85450;rounded=0;" vertex="1" parent="lVapkDd-fh6AjAawqO9X-38">
          <mxGeometry x="112" y="51" width="80" height="80" as="geometry" />
        </mxCell>
        <mxCell id="lVapkDd-fh6AjAawqO9X-40" value="Fase 3" style="swimlane;swimlaneHead=0;swimlaneBody=0;fontStyle=0;strokeColor=inherit;connectable=0;fillColor=none;startSize=40;collapsible=0;recursiveResize=0;expand=0;fontSize=16;rounded=0;" vertex="1" parent="lVapkDd-fh6AjAawqO9X-34">
          <mxGeometry x="710" width="333" height="144" as="geometry">
            <mxRectangle width="333" height="144" as="alternateBounds" />
          </mxGeometry>
        </mxCell>
        <mxCell id="lVapkDd-fh6AjAawqO9X-41" value="Fim" style="strokeWidth=2;html=1;shape=mxgraph.flowchart.start_2;whiteSpace=wrap;fontSize=16;gradientDirection=south;fillColor=#f8cecc;strokeColor=#b85450;rounded=0;" vertex="1" parent="lVapkDd-fh6AjAawqO9X-40">
          <mxGeometry x="141.5" y="66" width="50" height="50" as="geometry" />
        </mxCell>
        <mxCell id="lVapkDd-fh6AjAawqO9X-42" value="Armazena os produtos" style="text;html=1;align=center;verticalAlign=middle;resizable=0;points=[];autosize=1;strokeColor=none;fillColor=none;fontSize=11;rounded=0;" vertex="1" parent="lVapkDd-fh6AjAawqO9X-40">
          <mxGeometry x="196" y="83.5" width="130" height="30" as="geometry" />
        </mxCell>
        <mxCell id="lVapkDd-fh6AjAawqO9X-43" style="edgeStyle=orthogonalEdgeStyle;rounded=0;orthogonalLoop=1;jettySize=auto;html=1;entryX=0;entryY=0.5;entryDx=0;entryDy=0;entryPerimeter=0;strokeWidth=3;fontSize=16;" edge="1" parent="lVapkDd-fh6AjAawqO9X-34" source="lVapkDd-fh6AjAawqO9X-39" target="lVapkDd-fh6AjAawqO9X-41">
          <mxGeometry relative="1" as="geometry">
            <Array as="points" />
          </mxGeometry>
        </mxCell>
        <mxCell id="lVapkDd-fh6AjAawqO9X-44" value="Setor de Compras e &#xa;Contratos" style="shape=tableRow;horizontal=0;swimlaneHead=0;swimlaneBody=0;top=0;left=0;strokeColor=inherit;bottom=0;right=0;dropTarget=0;fontStyle=0;fillColor=none;points=[[0,0.5],[1,0.5]];portConstraint=eastwest;startSize=40;collapsible=0;recursiveResize=0;expand=0;fontSize=16;rounded=0;" vertex="1" parent="lVapkDd-fh6AjAawqO9X-33">
          <mxGeometry y="194" width="1043" height="150" as="geometry" />
        </mxCell>
        <mxCell id="lVapkDd-fh6AjAawqO9X-45" value="" style="swimlane;swimlaneHead=0;swimlaneBody=0;fontStyle=0;connectable=0;strokeColor=inherit;fillColor=none;startSize=0;collapsible=0;recursiveResize=0;expand=0;fontSize=16;rounded=0;" vertex="1" parent="lVapkDd-fh6AjAawqO9X-44">
          <mxGeometry x="40" width="334" height="150" as="geometry">
            <mxRectangle width="334" height="150" as="alternateBounds" />
          </mxGeometry>
        </mxCell>
        <mxCell id="lVapkDd-fh6AjAawqO9X-46" value="&lt;font style=&quot;font-size: 11px;&quot;&gt;Envia pedido para o Fornecedor&lt;/font&gt;" style="whiteSpace=wrap;html=1;aspect=fixed;fontSize=16;gradientDirection=south;fillColor=#dae8fc;strokeColor=#6c8ebf;gradientColor=#7ea6e0;rounded=0;" vertex="1" parent="lVapkDd-fh6AjAawqO9X-45">
          <mxGeometry x="105" y="39.5" width="80" height="80" as="geometry" />
        </mxCell>
        <mxCell id="lVapkDd-fh6AjAawqO9X-47" value="" style="swimlane;swimlaneHead=0;swimlaneBody=0;fontStyle=0;connectable=0;strokeColor=inherit;fillColor=none;startSize=0;collapsible=0;recursiveResize=0;expand=0;fontSize=16;rounded=0;" vertex="1" parent="lVapkDd-fh6AjAawqO9X-44">
          <mxGeometry x="374" width="336" height="150" as="geometry">
            <mxRectangle width="336" height="150" as="alternateBounds" />
          </mxGeometry>
        </mxCell>
        <mxCell id="lVapkDd-fh6AjAawqO9X-48" value="" style="swimlane;swimlaneHead=0;swimlaneBody=0;fontStyle=0;connectable=0;strokeColor=inherit;fillColor=none;startSize=0;collapsible=0;recursiveResize=0;expand=0;fontSize=16;rounded=0;" vertex="1" parent="lVapkDd-fh6AjAawqO9X-44">
          <mxGeometry x="710" width="333" height="150" as="geometry">
            <mxRectangle width="333" height="150" as="alternateBounds" />
          </mxGeometry>
        </mxCell>
        <mxCell id="lVapkDd-fh6AjAawqO9X-49" value="Fornecedor" style="shape=tableRow;horizontal=0;swimlaneHead=0;swimlaneBody=0;top=0;left=0;strokeColor=inherit;bottom=0;right=0;dropTarget=0;fontStyle=0;fillColor=none;points=[[0,0.5],[1,0.5]];portConstraint=eastwest;startSize=40;collapsible=0;recursiveResize=0;expand=0;fontSize=16;rounded=0;" vertex="1" parent="lVapkDd-fh6AjAawqO9X-33">
          <mxGeometry y="344" width="1043" height="145" as="geometry" />
        </mxCell>
        <mxCell id="lVapkDd-fh6AjAawqO9X-50" value="" style="swimlane;swimlaneHead=0;swimlaneBody=0;fontStyle=0;connectable=0;strokeColor=inherit;fillColor=none;startSize=0;collapsible=0;recursiveResize=0;expand=0;fontSize=16;rounded=0;" vertex="1" parent="lVapkDd-fh6AjAawqO9X-49">
          <mxGeometry x="40" width="334" height="145" as="geometry">
            <mxRectangle width="334" height="145" as="alternateBounds" />
          </mxGeometry>
        </mxCell>
        <mxCell id="lVapkDd-fh6AjAawqO9X-51" value="&lt;font style=&quot;font-size: 11px;&quot;&gt;Envia os produtos&lt;/font&gt;" style="whiteSpace=wrap;html=1;aspect=fixed;fontSize=16;gradientDirection=south;fillColor=#dae8fc;strokeColor=#6c8ebf;gradientColor=#7ea6e0;rounded=0;" vertex="1" parent="lVapkDd-fh6AjAawqO9X-50">
          <mxGeometry x="105" y="40.5" width="80" height="80" as="geometry" />
        </mxCell>
        <mxCell id="lVapkDd-fh6AjAawqO9X-52" value="" style="swimlane;swimlaneHead=0;swimlaneBody=0;fontStyle=0;connectable=0;strokeColor=inherit;fillColor=none;startSize=0;collapsible=0;recursiveResize=0;expand=0;fontSize=16;rounded=0;" vertex="1" parent="lVapkDd-fh6AjAawqO9X-49">
          <mxGeometry x="374" width="336" height="145" as="geometry">
            <mxRectangle width="336" height="145" as="alternateBounds" />
          </mxGeometry>
        </mxCell>
        <mxCell id="lVapkDd-fh6AjAawqO9X-53" value="" style="swimlane;swimlaneHead=0;swimlaneBody=0;fontStyle=0;connectable=0;strokeColor=inherit;fillColor=none;startSize=0;collapsible=0;recursiveResize=0;expand=0;fontSize=16;rounded=0;" vertex="1" parent="lVapkDd-fh6AjAawqO9X-49">
          <mxGeometry x="710" width="333" height="145" as="geometry">
            <mxRectangle width="333" height="145" as="alternateBounds" />
          </mxGeometry>
        </mxCell>
        <mxCell id="lVapkDd-fh6AjAawqO9X-54" value="Almoxarifado" style="shape=tableRow;horizontal=0;swimlaneHead=0;swimlaneBody=0;top=0;left=0;strokeColor=inherit;bottom=0;right=0;dropTarget=0;fontStyle=0;fillColor=none;points=[[0,0.5],[1,0.5]];portConstraint=eastwest;startSize=40;collapsible=0;recursiveResize=0;expand=0;fontSize=16;rounded=0;" vertex="1" parent="lVapkDd-fh6AjAawqO9X-33">
          <mxGeometry y="489" width="1043" height="143" as="geometry" />
        </mxCell>
        <mxCell id="lVapkDd-fh6AjAawqO9X-55" style="swimlane;swimlaneHead=0;swimlaneBody=0;fontStyle=0;connectable=0;strokeColor=inherit;fillColor=none;startSize=0;collapsible=0;recursiveResize=0;expand=0;fontSize=16;rounded=0;" vertex="1" parent="lVapkDd-fh6AjAawqO9X-54">
          <mxGeometry x="40" width="334" height="143" as="geometry">
            <mxRectangle width="334" height="143" as="alternateBounds" />
          </mxGeometry>
        </mxCell>
        <mxCell id="lVapkDd-fh6AjAawqO9X-56" value="&lt;font style=&quot;font-size: 11px;&quot;&gt;Conferi os produttos&lt;/font&gt;" style="whiteSpace=wrap;html=1;aspect=fixed;fontSize=16;gradientDirection=south;fillColor=#dae8fc;strokeColor=#6c8ebf;gradientColor=#7ea6e0;rounded=0;" vertex="1" parent="lVapkDd-fh6AjAawqO9X-55">
          <mxGeometry x="105" y="31.5" width="80" height="80" as="geometry" />
        </mxCell>
        <mxCell id="lVapkDd-fh6AjAawqO9X-57" style="swimlane;swimlaneHead=0;swimlaneBody=0;fontStyle=0;connectable=0;strokeColor=inherit;fillColor=none;startSize=0;collapsible=0;recursiveResize=0;expand=0;fontSize=16;rounded=0;" vertex="1" parent="lVapkDd-fh6AjAawqO9X-54">
          <mxGeometry x="374" width="336" height="143" as="geometry">
            <mxRectangle width="336" height="143" as="alternateBounds" />
          </mxGeometry>
        </mxCell>
        <mxCell id="lVapkDd-fh6AjAawqO9X-58" value="&lt;font style=&quot;font-size: 11px;&quot;&gt;Envia os produtos para o Laboratório&lt;/font&gt;" style="whiteSpace=wrap;html=1;aspect=fixed;fontSize=16;gradientDirection=south;fillColor=#dae8fc;strokeColor=#6c8ebf;gradientColor=#7ea6e0;rounded=0;" vertex="1" parent="lVapkDd-fh6AjAawqO9X-57">
          <mxGeometry x="112" y="31.5" width="80" height="80" as="geometry" />
        </mxCell>
        <mxCell id="lVapkDd-fh6AjAawqO9X-59" style="swimlane;swimlaneHead=0;swimlaneBody=0;fontStyle=0;connectable=0;strokeColor=inherit;fillColor=none;startSize=0;collapsible=0;recursiveResize=0;expand=0;fontSize=16;rounded=0;" vertex="1" parent="lVapkDd-fh6AjAawqO9X-54">
          <mxGeometry x="710" width="333" height="143" as="geometry">
            <mxRectangle width="333" height="143" as="alternateBounds" />
          </mxGeometry>
        </mxCell>
        <mxCell id="lVapkDd-fh6AjAawqO9X-60" value="" style="edgeStyle=orthogonalEdgeStyle;rounded=0;orthogonalLoop=1;jettySize=auto;html=1;strokeWidth=3;fontSize=16;" edge="1" parent="lVapkDd-fh6AjAawqO9X-54" source="lVapkDd-fh6AjAawqO9X-56" target="lVapkDd-fh6AjAawqO9X-58">
          <mxGeometry relative="1" as="geometry" />
        </mxCell>
        <mxCell id="lVapkDd-fh6AjAawqO9X-61" style="edgeStyle=orthogonalEdgeStyle;rounded=0;orthogonalLoop=1;jettySize=auto;html=1;strokeWidth=3;fontSize=16;" edge="1" parent="lVapkDd-fh6AjAawqO9X-33" source="lVapkDd-fh6AjAawqO9X-36" target="lVapkDd-fh6AjAawqO9X-46">
          <mxGeometry relative="1" as="geometry" />
        </mxCell>
        <mxCell id="lVapkDd-fh6AjAawqO9X-62" value="" style="edgeStyle=orthogonalEdgeStyle;rounded=0;orthogonalLoop=1;jettySize=auto;html=1;strokeWidth=3;fontSize=16;" edge="1" parent="lVapkDd-fh6AjAawqO9X-33" source="lVapkDd-fh6AjAawqO9X-46" target="lVapkDd-fh6AjAawqO9X-51">
          <mxGeometry relative="1" as="geometry" />
        </mxCell>
        <mxCell id="lVapkDd-fh6AjAawqO9X-63" value="" style="edgeStyle=orthogonalEdgeStyle;rounded=0;orthogonalLoop=1;jettySize=auto;html=1;strokeWidth=3;fontSize=16;" edge="1" parent="lVapkDd-fh6AjAawqO9X-33" source="lVapkDd-fh6AjAawqO9X-58" target="lVapkDd-fh6AjAawqO9X-39">
          <mxGeometry relative="1" as="geometry" />
        </mxCell>
        <mxCell id="lVapkDd-fh6AjAawqO9X-64" value="" style="edgeStyle=orthogonalEdgeStyle;rounded=0;orthogonalLoop=1;jettySize=auto;html=1;strokeWidth=3;fontSize=16;" edge="1" parent="lVapkDd-fh6AjAawqO9X-33" source="lVapkDd-fh6AjAawqO9X-51" target="lVapkDd-fh6AjAawqO9X-56">
          <mxGeometry relative="1" as="geometry" />
        </mxCell>
        <mxCell id="aAONWbKrCNPE7wiDtGHO-1" value="" style="endArrow=none;html=1;rounded=0;strokeColor=#171717;strokeWidth=3;fontColor=#171717;fillColor=#FFE45E;" edge="1" parent="1">
          <mxGeometry width="50" height="50" relative="1" as="geometry">
            <mxPoint x="63" y="116" as="sourcePoint" />
            <mxPoint x="1122" y="114" as="targetPoint" />
          </mxGeometry>
        </mxCell>
        <mxCell id="aAONWbKrCNPE7wiDtGHO-2" value="&lt;div style=&quot;&quot;&gt;&lt;span style=&quot;font-size: 24px; background-color: initial;&quot;&gt;&lt;b&gt;Cross-Functional Flow Diagram:&lt;/b&gt;&lt;/span&gt;&lt;/div&gt;&lt;div style=&quot;&quot;&gt;&lt;span style=&quot;font-size: 24px; background-color: initial;&quot;&gt;Efetuar um pedido de compra&lt;/span&gt;&lt;/div&gt;&lt;div style=&quot;&quot;&gt;&lt;span style=&quot;font-size: 24px; background-color: initial;&quot;&gt;&lt;br&gt;&lt;/span&gt;&lt;/div&gt;&lt;font style=&quot;&quot;&gt;&lt;div style=&quot;&quot;&gt;&lt;span style=&quot;background-color: initial;&quot;&gt;Projeto: HematologyApp&lt;/span&gt;&lt;/div&gt;&lt;/font&gt;" style="text;html=1;align=left;verticalAlign=middle;resizable=0;points=[];autosize=1;strokeColor=none;fillColor=none;fontColor=#171717;rounded=0;" vertex="1" parent="1">
          <mxGeometry x="63" y="7" width="387" height="113" as="geometry" />
        </mxCell>
      </root>
    </mxGraphModel>
  </diagram>
  <diagram id="FBveL19XeJE8f4yKIEr6" name="Flowchart Diagram - Suprimentos">
    <mxGraphModel grid="0" page="1" gridSize="10" guides="1" tooltips="1" connect="1" arrows="1" fold="1" pageScale="1" pageWidth="1169" pageHeight="827" math="0" shadow="0">
      <root>
        <mxCell id="0" />
        <mxCell id="1" parent="0" />
        <mxCell id="gC5Rc5abHo7jc878DRUj-3" style="edgeStyle=orthogonalEdgeStyle;rounded=0;orthogonalLoop=1;jettySize=auto;html=1;entryX=0;entryY=0.5;entryDx=0;entryDy=0;strokeWidth=3;strokeColor=#171717;" edge="1" parent="1" source="PbD_10hI8iQkwrbghOEX-5" target="PbD_10hI8iQkwrbghOEX-6">
          <mxGeometry relative="1" as="geometry">
            <mxPoint x="1189" y="610" as="targetPoint" />
          </mxGeometry>
        </mxCell>
        <mxCell id="A7j3Q6ZK0ZbOTya0EJga-2" value="Sim" style="edgeLabel;html=1;align=center;verticalAlign=middle;resizable=0;points=[];fontSize=11;" connectable="0" vertex="1" parent="gC5Rc5abHo7jc878DRUj-3">
          <mxGeometry x="-0.3805" relative="1" as="geometry">
            <mxPoint as="offset" />
          </mxGeometry>
        </mxCell>
        <mxCell id="pxGwXBdl_PifAIFfUyo7-8" style="edgeStyle=orthogonalEdgeStyle;rounded=0;orthogonalLoop=1;jettySize=auto;html=1;entryX=0;entryY=0.5;entryDx=0;entryDy=0;strokeColor=#171717;fontColor=#5AA9E6;fillColor=#FFE45E;strokeWidth=3;" edge="1" parent="1" source="PbD_10hI8iQkwrbghOEX-5" target="A7j3Q6ZK0ZbOTya0EJga-1">
          <mxGeometry relative="1" as="geometry">
            <Array as="points">
              <mxPoint x="199" y="665" />
              <mxPoint x="199" y="510" />
            </Array>
          </mxGeometry>
        </mxCell>
        <mxCell id="pxGwXBdl_PifAIFfUyo7-9" value="Não" style="edgeLabel;html=1;align=center;verticalAlign=middle;resizable=0;points=[];fontColor=#171717;" connectable="0" vertex="1" parent="pxGwXBdl_PifAIFfUyo7-8">
          <mxGeometry x="-0.2179" y="-3" relative="1" as="geometry">
            <mxPoint as="offset" />
          </mxGeometry>
        </mxCell>
        <mxCell id="PbD_10hI8iQkwrbghOEX-5" value="Permissão para Inserir nota fiscal?" style="rhombus;whiteSpace=wrap;html=1;shadow=0;fontFamily=Helvetica;fontSize=12;align=center;strokeWidth=1;spacing=6;spacingTop=-4;fillColor=#fff2cc;gradientColor=#ffd966;strokeColor=#d6b656;" vertex="1" parent="1">
          <mxGeometry x="219" y="610" width="120" height="110" as="geometry" />
        </mxCell>
        <mxCell id="pxGwXBdl_PifAIFfUyo7-11" value="" style="edgeStyle=orthogonalEdgeStyle;rounded=0;orthogonalLoop=1;jettySize=auto;html=1;strokeColor=#171717;fontColor=#5AA9E6;fillColor=#FFE45E;strokeWidth=3;" edge="1" parent="1" source="PbD_10hI8iQkwrbghOEX-6" target="pxGwXBdl_PifAIFfUyo7-10">
          <mxGeometry relative="1" as="geometry" />
        </mxCell>
        <mxCell id="PbD_10hI8iQkwrbghOEX-6" value="Suprimentos" style="rounded=1;whiteSpace=wrap;html=1;fontSize=12;glass=0;strokeWidth=1;shadow=0;fillColor=#fff2cc;gradientColor=#ffd966;strokeColor=#d6b656;" vertex="1" parent="1">
          <mxGeometry x="479" y="637.5" width="120" height="55" as="geometry" />
        </mxCell>
        <mxCell id="pxGwXBdl_PifAIFfUyo7-3" value="" style="edgeStyle=orthogonalEdgeStyle;rounded=0;orthogonalLoop=1;jettySize=auto;html=1;strokeColor=#171717;fontColor=#5AA9E6;fillColor=#FFE45E;strokeWidth=3;" edge="1" parent="1" source="421bxCNufzht84EHTzL5-2" target="pxGwXBdl_PifAIFfUyo7-2">
          <mxGeometry relative="1" as="geometry" />
        </mxCell>
        <mxCell id="421bxCNufzht84EHTzL5-2" value="Login" style="strokeWidth=2;html=1;shape=mxgraph.flowchart.start_1;whiteSpace=wrap;fillColor=#fff2cc;strokeColor=#d6b656;gradientColor=#ffd966;" vertex="1" parent="1">
          <mxGeometry x="229" y="180" width="100" height="60" as="geometry" />
        </mxCell>
        <mxCell id="A7j3Q6ZK0ZbOTya0EJga-8" style="edgeStyle=orthogonalEdgeStyle;rounded=0;orthogonalLoop=1;jettySize=auto;html=1;entryX=0.5;entryY=0;entryDx=0;entryDy=0;strokeWidth=3;fontSize=12;startSize=3;endSize=0;strokeColor=#171717;" edge="1" parent="1" source="A7j3Q6ZK0ZbOTya0EJga-1" target="PbD_10hI8iQkwrbghOEX-5">
          <mxGeometry relative="1" as="geometry" />
        </mxCell>
        <mxCell id="A7j3Q6ZK0ZbOTya0EJga-1" value="Dashboard" style="rounded=1;whiteSpace=wrap;html=1;fontSize=12;glass=0;strokeWidth=1;shadow=0;fillColor=#fff2cc;gradientColor=#ffd966;strokeColor=#d6b656;" vertex="1" parent="1">
          <mxGeometry x="219" y="490" width="120" height="40" as="geometry" />
        </mxCell>
        <mxCell id="eIAlRHZcNUgW4928dkkw-3" value="" style="edgeStyle=orthogonalEdgeStyle;rounded=0;orthogonalLoop=1;jettySize=auto;html=1;strokeWidth=3;" edge="1" parent="1" source="eIAlRHZcNUgW4928dkkw-1" target="eIAlRHZcNUgW4928dkkw-2">
          <mxGeometry relative="1" as="geometry" />
        </mxCell>
        <mxCell id="eIAlRHZcNUgW4928dkkw-1" value="Tela de Login" style="ellipse;whiteSpace=wrap;html=1;fillColor=#fff2cc;strokeColor=#d6b656;gradientColor=#ffd966;" vertex="1" parent="1">
          <mxGeometry x="189" y="2649" width="120" height="80" as="geometry" />
        </mxCell>
        <mxCell id="eIAlRHZcNUgW4928dkkw-4" style="edgeStyle=orthogonalEdgeStyle;rounded=0;orthogonalLoop=1;jettySize=auto;html=1;entryX=1;entryY=0.5;entryDx=0;entryDy=0;strokeWidth=3;" edge="1" parent="1" source="eIAlRHZcNUgW4928dkkw-2" target="eIAlRHZcNUgW4928dkkw-1">
          <mxGeometry relative="1" as="geometry">
            <Array as="points">
              <mxPoint x="329" y="2859" />
              <mxPoint x="329" y="2689" />
            </Array>
          </mxGeometry>
        </mxCell>
        <mxCell id="eIAlRHZcNUgW4928dkkw-5" value="Não" style="edgeLabel;html=1;align=center;verticalAlign=middle;resizable=0;points=[];" connectable="0" vertex="1" parent="eIAlRHZcNUgW4928dkkw-4">
          <mxGeometry x="-0.0823" y="-1" relative="1" as="geometry">
            <mxPoint as="offset" />
          </mxGeometry>
        </mxCell>
        <mxCell id="eIAlRHZcNUgW4928dkkw-15" value="" style="edgeStyle=orthogonalEdgeStyle;rounded=0;orthogonalLoop=1;jettySize=auto;html=1;strokeWidth=3;fontSize=12;entryX=0.5;entryY=0;entryDx=0;entryDy=0;" edge="1" parent="1" source="eIAlRHZcNUgW4928dkkw-2" target="eIAlRHZcNUgW4928dkkw-19">
          <mxGeometry relative="1" as="geometry">
            <mxPoint x="249" y="2969" as="targetPoint" />
            <Array as="points" />
          </mxGeometry>
        </mxCell>
        <mxCell id="eIAlRHZcNUgW4928dkkw-16" value="Sim" style="edgeLabel;html=1;align=center;verticalAlign=middle;resizable=0;points=[];fontSize=12;" connectable="0" vertex="1" parent="eIAlRHZcNUgW4928dkkw-15">
          <mxGeometry x="-0.2593" relative="1" as="geometry">
            <mxPoint as="offset" />
          </mxGeometry>
        </mxCell>
        <mxCell id="eIAlRHZcNUgW4928dkkw-2" value="Usuário tem acesso ao sistema?" style="rhombus;whiteSpace=wrap;html=1;fillColor=#fff2cc;strokeColor=#d6b656;gradientColor=#ffd966;" vertex="1" parent="1">
          <mxGeometry x="199" y="2809" width="100" height="100" as="geometry" />
        </mxCell>
        <mxCell id="eIAlRHZcNUgW4928dkkw-18" value="" style="edgeStyle=orthogonalEdgeStyle;rounded=0;orthogonalLoop=1;jettySize=auto;html=1;strokeWidth=3;fontSize=12;" edge="1" parent="1">
          <mxGeometry relative="1" as="geometry">
            <mxPoint x="299" y="3239" as="sourcePoint" />
            <mxPoint x="399" y="3239" as="targetPoint" />
          </mxGeometry>
        </mxCell>
        <mxCell id="eIAlRHZcNUgW4928dkkw-22" style="edgeStyle=orthogonalEdgeStyle;rounded=0;orthogonalLoop=1;jettySize=auto;html=1;entryX=0;entryY=0.5;entryDx=0;entryDy=0;strokeWidth=3;fontSize=12;" edge="1" parent="1" target="eIAlRHZcNUgW4928dkkw-19">
          <mxGeometry relative="1" as="geometry">
            <mxPoint x="199" y="3239" as="sourcePoint" />
            <Array as="points">
              <mxPoint x="169" y="3239" />
              <mxPoint x="169" y="3059" />
            </Array>
          </mxGeometry>
        </mxCell>
        <mxCell id="eIAlRHZcNUgW4928dkkw-23" value="Não" style="edgeLabel;html=1;align=center;verticalAlign=middle;resizable=0;points=[];fontSize=12;" connectable="0" vertex="1" parent="eIAlRHZcNUgW4928dkkw-22">
          <mxGeometry x="-0.03" relative="1" as="geometry">
            <mxPoint as="offset" />
          </mxGeometry>
        </mxCell>
        <mxCell id="eIAlRHZcNUgW4928dkkw-14" value="Permissão para pedidos?" style="rhombus;whiteSpace=wrap;html=1;fillColor=#fff2cc;strokeColor=#d6b656;gradientColor=#ffd966;" vertex="1" parent="1">
          <mxGeometry x="199" y="3189" width="100" height="100" as="geometry" />
        </mxCell>
        <mxCell id="eIAlRHZcNUgW4928dkkw-24" style="edgeStyle=orthogonalEdgeStyle;rounded=0;orthogonalLoop=1;jettySize=auto;html=1;entryX=0.5;entryY=0;entryDx=0;entryDy=0;strokeWidth=3;fontSize=12;" edge="1" parent="1" source="eIAlRHZcNUgW4928dkkw-19">
          <mxGeometry relative="1" as="geometry">
            <mxPoint x="249" y="3189" as="targetPoint" />
          </mxGeometry>
        </mxCell>
        <mxCell id="eIAlRHZcNUgW4928dkkw-19" value="Dashboard" style="whiteSpace=wrap;html=1;fillColor=#fff2cc;strokeColor=#d6b656;gradientColor=#ffd966;" vertex="1" parent="1">
          <mxGeometry x="189" y="3029" width="120" height="60" as="geometry" />
        </mxCell>
        <mxCell id="eIAlRHZcNUgW4928dkkw-29" value="" style="edgeStyle=orthogonalEdgeStyle;rounded=0;orthogonalLoop=1;jettySize=auto;html=1;strokeWidth=3;fontSize=12;" edge="1" parent="1" source="eIAlRHZcNUgW4928dkkw-25" target="eIAlRHZcNUgW4928dkkw-28">
          <mxGeometry relative="1" as="geometry" />
        </mxCell>
        <mxCell id="eIAlRHZcNUgW4928dkkw-25" value="Pedido de compra" style="whiteSpace=wrap;html=1;fillColor=#fff2cc;strokeColor=#d6b656;gradientColor=#ffd966;" vertex="1" parent="1">
          <mxGeometry x="399" y="3029" width="120" height="60" as="geometry" />
        </mxCell>
        <mxCell id="eIAlRHZcNUgW4928dkkw-27" style="edgeStyle=orthogonalEdgeStyle;rounded=0;orthogonalLoop=1;jettySize=auto;html=1;entryX=0.5;entryY=1;entryDx=0;entryDy=0;strokeWidth=3;fontSize=12;" edge="1" parent="1" source="eIAlRHZcNUgW4928dkkw-26" target="eIAlRHZcNUgW4928dkkw-25">
          <mxGeometry relative="1" as="geometry" />
        </mxCell>
        <mxCell id="eIAlRHZcNUgW4928dkkw-26" value="Suprimentos" style="whiteSpace=wrap;html=1;fillColor=#fff2cc;strokeColor=#d6b656;gradientColor=#ffd966;" vertex="1" parent="1">
          <mxGeometry x="399" y="3209" width="120" height="60" as="geometry" />
        </mxCell>
        <mxCell id="eIAlRHZcNUgW4928dkkw-31" value="" style="edgeStyle=orthogonalEdgeStyle;rounded=0;orthogonalLoop=1;jettySize=auto;html=1;strokeWidth=3;fontSize=12;" edge="1" parent="1" source="eIAlRHZcNUgW4928dkkw-28" target="eIAlRHZcNUgW4928dkkw-30">
          <mxGeometry relative="1" as="geometry" />
        </mxCell>
        <mxCell id="eIAlRHZcNUgW4928dkkw-28" value="Adicionar Pedido" style="whiteSpace=wrap;html=1;fillColor=#fff2cc;strokeColor=#d6b656;gradientColor=#ffd966;" vertex="1" parent="1">
          <mxGeometry x="680" y="3029" width="120" height="60" as="geometry" />
        </mxCell>
        <mxCell id="eIAlRHZcNUgW4928dkkw-33" value="" style="edgeStyle=orthogonalEdgeStyle;rounded=0;orthogonalLoop=1;jettySize=auto;html=1;strokeWidth=3;fontSize=12;" edge="1" parent="1" source="eIAlRHZcNUgW4928dkkw-30" target="eIAlRHZcNUgW4928dkkw-32">
          <mxGeometry relative="1" as="geometry" />
        </mxCell>
        <mxCell id="eIAlRHZcNUgW4928dkkw-30" value="Salvar pedido" style="whiteSpace=wrap;html=1;fillColor=#fff2cc;strokeColor=#d6b656;gradientColor=#ffd966;" vertex="1" parent="1">
          <mxGeometry x="680" y="2889" width="120" height="60" as="geometry" />
        </mxCell>
        <mxCell id="eIAlRHZcNUgW4928dkkw-35" value="" style="edgeStyle=orthogonalEdgeStyle;rounded=0;orthogonalLoop=1;jettySize=auto;html=1;strokeWidth=3;fontSize=12;" edge="1" parent="1" source="eIAlRHZcNUgW4928dkkw-32" target="eIAlRHZcNUgW4928dkkw-34">
          <mxGeometry relative="1" as="geometry" />
        </mxCell>
        <mxCell id="eIAlRHZcNUgW4928dkkw-32" value="Enviar pedido" style="whiteSpace=wrap;html=1;fillColor=#fff2cc;strokeColor=#d6b656;gradientColor=#ffd966;" vertex="1" parent="1">
          <mxGeometry x="880" y="2889" width="120" height="60" as="geometry" />
        </mxCell>
        <mxCell id="eIAlRHZcNUgW4928dkkw-34" value="Logout" style="ellipse;whiteSpace=wrap;html=1;fillColor=#fff2cc;strokeColor=#d6b656;gradientColor=#ffd966;" vertex="1" parent="1">
          <mxGeometry x="883.25" y="3049" width="113.5" height="70" as="geometry" />
        </mxCell>
        <mxCell id="pxGwXBdl_PifAIFfUyo7-4" style="edgeStyle=orthogonalEdgeStyle;rounded=0;orthogonalLoop=1;jettySize=auto;html=1;entryX=1;entryY=0.5;entryDx=0;entryDy=0;entryPerimeter=0;strokeColor=#171717;fontColor=#5AA9E6;fillColor=#FFE45E;strokeWidth=3;" edge="1" parent="1" source="pxGwXBdl_PifAIFfUyo7-2" target="421bxCNufzht84EHTzL5-2">
          <mxGeometry relative="1" as="geometry">
            <Array as="points">
              <mxPoint x="349" y="350" />
              <mxPoint x="349" y="210" />
            </Array>
          </mxGeometry>
        </mxCell>
        <mxCell id="pxGwXBdl_PifAIFfUyo7-5" value="Não" style="edgeLabel;html=1;align=center;verticalAlign=middle;resizable=0;points=[];fontColor=#171717;" connectable="0" vertex="1" parent="pxGwXBdl_PifAIFfUyo7-4">
          <mxGeometry x="-0.2105" relative="1" as="geometry">
            <mxPoint x="-1" as="offset" />
          </mxGeometry>
        </mxCell>
        <mxCell id="pxGwXBdl_PifAIFfUyo7-6" style="edgeStyle=orthogonalEdgeStyle;rounded=0;orthogonalLoop=1;jettySize=auto;html=1;entryX=0.5;entryY=0;entryDx=0;entryDy=0;strokeColor=#171717;fontColor=#5AA9E6;fillColor=#FFE45E;strokeWidth=3;" edge="1" parent="1" source="pxGwXBdl_PifAIFfUyo7-2" target="A7j3Q6ZK0ZbOTya0EJga-1">
          <mxGeometry relative="1" as="geometry" />
        </mxCell>
        <mxCell id="pxGwXBdl_PifAIFfUyo7-7" value="Sim" style="edgeLabel;html=1;align=center;verticalAlign=middle;resizable=0;points=[];fontColor=#171717;" connectable="0" vertex="1" parent="pxGwXBdl_PifAIFfUyo7-6">
          <mxGeometry x="-0.2308" y="-3" relative="1" as="geometry">
            <mxPoint as="offset" />
          </mxGeometry>
        </mxCell>
        <mxCell id="pxGwXBdl_PifAIFfUyo7-2" value="Tem acesso?" style="rhombus;whiteSpace=wrap;html=1;fillColor=#fff2cc;strokeColor=#d6b656;strokeWidth=2;gradientColor=#ffd966;" vertex="1" parent="1">
          <mxGeometry x="229" y="310" width="100" height="100" as="geometry" />
        </mxCell>
        <mxCell id="pxGwXBdl_PifAIFfUyo7-13" value="" style="edgeStyle=orthogonalEdgeStyle;rounded=0;orthogonalLoop=1;jettySize=auto;html=1;strokeColor=#171717;fontColor=#5AA9E6;fillColor=#FFE45E;strokeWidth=3;" edge="1" parent="1" source="pxGwXBdl_PifAIFfUyo7-10" target="pxGwXBdl_PifAIFfUyo7-12">
          <mxGeometry relative="1" as="geometry" />
        </mxCell>
        <mxCell id="pxGwXBdl_PifAIFfUyo7-10" value="Cadastrar Nota Fiscal" style="whiteSpace=wrap;html=1;fillColor=#fff2cc;strokeColor=#d6b656;rounded=1;glass=0;strokeWidth=1;shadow=0;gradientColor=#ffd966;" vertex="1" parent="1">
          <mxGeometry x="689" y="637.5" width="110" height="55" as="geometry" />
        </mxCell>
        <mxCell id="pxGwXBdl_PifAIFfUyo7-17" style="edgeStyle=orthogonalEdgeStyle;rounded=0;orthogonalLoop=1;jettySize=auto;html=1;entryX=0;entryY=0.5;entryDx=0;entryDy=0;strokeColor=#171717;fontColor=#5AA9E6;fillColor=#FFE45E;strokeWidth=3;" edge="1" parent="1" source="pxGwXBdl_PifAIFfUyo7-12" target="pxGwXBdl_PifAIFfUyo7-16">
          <mxGeometry relative="1" as="geometry" />
        </mxCell>
        <mxCell id="pxGwXBdl_PifAIFfUyo7-12" value="Salvar Nota Fiscal&amp;nbsp;" style="whiteSpace=wrap;html=1;fillColor=#fff2cc;strokeColor=#d6b656;rounded=1;glass=0;strokeWidth=1;shadow=0;gradientColor=#ffd966;" vertex="1" parent="1">
          <mxGeometry x="684" y="443" width="120" height="60" as="geometry" />
        </mxCell>
        <mxCell id="pxGwXBdl_PifAIFfUyo7-16" value="Logout" style="ellipse;whiteSpace=wrap;html=1;fillColor=#fff2cc;strokeColor=#d6b656;rounded=1;glass=0;strokeWidth=1;shadow=0;gradientColor=#ffd966;" vertex="1" parent="1">
          <mxGeometry x="923" y="435" width="105" height="76" as="geometry" />
        </mxCell>
        <mxCell id="pxGwXBdl_PifAIFfUyo7-18" style="edgeStyle=orthogonalEdgeStyle;rounded=0;orthogonalLoop=1;jettySize=auto;html=1;entryX=0;entryY=0.5;entryDx=0;entryDy=0;strokeWidth=3;strokeColor=#171717;" edge="1" parent="1" source="pxGwXBdl_PifAIFfUyo7-22" target="pxGwXBdl_PifAIFfUyo7-24">
          <mxGeometry relative="1" as="geometry">
            <mxPoint x="1109" y="1430" as="targetPoint" />
          </mxGeometry>
        </mxCell>
        <mxCell id="pxGwXBdl_PifAIFfUyo7-19" value="Sim" style="edgeLabel;html=1;align=center;verticalAlign=middle;resizable=0;points=[];fontSize=11;" connectable="0" vertex="1" parent="pxGwXBdl_PifAIFfUyo7-18">
          <mxGeometry x="-0.3805" relative="1" as="geometry">
            <mxPoint as="offset" />
          </mxGeometry>
        </mxCell>
        <mxCell id="pxGwXBdl_PifAIFfUyo7-20" style="edgeStyle=orthogonalEdgeStyle;rounded=0;orthogonalLoop=1;jettySize=auto;html=1;entryX=0;entryY=0.5;entryDx=0;entryDy=0;strokeColor=#171717;fontColor=#5AA9E6;fillColor=#FFE45E;strokeWidth=3;" edge="1" parent="1" source="pxGwXBdl_PifAIFfUyo7-22" target="pxGwXBdl_PifAIFfUyo7-28">
          <mxGeometry relative="1" as="geometry">
            <Array as="points">
              <mxPoint x="119" y="1485" />
              <mxPoint x="119" y="1330" />
            </Array>
          </mxGeometry>
        </mxCell>
        <mxCell id="pxGwXBdl_PifAIFfUyo7-21" value="Não" style="edgeLabel;html=1;align=center;verticalAlign=middle;resizable=0;points=[];fontColor=#171717;" connectable="0" vertex="1" parent="pxGwXBdl_PifAIFfUyo7-20">
          <mxGeometry x="-0.2179" y="-3" relative="1" as="geometry">
            <mxPoint as="offset" />
          </mxGeometry>
        </mxCell>
        <mxCell id="pxGwXBdl_PifAIFfUyo7-22" value="Permissão para emitir relatórios?" style="rhombus;whiteSpace=wrap;html=1;shadow=0;fontFamily=Helvetica;fontSize=12;align=center;strokeWidth=1;spacing=6;spacingTop=-4;fillColor=#fff2cc;gradientColor=#ffd966;strokeColor=#d6b656;" vertex="1" parent="1">
          <mxGeometry x="139" y="1430" width="120" height="110" as="geometry" />
        </mxCell>
        <mxCell id="pxGwXBdl_PifAIFfUyo7-23" value="" style="edgeStyle=orthogonalEdgeStyle;rounded=0;orthogonalLoop=1;jettySize=auto;html=1;strokeColor=#171717;fontColor=#5AA9E6;fillColor=#FFE45E;strokeWidth=3;" edge="1" parent="1" source="pxGwXBdl_PifAIFfUyo7-24" target="pxGwXBdl_PifAIFfUyo7-35">
          <mxGeometry relative="1" as="geometry" />
        </mxCell>
        <mxCell id="pxGwXBdl_PifAIFfUyo7-24" value="Suprimentos" style="rounded=1;whiteSpace=wrap;html=1;fontSize=12;glass=0;strokeWidth=1;shadow=0;fillColor=#fff2cc;gradientColor=#ffd966;strokeColor=#d6b656;" vertex="1" parent="1">
          <mxGeometry x="399" y="1457.5" width="120" height="55" as="geometry" />
        </mxCell>
        <mxCell id="pxGwXBdl_PifAIFfUyo7-25" value="" style="edgeStyle=orthogonalEdgeStyle;rounded=0;orthogonalLoop=1;jettySize=auto;html=1;strokeColor=#171717;fontColor=#5AA9E6;fillColor=#FFE45E;strokeWidth=3;" edge="1" parent="1" source="pxGwXBdl_PifAIFfUyo7-26" target="pxGwXBdl_PifAIFfUyo7-33">
          <mxGeometry relative="1" as="geometry" />
        </mxCell>
        <mxCell id="pxGwXBdl_PifAIFfUyo7-26" value="Login" style="strokeWidth=2;html=1;shape=mxgraph.flowchart.start_1;whiteSpace=wrap;fillColor=#fff2cc;strokeColor=#d6b656;gradientColor=#ffd966;" vertex="1" parent="1">
          <mxGeometry x="149" y="1000" width="100" height="60" as="geometry" />
        </mxCell>
        <mxCell id="pxGwXBdl_PifAIFfUyo7-27" style="edgeStyle=orthogonalEdgeStyle;rounded=0;orthogonalLoop=1;jettySize=auto;html=1;entryX=0.5;entryY=0;entryDx=0;entryDy=0;strokeWidth=3;fontSize=12;startSize=3;endSize=0;strokeColor=#171717;" edge="1" parent="1" source="pxGwXBdl_PifAIFfUyo7-28" target="pxGwXBdl_PifAIFfUyo7-22">
          <mxGeometry relative="1" as="geometry" />
        </mxCell>
        <mxCell id="pxGwXBdl_PifAIFfUyo7-28" value="Dashboard" style="rounded=1;whiteSpace=wrap;html=1;fontSize=12;glass=0;strokeWidth=1;shadow=0;fillColor=#fff2cc;gradientColor=#ffd966;strokeColor=#d6b656;" vertex="1" parent="1">
          <mxGeometry x="139" y="1310" width="120" height="40" as="geometry" />
        </mxCell>
        <mxCell id="pxGwXBdl_PifAIFfUyo7-29" style="edgeStyle=orthogonalEdgeStyle;rounded=0;orthogonalLoop=1;jettySize=auto;html=1;entryX=1;entryY=0.5;entryDx=0;entryDy=0;entryPerimeter=0;strokeColor=#171717;fontColor=#5AA9E6;fillColor=#FFE45E;strokeWidth=3;" edge="1" parent="1" source="pxGwXBdl_PifAIFfUyo7-33" target="pxGwXBdl_PifAIFfUyo7-26">
          <mxGeometry relative="1" as="geometry">
            <Array as="points">
              <mxPoint x="269" y="1170" />
              <mxPoint x="269" y="1030" />
            </Array>
          </mxGeometry>
        </mxCell>
        <mxCell id="pxGwXBdl_PifAIFfUyo7-30" value="Não" style="edgeLabel;html=1;align=center;verticalAlign=middle;resizable=0;points=[];fontColor=#171717;" connectable="0" vertex="1" parent="pxGwXBdl_PifAIFfUyo7-29">
          <mxGeometry x="-0.2105" relative="1" as="geometry">
            <mxPoint x="-1" as="offset" />
          </mxGeometry>
        </mxCell>
        <mxCell id="pxGwXBdl_PifAIFfUyo7-31" style="edgeStyle=orthogonalEdgeStyle;rounded=0;orthogonalLoop=1;jettySize=auto;html=1;entryX=0.5;entryY=0;entryDx=0;entryDy=0;strokeColor=#171717;fontColor=#5AA9E6;fillColor=#FFE45E;strokeWidth=3;" edge="1" parent="1" source="pxGwXBdl_PifAIFfUyo7-33" target="pxGwXBdl_PifAIFfUyo7-28">
          <mxGeometry relative="1" as="geometry" />
        </mxCell>
        <mxCell id="pxGwXBdl_PifAIFfUyo7-32" value="Sim" style="edgeLabel;html=1;align=center;verticalAlign=middle;resizable=0;points=[];fontColor=#171717;" connectable="0" vertex="1" parent="pxGwXBdl_PifAIFfUyo7-31">
          <mxGeometry x="-0.2308" y="-3" relative="1" as="geometry">
            <mxPoint as="offset" />
          </mxGeometry>
        </mxCell>
        <mxCell id="pxGwXBdl_PifAIFfUyo7-33" value="Tem acesso?" style="rhombus;whiteSpace=wrap;html=1;fillColor=#fff2cc;strokeColor=#d6b656;strokeWidth=2;gradientColor=#ffd966;" vertex="1" parent="1">
          <mxGeometry x="149" y="1130" width="100" height="100" as="geometry" />
        </mxCell>
        <mxCell id="pxGwXBdl_PifAIFfUyo7-34" value="" style="edgeStyle=orthogonalEdgeStyle;rounded=0;orthogonalLoop=1;jettySize=auto;html=1;strokeColor=#171717;fontColor=#5AA9E6;fillColor=#FFE45E;strokeWidth=3;exitX=0.5;exitY=0;exitDx=0;exitDy=0;" edge="1" parent="1" source="X_BS0S3T8XjdQKgLPTfi-1" target="pxGwXBdl_PifAIFfUyo7-37">
          <mxGeometry relative="1" as="geometry" />
        </mxCell>
        <mxCell id="X_BS0S3T8XjdQKgLPTfi-2" value="" style="edgeStyle=orthogonalEdgeStyle;rounded=0;orthogonalLoop=1;jettySize=auto;html=1;strokeWidth=3;" edge="1" parent="1" source="pxGwXBdl_PifAIFfUyo7-35" target="X_BS0S3T8XjdQKgLPTfi-1">
          <mxGeometry relative="1" as="geometry" />
        </mxCell>
        <mxCell id="pxGwXBdl_PifAIFfUyo7-35" value="Relatórios" style="whiteSpace=wrap;html=1;fillColor=#fff2cc;strokeColor=#d6b656;rounded=1;glass=0;strokeWidth=1;shadow=0;gradientColor=#ffd966;" vertex="1" parent="1">
          <mxGeometry x="609" y="1457.5" width="110" height="55" as="geometry" />
        </mxCell>
        <mxCell id="pxGwXBdl_PifAIFfUyo7-44" style="edgeStyle=orthogonalEdgeStyle;rounded=0;orthogonalLoop=1;jettySize=auto;html=1;entryX=0;entryY=0.5;entryDx=0;entryDy=0;strokeColor=#171717;strokeWidth=3;fontColor=#5AA9E6;fillColor=#FFE45E;" edge="1" parent="1" source="pxGwXBdl_PifAIFfUyo7-37" target="pxGwXBdl_PifAIFfUyo7-39">
          <mxGeometry relative="1" as="geometry" />
        </mxCell>
        <mxCell id="pxGwXBdl_PifAIFfUyo7-45" style="edgeStyle=orthogonalEdgeStyle;rounded=0;orthogonalLoop=1;jettySize=auto;html=1;entryX=0;entryY=0.5;entryDx=0;entryDy=0;strokeColor=#171717;strokeWidth=3;fontColor=#171717;fillColor=#FFE45E;" edge="1" parent="1" source="pxGwXBdl_PifAIFfUyo7-37" target="pxGwXBdl_PifAIFfUyo7-40">
          <mxGeometry relative="1" as="geometry" />
        </mxCell>
        <mxCell id="pxGwXBdl_PifAIFfUyo7-46" style="edgeStyle=orthogonalEdgeStyle;rounded=0;orthogonalLoop=1;jettySize=auto;html=1;entryX=0;entryY=0.5;entryDx=0;entryDy=0;strokeColor=#171717;strokeWidth=3;fontColor=#171717;fillColor=#FFE45E;" edge="1" parent="1" source="pxGwXBdl_PifAIFfUyo7-37" target="pxGwXBdl_PifAIFfUyo7-42">
          <mxGeometry relative="1" as="geometry" />
        </mxCell>
        <mxCell id="pxGwXBdl_PifAIFfUyo7-37" value="Gerar relatório" style="whiteSpace=wrap;html=1;fillColor=#fff2cc;strokeColor=#d6b656;rounded=1;glass=0;strokeWidth=1;shadow=0;gradientColor=#ffd966;" vertex="1" parent="1">
          <mxGeometry x="604" y="1150" width="120" height="60" as="geometry" />
        </mxCell>
        <mxCell id="pxGwXBdl_PifAIFfUyo7-38" value="Logout" style="ellipse;whiteSpace=wrap;html=1;fillColor=#fff2cc;strokeColor=#d6b656;rounded=1;glass=0;strokeWidth=1;shadow=0;gradientColor=#ffd966;" vertex="1" parent="1">
          <mxGeometry x="1025" y="1144.5" width="104" height="71" as="geometry" />
        </mxCell>
        <mxCell id="pxGwXBdl_PifAIFfUyo7-47" style="edgeStyle=orthogonalEdgeStyle;rounded=0;orthogonalLoop=1;jettySize=auto;html=1;strokeColor=#171717;strokeWidth=3;fontColor=#171717;fillColor=#FFE45E;entryX=-0.008;entryY=0.498;entryDx=0;entryDy=0;entryPerimeter=0;" edge="1" parent="1" source="pxGwXBdl_PifAIFfUyo7-39" target="pxGwXBdl_PifAIFfUyo7-38">
          <mxGeometry relative="1" as="geometry">
            <mxPoint x="1010" y="1170" as="targetPoint" />
          </mxGeometry>
        </mxCell>
        <mxCell id="pxGwXBdl_PifAIFfUyo7-39" value="&lt;font color=&quot;#171717&quot;&gt;Salvar relatório&lt;/font&gt;" style="whiteSpace=wrap;html=1;fillColor=#fff2cc;strokeColor=#d6b656;rounded=1;glass=0;strokeWidth=1;shadow=0;gradientColor=#ffd966;fontColor=#5AA9E6;" vertex="1" parent="1">
          <mxGeometry x="804" y="1010" width="120" height="60" as="geometry" />
        </mxCell>
        <mxCell id="pxGwXBdl_PifAIFfUyo7-48" style="edgeStyle=orthogonalEdgeStyle;rounded=0;orthogonalLoop=1;jettySize=auto;html=1;strokeColor=#171717;strokeWidth=3;fontColor=#171717;fillColor=#FFE45E;entryX=-0.003;entryY=0.499;entryDx=0;entryDy=0;entryPerimeter=0;" edge="1" parent="1" source="pxGwXBdl_PifAIFfUyo7-40" target="pxGwXBdl_PifAIFfUyo7-38">
          <mxGeometry relative="1" as="geometry">
            <mxPoint x="1020" y="1180" as="targetPoint" />
          </mxGeometry>
        </mxCell>
        <mxCell id="pxGwXBdl_PifAIFfUyo7-40" value="&lt;font color=&quot;#171717&quot;&gt;Imprimir relatório&lt;/font&gt;" style="whiteSpace=wrap;html=1;fillColor=#fff2cc;strokeColor=#d6b656;fontColor=#5AA9E6;rounded=1;glass=0;strokeWidth=1;shadow=0;gradientColor=#ffd966;" vertex="1" parent="1">
          <mxGeometry x="804" y="1150" width="120" height="60" as="geometry" />
        </mxCell>
        <mxCell id="pxGwXBdl_PifAIFfUyo7-49" style="edgeStyle=orthogonalEdgeStyle;rounded=0;orthogonalLoop=1;jettySize=auto;html=1;strokeColor=#171717;strokeWidth=3;fontColor=#171717;fillColor=#FFE45E;entryX=-0.004;entryY=0.499;entryDx=0;entryDy=0;entryPerimeter=0;" edge="1" parent="1" source="pxGwXBdl_PifAIFfUyo7-42" target="pxGwXBdl_PifAIFfUyo7-38">
          <mxGeometry relative="1" as="geometry">
            <mxPoint x="1010" y="1160" as="targetPoint" />
          </mxGeometry>
        </mxCell>
        <mxCell id="pxGwXBdl_PifAIFfUyo7-42" value="&lt;font color=&quot;#171717&quot;&gt;Enviar relatório&lt;/font&gt;" style="whiteSpace=wrap;html=1;fillColor=#fff2cc;strokeColor=#d6b656;fontColor=#5AA9E6;rounded=1;glass=0;strokeWidth=1;shadow=0;gradientColor=#ffd966;" vertex="1" parent="1">
          <mxGeometry x="804" y="1290" width="120" height="60" as="geometry" />
        </mxCell>
        <mxCell id="Qe60x-YEFD0Sm21H4xDC-1" value="" style="endArrow=none;html=1;rounded=0;strokeColor=#171717;strokeWidth=3;fontColor=#171717;fillColor=#FFE45E;" edge="1" parent="1">
          <mxGeometry width="50" height="50" relative="1" as="geometry">
            <mxPoint x="39" y="118.75" as="sourcePoint" />
            <mxPoint x="1119" y="118.75" as="targetPoint" />
          </mxGeometry>
        </mxCell>
        <mxCell id="Qe60x-YEFD0Sm21H4xDC-2" value="&lt;div style=&quot;&quot;&gt;&lt;span style=&quot;font-size: 24px;&quot;&gt;&lt;b&gt;Flow Chart Diagram:&lt;/b&gt;&amp;nbsp;&lt;/span&gt;&lt;/div&gt;&lt;font style=&quot;font-size: 24px;&quot;&gt;Cadastrar Nota Fiscal de entrada&lt;br&gt;&lt;br&gt;&lt;/font&gt;&lt;font style=&quot;&quot;&gt;&lt;div style=&quot;&quot;&gt;&lt;span style=&quot;background-color: initial;&quot;&gt;Projeto: HematologyApp&lt;/span&gt;&lt;/div&gt;&lt;/font&gt;" style="text;html=1;align=left;verticalAlign=middle;resizable=0;points=[];autosize=1;strokeColor=none;fillColor=none;fontColor=#171717;" vertex="1" parent="1">
          <mxGeometry x="39" y="9" width="372" height="113" as="geometry" />
        </mxCell>
        <mxCell id="Qe60x-YEFD0Sm21H4xDC-3" value="" style="endArrow=none;html=1;rounded=0;strokeColor=#171717;strokeWidth=3;fontColor=#171717;fillColor=#FFE45E;" edge="1" parent="1">
          <mxGeometry width="50" height="50" relative="1" as="geometry">
            <mxPoint x="44" y="953.75" as="sourcePoint" />
            <mxPoint x="1123.9999999999995" y="953.75" as="targetPoint" />
          </mxGeometry>
        </mxCell>
        <mxCell id="Qe60x-YEFD0Sm21H4xDC-4" value="&lt;div style=&quot;&quot;&gt;&lt;span style=&quot;font-size: 24px;&quot;&gt;&lt;b&gt;Flow Chart Diagram:&lt;/b&gt;&amp;nbsp;&lt;/span&gt;&lt;/div&gt;&lt;font style=&quot;font-size: 24px;&quot;&gt;Emitir relatórios&lt;br&gt;&lt;br&gt;&lt;/font&gt;&lt;font style=&quot;&quot;&gt;&lt;div style=&quot;&quot;&gt;&lt;span style=&quot;background-color: initial;&quot;&gt;Projeto: HematologyApp&lt;/span&gt;&lt;/div&gt;&lt;/font&gt;" style="text;html=1;align=left;verticalAlign=middle;resizable=0;points=[];autosize=1;strokeColor=none;fillColor=none;fontColor=#171717;" vertex="1" parent="1">
          <mxGeometry x="44" y="844" width="259" height="113" as="geometry" />
        </mxCell>
        <mxCell id="Qe60x-YEFD0Sm21H4xDC-7" value="&lt;div style=&quot;&quot;&gt;&lt;span style=&quot;font-size: 24px;&quot;&gt;&lt;b&gt;Flow Chart Diagram:&lt;/b&gt;&amp;nbsp;&lt;/span&gt;&lt;/div&gt;&lt;font style=&quot;font-size: 24px;&quot;&gt;Gerar pedido de compra&lt;br&gt;&lt;br&gt;&lt;/font&gt;&lt;font style=&quot;&quot;&gt;&lt;div style=&quot;&quot;&gt;&lt;span style=&quot;background-color: initial;&quot;&gt;Projeto: HematologyApp&lt;/span&gt;&lt;/div&gt;&lt;/font&gt;" style="text;html=1;align=left;verticalAlign=middle;resizable=0;points=[];autosize=1;strokeColor=none;fillColor=none;fontColor=#171717;" vertex="1" parent="1">
          <mxGeometry x="44" y="2499" width="278" height="113" as="geometry" />
        </mxCell>
        <mxCell id="Qe60x-YEFD0Sm21H4xDC-8" value="" style="endArrow=none;html=1;rounded=0;strokeColor=#171717;strokeWidth=3;fontColor=#171717;fillColor=#FFE45E;" edge="1" parent="1">
          <mxGeometry width="50" height="50" relative="1" as="geometry">
            <mxPoint x="44" y="2608.75" as="sourcePoint" />
            <mxPoint x="1123.9999999999995" y="2608.75" as="targetPoint" />
          </mxGeometry>
        </mxCell>
        <mxCell id="X_BS0S3T8XjdQKgLPTfi-1" value="Escolher Filtro" style="whiteSpace=wrap;html=1;fillColor=#fff2cc;strokeColor=#d6b656;rounded=1;glass=0;strokeWidth=1;shadow=0;gradientColor=#ffd966;" vertex="1" parent="1">
          <mxGeometry x="609" y="1300" width="110" height="55" as="geometry" />
        </mxCell>
        <mxCell id="X_BS0S3T8XjdQKgLPTfi-5" style="edgeStyle=orthogonalEdgeStyle;rounded=0;orthogonalLoop=1;jettySize=auto;html=1;entryX=0;entryY=0.5;entryDx=0;entryDy=0;strokeWidth=3;strokeColor=#171717;" edge="1" parent="1" source="X_BS0S3T8XjdQKgLPTfi-9" target="X_BS0S3T8XjdQKgLPTfi-11">
          <mxGeometry relative="1" as="geometry">
            <mxPoint x="1109" y="2286" as="targetPoint" />
          </mxGeometry>
        </mxCell>
        <mxCell id="X_BS0S3T8XjdQKgLPTfi-6" value="Sim" style="edgeLabel;html=1;align=center;verticalAlign=middle;resizable=0;points=[];fontSize=11;" connectable="0" vertex="1" parent="X_BS0S3T8XjdQKgLPTfi-5">
          <mxGeometry x="-0.3805" relative="1" as="geometry">
            <mxPoint as="offset" />
          </mxGeometry>
        </mxCell>
        <mxCell id="X_BS0S3T8XjdQKgLPTfi-7" style="edgeStyle=orthogonalEdgeStyle;rounded=0;orthogonalLoop=1;jettySize=auto;html=1;entryX=0;entryY=0.5;entryDx=0;entryDy=0;strokeColor=#171717;fontColor=#5AA9E6;fillColor=#FFE45E;strokeWidth=3;" edge="1" parent="1" source="X_BS0S3T8XjdQKgLPTfi-9" target="X_BS0S3T8XjdQKgLPTfi-15">
          <mxGeometry relative="1" as="geometry">
            <Array as="points">
              <mxPoint x="119" y="2341" />
              <mxPoint x="119" y="2186" />
            </Array>
          </mxGeometry>
        </mxCell>
        <mxCell id="X_BS0S3T8XjdQKgLPTfi-8" value="Não" style="edgeLabel;html=1;align=center;verticalAlign=middle;resizable=0;points=[];fontColor=#171717;" connectable="0" vertex="1" parent="X_BS0S3T8XjdQKgLPTfi-7">
          <mxGeometry x="-0.2179" y="-3" relative="1" as="geometry">
            <mxPoint as="offset" />
          </mxGeometry>
        </mxCell>
        <mxCell id="X_BS0S3T8XjdQKgLPTfi-9" value="Permissão para emitir relatórios?" style="rhombus;whiteSpace=wrap;html=1;shadow=0;fontFamily=Helvetica;fontSize=12;align=center;strokeWidth=1;spacing=6;spacingTop=-4;fillColor=#fff2cc;gradientColor=#ffd966;strokeColor=#d6b656;" vertex="1" parent="1">
          <mxGeometry x="139" y="2286" width="120" height="110" as="geometry" />
        </mxCell>
        <mxCell id="X_BS0S3T8XjdQKgLPTfi-10" value="" style="edgeStyle=orthogonalEdgeStyle;rounded=0;orthogonalLoop=1;jettySize=auto;html=1;strokeColor=#171717;fontColor=#5AA9E6;fillColor=#FFE45E;strokeWidth=3;" edge="1" parent="1" source="X_BS0S3T8XjdQKgLPTfi-11" target="X_BS0S3T8XjdQKgLPTfi-23">
          <mxGeometry relative="1" as="geometry" />
        </mxCell>
        <mxCell id="X_BS0S3T8XjdQKgLPTfi-11" value="Suprimentos" style="rounded=1;whiteSpace=wrap;html=1;fontSize=12;glass=0;strokeWidth=1;shadow=0;fillColor=#fff2cc;gradientColor=#ffd966;strokeColor=#d6b656;" vertex="1" parent="1">
          <mxGeometry x="399" y="2313.5" width="120" height="55" as="geometry" />
        </mxCell>
        <mxCell id="X_BS0S3T8XjdQKgLPTfi-12" value="" style="edgeStyle=orthogonalEdgeStyle;rounded=0;orthogonalLoop=1;jettySize=auto;html=1;strokeColor=#171717;fontColor=#5AA9E6;fillColor=#FFE45E;strokeWidth=3;" edge="1" parent="1" source="X_BS0S3T8XjdQKgLPTfi-13" target="X_BS0S3T8XjdQKgLPTfi-20">
          <mxGeometry relative="1" as="geometry" />
        </mxCell>
        <mxCell id="X_BS0S3T8XjdQKgLPTfi-13" value="Login" style="strokeWidth=2;html=1;shape=mxgraph.flowchart.start_1;whiteSpace=wrap;fillColor=#fff2cc;strokeColor=#d6b656;gradientColor=#ffd966;" vertex="1" parent="1">
          <mxGeometry x="149" y="1856" width="100" height="60" as="geometry" />
        </mxCell>
        <mxCell id="X_BS0S3T8XjdQKgLPTfi-14" style="edgeStyle=orthogonalEdgeStyle;rounded=0;orthogonalLoop=1;jettySize=auto;html=1;entryX=0.5;entryY=0;entryDx=0;entryDy=0;strokeWidth=3;fontSize=12;startSize=3;endSize=0;strokeColor=#171717;" edge="1" parent="1" source="X_BS0S3T8XjdQKgLPTfi-15" target="X_BS0S3T8XjdQKgLPTfi-9">
          <mxGeometry relative="1" as="geometry" />
        </mxCell>
        <mxCell id="X_BS0S3T8XjdQKgLPTfi-15" value="Dashboard" style="rounded=1;whiteSpace=wrap;html=1;fontSize=12;glass=0;strokeWidth=1;shadow=0;fillColor=#fff2cc;gradientColor=#ffd966;strokeColor=#d6b656;" vertex="1" parent="1">
          <mxGeometry x="139" y="2166" width="120" height="40" as="geometry" />
        </mxCell>
        <mxCell id="X_BS0S3T8XjdQKgLPTfi-16" style="edgeStyle=orthogonalEdgeStyle;rounded=0;orthogonalLoop=1;jettySize=auto;html=1;entryX=1;entryY=0.5;entryDx=0;entryDy=0;entryPerimeter=0;strokeColor=#171717;fontColor=#5AA9E6;fillColor=#FFE45E;strokeWidth=3;" edge="1" parent="1" source="X_BS0S3T8XjdQKgLPTfi-20" target="X_BS0S3T8XjdQKgLPTfi-13">
          <mxGeometry relative="1" as="geometry">
            <Array as="points">
              <mxPoint x="269" y="2026" />
              <mxPoint x="269" y="1886" />
            </Array>
          </mxGeometry>
        </mxCell>
        <mxCell id="X_BS0S3T8XjdQKgLPTfi-17" value="Não" style="edgeLabel;html=1;align=center;verticalAlign=middle;resizable=0;points=[];fontColor=#171717;" connectable="0" vertex="1" parent="X_BS0S3T8XjdQKgLPTfi-16">
          <mxGeometry x="-0.2105" relative="1" as="geometry">
            <mxPoint x="-1" as="offset" />
          </mxGeometry>
        </mxCell>
        <mxCell id="X_BS0S3T8XjdQKgLPTfi-18" style="edgeStyle=orthogonalEdgeStyle;rounded=0;orthogonalLoop=1;jettySize=auto;html=1;entryX=0.5;entryY=0;entryDx=0;entryDy=0;strokeColor=#171717;fontColor=#5AA9E6;fillColor=#FFE45E;strokeWidth=3;" edge="1" parent="1" source="X_BS0S3T8XjdQKgLPTfi-20" target="X_BS0S3T8XjdQKgLPTfi-15">
          <mxGeometry relative="1" as="geometry" />
        </mxCell>
        <mxCell id="X_BS0S3T8XjdQKgLPTfi-19" value="Sim" style="edgeLabel;html=1;align=center;verticalAlign=middle;resizable=0;points=[];fontColor=#171717;" connectable="0" vertex="1" parent="X_BS0S3T8XjdQKgLPTfi-18">
          <mxGeometry x="-0.2308" y="-3" relative="1" as="geometry">
            <mxPoint as="offset" />
          </mxGeometry>
        </mxCell>
        <mxCell id="X_BS0S3T8XjdQKgLPTfi-20" value="Tem acesso?" style="rhombus;whiteSpace=wrap;html=1;fillColor=#fff2cc;strokeColor=#d6b656;strokeWidth=2;gradientColor=#ffd966;" vertex="1" parent="1">
          <mxGeometry x="149" y="1986" width="100" height="100" as="geometry" />
        </mxCell>
        <mxCell id="X_BS0S3T8XjdQKgLPTfi-21" value="" style="edgeStyle=orthogonalEdgeStyle;rounded=0;orthogonalLoop=1;jettySize=auto;html=1;strokeColor=#171717;fontColor=#5AA9E6;fillColor=#FFE45E;strokeWidth=3;exitX=0.5;exitY=0;exitDx=0;exitDy=0;entryX=0.447;entryY=0.993;entryDx=0;entryDy=0;entryPerimeter=0;" edge="1" parent="1" source="X_BS0S3T8XjdQKgLPTfi-37" target="X_BS0S3T8XjdQKgLPTfi-38">
          <mxGeometry relative="1" as="geometry">
            <mxPoint x="664" y="2066" as="targetPoint" />
          </mxGeometry>
        </mxCell>
        <mxCell id="X_BS0S3T8XjdQKgLPTfi-22" value="" style="edgeStyle=orthogonalEdgeStyle;rounded=0;orthogonalLoop=1;jettySize=auto;html=1;strokeWidth=3;" edge="1" parent="1" source="X_BS0S3T8XjdQKgLPTfi-23" target="X_BS0S3T8XjdQKgLPTfi-37">
          <mxGeometry relative="1" as="geometry" />
        </mxCell>
        <mxCell id="X_BS0S3T8XjdQKgLPTfi-23" value="Novo Reagente" style="whiteSpace=wrap;html=1;fillColor=#fff2cc;strokeColor=#d6b656;rounded=1;glass=0;strokeWidth=1;shadow=0;gradientColor=#ffd966;" vertex="1" parent="1">
          <mxGeometry x="609" y="2313.5" width="110" height="55" as="geometry" />
        </mxCell>
        <mxCell id="X_BS0S3T8XjdQKgLPTfi-24" style="edgeStyle=orthogonalEdgeStyle;rounded=0;orthogonalLoop=1;jettySize=auto;html=1;entryX=0;entryY=0.5;entryDx=0;entryDy=0;strokeColor=#171717;strokeWidth=3;fontColor=#5AA9E6;fillColor=#FFE45E;" edge="1" parent="1">
          <mxGeometry relative="1" as="geometry">
            <mxPoint x="724" y="2036.04" as="sourcePoint" />
          </mxGeometry>
        </mxCell>
        <mxCell id="X_BS0S3T8XjdQKgLPTfi-25" style="edgeStyle=orthogonalEdgeStyle;rounded=0;orthogonalLoop=1;jettySize=auto;html=1;entryX=0;entryY=0.5;entryDx=0;entryDy=0;strokeColor=#171717;strokeWidth=3;fontColor=#171717;fillColor=#FFE45E;" edge="1" parent="1">
          <mxGeometry relative="1" as="geometry">
            <mxPoint x="724" y="2036" as="sourcePoint" />
          </mxGeometry>
        </mxCell>
        <mxCell id="X_BS0S3T8XjdQKgLPTfi-26" style="edgeStyle=orthogonalEdgeStyle;rounded=0;orthogonalLoop=1;jettySize=auto;html=1;entryX=0;entryY=0.5;entryDx=0;entryDy=0;strokeColor=#171717;strokeWidth=3;fontColor=#171717;fillColor=#FFE45E;" edge="1" parent="1">
          <mxGeometry relative="1" as="geometry">
            <mxPoint x="724" y="2036.04" as="sourcePoint" />
          </mxGeometry>
        </mxCell>
        <mxCell id="X_BS0S3T8XjdQKgLPTfi-28" value="Logout" style="ellipse;whiteSpace=wrap;html=1;fillColor=#fff2cc;strokeColor=#d6b656;rounded=1;glass=0;strokeWidth=1;shadow=0;gradientColor=#ffd966;" vertex="1" parent="1">
          <mxGeometry x="940" y="2015" width="104" height="71" as="geometry" />
        </mxCell>
        <mxCell id="X_BS0S3T8XjdQKgLPTfi-35" value="" style="endArrow=none;html=1;rounded=0;strokeColor=#171717;strokeWidth=3;fontColor=#171717;fillColor=#FFE45E;" edge="1" parent="1">
          <mxGeometry width="50" height="50" relative="1" as="geometry">
            <mxPoint x="44" y="1809.75" as="sourcePoint" />
            <mxPoint x="1124" y="1809.75" as="targetPoint" />
          </mxGeometry>
        </mxCell>
        <mxCell id="X_BS0S3T8XjdQKgLPTfi-36" value="&lt;div style=&quot;&quot;&gt;&lt;span style=&quot;font-size: 24px;&quot;&gt;&lt;b&gt;Flow Chart Diagram:&lt;/b&gt;&amp;nbsp;&lt;/span&gt;&lt;/div&gt;&lt;font style=&quot;font-size: 24px;&quot;&gt;Cadastrar Reagente&lt;br&gt;&lt;br&gt;&lt;/font&gt;&lt;font style=&quot;&quot;&gt;&lt;div style=&quot;&quot;&gt;&lt;span style=&quot;background-color: initial;&quot;&gt;Projeto: HematologyApp&lt;/span&gt;&lt;/div&gt;&lt;/font&gt;" style="text;html=1;align=left;verticalAlign=middle;resizable=0;points=[];autosize=1;strokeColor=none;fillColor=none;fontColor=#171717;" vertex="1" parent="1">
          <mxGeometry x="44" y="1702" width="260" height="110" as="geometry" />
        </mxCell>
        <mxCell id="X_BS0S3T8XjdQKgLPTfi-37" value="Inserir dados" style="whiteSpace=wrap;html=1;fillColor=#fff2cc;strokeColor=#d6b656;rounded=1;glass=0;strokeWidth=1;shadow=0;gradientColor=#ffd966;" vertex="1" parent="1">
          <mxGeometry x="609" y="2156" width="110" height="55" as="geometry" />
        </mxCell>
        <mxCell id="X_BS0S3T8XjdQKgLPTfi-39" style="edgeStyle=orthogonalEdgeStyle;rounded=0;orthogonalLoop=1;jettySize=auto;html=1;entryX=0.025;entryY=0.666;entryDx=0;entryDy=0;entryPerimeter=0;strokeWidth=3;" edge="1" parent="1" source="X_BS0S3T8XjdQKgLPTfi-38" target="X_BS0S3T8XjdQKgLPTfi-28">
          <mxGeometry relative="1" as="geometry" />
        </mxCell>
        <mxCell id="X_BS0S3T8XjdQKgLPTfi-38" value="Salvar Reagente" style="whiteSpace=wrap;html=1;fillColor=#fff2cc;strokeColor=#d6b656;rounded=1;glass=0;strokeWidth=1;shadow=0;gradientColor=#ffd966;" vertex="1" parent="1">
          <mxGeometry x="614" y="1986" width="110" height="55" as="geometry" />
        </mxCell>
        <mxCell id="X_BS0S3T8XjdQKgLPTfi-40" style="edgeStyle=orthogonalEdgeStyle;rounded=0;orthogonalLoop=1;jettySize=auto;html=1;entryX=0;entryY=0.5;entryDx=0;entryDy=0;strokeWidth=3;strokeColor=#171717;" edge="1" parent="1" source="X_BS0S3T8XjdQKgLPTfi-44" target="X_BS0S3T8XjdQKgLPTfi-46">
          <mxGeometry relative="1" as="geometry">
            <mxPoint x="1085" y="3904" as="targetPoint" />
          </mxGeometry>
        </mxCell>
        <mxCell id="X_BS0S3T8XjdQKgLPTfi-41" value="Sim" style="edgeLabel;html=1;align=center;verticalAlign=middle;resizable=0;points=[];fontSize=11;" connectable="0" vertex="1" parent="X_BS0S3T8XjdQKgLPTfi-40">
          <mxGeometry x="-0.3805" relative="1" as="geometry">
            <mxPoint as="offset" />
          </mxGeometry>
        </mxCell>
        <mxCell id="X_BS0S3T8XjdQKgLPTfi-42" style="edgeStyle=orthogonalEdgeStyle;rounded=0;orthogonalLoop=1;jettySize=auto;html=1;entryX=0;entryY=0.5;entryDx=0;entryDy=0;strokeColor=#171717;fontColor=#5AA9E6;fillColor=#FFE45E;strokeWidth=3;" edge="1" parent="1" source="X_BS0S3T8XjdQKgLPTfi-44" target="X_BS0S3T8XjdQKgLPTfi-50">
          <mxGeometry relative="1" as="geometry">
            <Array as="points">
              <mxPoint x="95" y="3959" />
              <mxPoint x="95" y="3804" />
            </Array>
          </mxGeometry>
        </mxCell>
        <mxCell id="X_BS0S3T8XjdQKgLPTfi-43" value="Não" style="edgeLabel;html=1;align=center;verticalAlign=middle;resizable=0;points=[];fontColor=#171717;" connectable="0" vertex="1" parent="X_BS0S3T8XjdQKgLPTfi-42">
          <mxGeometry x="-0.2179" y="-3" relative="1" as="geometry">
            <mxPoint as="offset" />
          </mxGeometry>
        </mxCell>
        <mxCell id="X_BS0S3T8XjdQKgLPTfi-44" value="Permissão para emitir relatórios?" style="rhombus;whiteSpace=wrap;html=1;shadow=0;fontFamily=Helvetica;fontSize=12;align=center;strokeWidth=1;spacing=6;spacingTop=-4;fillColor=#fff2cc;gradientColor=#ffd966;strokeColor=#d6b656;" vertex="1" parent="1">
          <mxGeometry x="115" y="3904" width="120" height="110" as="geometry" />
        </mxCell>
        <mxCell id="X_BS0S3T8XjdQKgLPTfi-45" value="" style="edgeStyle=orthogonalEdgeStyle;rounded=0;orthogonalLoop=1;jettySize=auto;html=1;strokeColor=#171717;fontColor=#5AA9E6;fillColor=#FFE45E;strokeWidth=3;" edge="1" parent="1" source="X_BS0S3T8XjdQKgLPTfi-46" target="X_BS0S3T8XjdQKgLPTfi-58">
          <mxGeometry relative="1" as="geometry" />
        </mxCell>
        <mxCell id="X_BS0S3T8XjdQKgLPTfi-46" value="Suprimentos" style="rounded=1;whiteSpace=wrap;html=1;fontSize=12;glass=0;strokeWidth=1;shadow=0;fillColor=#fff2cc;gradientColor=#ffd966;strokeColor=#d6b656;" vertex="1" parent="1">
          <mxGeometry x="375" y="3931.5" width="120" height="55" as="geometry" />
        </mxCell>
        <mxCell id="X_BS0S3T8XjdQKgLPTfi-47" value="" style="edgeStyle=orthogonalEdgeStyle;rounded=0;orthogonalLoop=1;jettySize=auto;html=1;strokeColor=#171717;fontColor=#5AA9E6;fillColor=#FFE45E;strokeWidth=3;" edge="1" parent="1" source="X_BS0S3T8XjdQKgLPTfi-48" target="X_BS0S3T8XjdQKgLPTfi-55">
          <mxGeometry relative="1" as="geometry" />
        </mxCell>
        <mxCell id="X_BS0S3T8XjdQKgLPTfi-48" value="Login" style="strokeWidth=2;html=1;shape=mxgraph.flowchart.start_1;whiteSpace=wrap;fillColor=#fff2cc;strokeColor=#d6b656;gradientColor=#ffd966;" vertex="1" parent="1">
          <mxGeometry x="125" y="3474" width="100" height="60" as="geometry" />
        </mxCell>
        <mxCell id="X_BS0S3T8XjdQKgLPTfi-49" style="edgeStyle=orthogonalEdgeStyle;rounded=0;orthogonalLoop=1;jettySize=auto;html=1;entryX=0.5;entryY=0;entryDx=0;entryDy=0;strokeWidth=3;fontSize=12;startSize=3;endSize=0;strokeColor=#171717;" edge="1" parent="1" source="X_BS0S3T8XjdQKgLPTfi-50" target="X_BS0S3T8XjdQKgLPTfi-44">
          <mxGeometry relative="1" as="geometry" />
        </mxCell>
        <mxCell id="X_BS0S3T8XjdQKgLPTfi-50" value="Dashboard" style="rounded=1;whiteSpace=wrap;html=1;fontSize=12;glass=0;strokeWidth=1;shadow=0;fillColor=#fff2cc;gradientColor=#ffd966;strokeColor=#d6b656;" vertex="1" parent="1">
          <mxGeometry x="115" y="3784" width="120" height="40" as="geometry" />
        </mxCell>
        <mxCell id="X_BS0S3T8XjdQKgLPTfi-51" style="edgeStyle=orthogonalEdgeStyle;rounded=0;orthogonalLoop=1;jettySize=auto;html=1;entryX=1;entryY=0.5;entryDx=0;entryDy=0;entryPerimeter=0;strokeColor=#171717;fontColor=#5AA9E6;fillColor=#FFE45E;strokeWidth=3;" edge="1" parent="1" source="X_BS0S3T8XjdQKgLPTfi-55" target="X_BS0S3T8XjdQKgLPTfi-48">
          <mxGeometry relative="1" as="geometry">
            <Array as="points">
              <mxPoint x="245" y="3644" />
              <mxPoint x="245" y="3504" />
            </Array>
          </mxGeometry>
        </mxCell>
        <mxCell id="X_BS0S3T8XjdQKgLPTfi-52" value="Não" style="edgeLabel;html=1;align=center;verticalAlign=middle;resizable=0;points=[];fontColor=#171717;" connectable="0" vertex="1" parent="X_BS0S3T8XjdQKgLPTfi-51">
          <mxGeometry x="-0.2105" relative="1" as="geometry">
            <mxPoint x="-1" as="offset" />
          </mxGeometry>
        </mxCell>
        <mxCell id="X_BS0S3T8XjdQKgLPTfi-53" style="edgeStyle=orthogonalEdgeStyle;rounded=0;orthogonalLoop=1;jettySize=auto;html=1;entryX=0.5;entryY=0;entryDx=0;entryDy=0;strokeColor=#171717;fontColor=#5AA9E6;fillColor=#FFE45E;strokeWidth=3;" edge="1" parent="1" source="X_BS0S3T8XjdQKgLPTfi-55" target="X_BS0S3T8XjdQKgLPTfi-50">
          <mxGeometry relative="1" as="geometry" />
        </mxCell>
        <mxCell id="X_BS0S3T8XjdQKgLPTfi-54" value="Sim" style="edgeLabel;html=1;align=center;verticalAlign=middle;resizable=0;points=[];fontColor=#171717;" connectable="0" vertex="1" parent="X_BS0S3T8XjdQKgLPTfi-53">
          <mxGeometry x="-0.2308" y="-3" relative="1" as="geometry">
            <mxPoint as="offset" />
          </mxGeometry>
        </mxCell>
        <mxCell id="X_BS0S3T8XjdQKgLPTfi-55" value="Tem acesso?" style="rhombus;whiteSpace=wrap;html=1;fillColor=#fff2cc;strokeColor=#d6b656;strokeWidth=2;gradientColor=#ffd966;" vertex="1" parent="1">
          <mxGeometry x="125" y="3604" width="100" height="100" as="geometry" />
        </mxCell>
        <mxCell id="X_BS0S3T8XjdQKgLPTfi-56" value="" style="edgeStyle=orthogonalEdgeStyle;rounded=0;orthogonalLoop=1;jettySize=auto;html=1;strokeColor=#171717;fontColor=#5AA9E6;fillColor=#FFE45E;strokeWidth=3;exitX=0.5;exitY=0;exitDx=0;exitDy=0;entryX=0.447;entryY=0.993;entryDx=0;entryDy=0;entryPerimeter=0;" edge="1" parent="1" source="X_BS0S3T8XjdQKgLPTfi-62" target="X_BS0S3T8XjdQKgLPTfi-64">
          <mxGeometry relative="1" as="geometry">
            <mxPoint x="640" y="3684" as="targetPoint" />
          </mxGeometry>
        </mxCell>
        <mxCell id="X_BS0S3T8XjdQKgLPTfi-57" value="" style="edgeStyle=orthogonalEdgeStyle;rounded=0;orthogonalLoop=1;jettySize=auto;html=1;strokeWidth=3;" edge="1" parent="1" source="X_BS0S3T8XjdQKgLPTfi-58" target="X_BS0S3T8XjdQKgLPTfi-62">
          <mxGeometry relative="1" as="geometry" />
        </mxCell>
        <mxCell id="X_BS0S3T8XjdQKgLPTfi-58" value="Consultar Reagente" style="whiteSpace=wrap;html=1;fillColor=#fff2cc;strokeColor=#d6b656;rounded=1;glass=0;strokeWidth=1;shadow=0;gradientColor=#ffd966;" vertex="1" parent="1">
          <mxGeometry x="585" y="3931.5" width="110" height="55" as="geometry" />
        </mxCell>
        <mxCell id="X_BS0S3T8XjdQKgLPTfi-59" value="Logout" style="ellipse;whiteSpace=wrap;html=1;fillColor=#fff2cc;strokeColor=#d6b656;rounded=1;glass=0;strokeWidth=1;shadow=0;gradientColor=#ffd966;" vertex="1" parent="1">
          <mxGeometry x="963" y="3850" width="104" height="71" as="geometry" />
        </mxCell>
        <mxCell id="X_BS0S3T8XjdQKgLPTfi-60" value="" style="endArrow=none;html=1;rounded=0;strokeColor=#171717;strokeWidth=3;fontColor=#171717;fillColor=#FFE45E;" edge="1" parent="1">
          <mxGeometry width="50" height="50" relative="1" as="geometry">
            <mxPoint x="20" y="3427.75" as="sourcePoint" />
            <mxPoint x="1100" y="3427.75" as="targetPoint" />
          </mxGeometry>
        </mxCell>
        <mxCell id="X_BS0S3T8XjdQKgLPTfi-61" value="&lt;div style=&quot;&quot;&gt;&lt;span style=&quot;font-size: 24px;&quot;&gt;&lt;b&gt;Flow Chart Diagram:&lt;/b&gt;&amp;nbsp;&lt;/span&gt;&lt;/div&gt;&lt;font style=&quot;&quot;&gt;&lt;div style=&quot;&quot;&gt;&lt;span style=&quot;background-color: initial;&quot;&gt;&lt;span style=&quot;font-size: 24px;&quot;&gt;Editar Reagente&lt;/span&gt;&lt;/span&gt;&lt;/div&gt;&lt;div style=&quot;&quot;&gt;&lt;span style=&quot;background-color: initial;&quot;&gt;&lt;br&gt;&lt;/span&gt;&lt;/div&gt;&lt;div style=&quot;&quot;&gt;&lt;span style=&quot;background-color: initial;&quot;&gt;Projeto: HematologyApp&lt;/span&gt;&lt;/div&gt;&lt;/font&gt;" style="text;html=1;align=left;verticalAlign=middle;resizable=0;points=[];autosize=1;strokeColor=none;fillColor=none;fontColor=#171717;" vertex="1" parent="1">
          <mxGeometry x="20" y="3325" width="260" height="100" as="geometry" />
        </mxCell>
        <mxCell id="X_BS0S3T8XjdQKgLPTfi-62" value="Selecionar Reagente" style="whiteSpace=wrap;html=1;fillColor=#fff2cc;strokeColor=#d6b656;rounded=1;glass=0;strokeWidth=1;shadow=0;gradientColor=#ffd966;" vertex="1" parent="1">
          <mxGeometry x="585" y="3774" width="110" height="55" as="geometry" />
        </mxCell>
        <mxCell id="X_BS0S3T8XjdQKgLPTfi-63" style="edgeStyle=orthogonalEdgeStyle;rounded=0;orthogonalLoop=1;jettySize=auto;html=1;entryX=0;entryY=0.75;entryDx=0;entryDy=0;strokeWidth=3;" edge="1" parent="1" source="X_BS0S3T8XjdQKgLPTfi-64" target="X_BS0S3T8XjdQKgLPTfi-65">
          <mxGeometry relative="1" as="geometry" />
        </mxCell>
        <mxCell id="X_BS0S3T8XjdQKgLPTfi-64" value="Editar Reagente&amp;nbsp;" style="whiteSpace=wrap;html=1;fillColor=#fff2cc;strokeColor=#d6b656;rounded=1;glass=0;strokeWidth=1;shadow=0;gradientColor=#ffd966;" vertex="1" parent="1">
          <mxGeometry x="590" y="3604" width="110" height="55" as="geometry" />
        </mxCell>
        <mxCell id="X_BS0S3T8XjdQKgLPTfi-66" style="edgeStyle=orthogonalEdgeStyle;rounded=0;orthogonalLoop=1;jettySize=auto;html=1;strokeWidth=3;" edge="1" parent="1" source="X_BS0S3T8XjdQKgLPTfi-65" target="X_BS0S3T8XjdQKgLPTfi-59">
          <mxGeometry relative="1" as="geometry" />
        </mxCell>
        <mxCell id="X_BS0S3T8XjdQKgLPTfi-65" value="Salvar Reagente" style="whiteSpace=wrap;html=1;fillColor=#fff2cc;strokeColor=#d6b656;rounded=1;glass=0;strokeWidth=1;shadow=0;gradientColor=#ffd966;" vertex="1" parent="1">
          <mxGeometry x="960" y="3590" width="110" height="55" as="geometry" />
        </mxCell>
        <mxCell id="X_BS0S3T8XjdQKgLPTfi-67" style="edgeStyle=orthogonalEdgeStyle;rounded=0;orthogonalLoop=1;jettySize=auto;html=1;entryX=0;entryY=0.5;entryDx=0;entryDy=0;strokeWidth=3;strokeColor=#171717;" edge="1" parent="1" source="X_BS0S3T8XjdQKgLPTfi-71" target="X_BS0S3T8XjdQKgLPTfi-73">
          <mxGeometry relative="1" as="geometry">
            <mxPoint x="1109" y="4739" as="targetPoint" />
          </mxGeometry>
        </mxCell>
        <mxCell id="X_BS0S3T8XjdQKgLPTfi-68" value="Sim" style="edgeLabel;html=1;align=center;verticalAlign=middle;resizable=0;points=[];fontSize=11;" connectable="0" vertex="1" parent="X_BS0S3T8XjdQKgLPTfi-67">
          <mxGeometry x="-0.3805" relative="1" as="geometry">
            <mxPoint as="offset" />
          </mxGeometry>
        </mxCell>
        <mxCell id="X_BS0S3T8XjdQKgLPTfi-69" style="edgeStyle=orthogonalEdgeStyle;rounded=0;orthogonalLoop=1;jettySize=auto;html=1;entryX=0;entryY=0.5;entryDx=0;entryDy=0;strokeColor=#171717;fontColor=#5AA9E6;fillColor=#FFE45E;strokeWidth=3;" edge="1" parent="1" source="X_BS0S3T8XjdQKgLPTfi-71" target="X_BS0S3T8XjdQKgLPTfi-77">
          <mxGeometry relative="1" as="geometry">
            <Array as="points">
              <mxPoint x="119" y="4794" />
              <mxPoint x="119" y="4639" />
            </Array>
          </mxGeometry>
        </mxCell>
        <mxCell id="X_BS0S3T8XjdQKgLPTfi-70" value="Não" style="edgeLabel;html=1;align=center;verticalAlign=middle;resizable=0;points=[];fontColor=#171717;" connectable="0" vertex="1" parent="X_BS0S3T8XjdQKgLPTfi-69">
          <mxGeometry x="-0.2179" y="-3" relative="1" as="geometry">
            <mxPoint as="offset" />
          </mxGeometry>
        </mxCell>
        <mxCell id="X_BS0S3T8XjdQKgLPTfi-71" value="Permissão para emitir relatórios?" style="rhombus;whiteSpace=wrap;html=1;shadow=0;fontFamily=Helvetica;fontSize=12;align=center;strokeWidth=1;spacing=6;spacingTop=-4;fillColor=#fff2cc;gradientColor=#ffd966;strokeColor=#d6b656;" vertex="1" parent="1">
          <mxGeometry x="139" y="4739" width="120" height="110" as="geometry" />
        </mxCell>
        <mxCell id="X_BS0S3T8XjdQKgLPTfi-72" value="" style="edgeStyle=orthogonalEdgeStyle;rounded=0;orthogonalLoop=1;jettySize=auto;html=1;strokeColor=#171717;fontColor=#5AA9E6;fillColor=#FFE45E;strokeWidth=3;" edge="1" parent="1" source="X_BS0S3T8XjdQKgLPTfi-73" target="X_BS0S3T8XjdQKgLPTfi-85">
          <mxGeometry relative="1" as="geometry" />
        </mxCell>
        <mxCell id="X_BS0S3T8XjdQKgLPTfi-73" value="Suprimentos" style="rounded=1;whiteSpace=wrap;html=1;fontSize=12;glass=0;strokeWidth=1;shadow=0;fillColor=#fff2cc;gradientColor=#ffd966;strokeColor=#d6b656;" vertex="1" parent="1">
          <mxGeometry x="399" y="4766.5" width="120" height="55" as="geometry" />
        </mxCell>
        <mxCell id="X_BS0S3T8XjdQKgLPTfi-74" value="" style="edgeStyle=orthogonalEdgeStyle;rounded=0;orthogonalLoop=1;jettySize=auto;html=1;strokeColor=#171717;fontColor=#5AA9E6;fillColor=#FFE45E;strokeWidth=3;" edge="1" parent="1" source="X_BS0S3T8XjdQKgLPTfi-75" target="X_BS0S3T8XjdQKgLPTfi-82">
          <mxGeometry relative="1" as="geometry" />
        </mxCell>
        <mxCell id="X_BS0S3T8XjdQKgLPTfi-75" value="Login" style="strokeWidth=2;html=1;shape=mxgraph.flowchart.start_1;whiteSpace=wrap;fillColor=#fff2cc;strokeColor=#d6b656;gradientColor=#ffd966;" vertex="1" parent="1">
          <mxGeometry x="149" y="4309" width="100" height="60" as="geometry" />
        </mxCell>
        <mxCell id="X_BS0S3T8XjdQKgLPTfi-76" style="edgeStyle=orthogonalEdgeStyle;rounded=0;orthogonalLoop=1;jettySize=auto;html=1;entryX=0.5;entryY=0;entryDx=0;entryDy=0;strokeWidth=3;fontSize=12;startSize=3;endSize=0;strokeColor=#171717;" edge="1" parent="1" source="X_BS0S3T8XjdQKgLPTfi-77" target="X_BS0S3T8XjdQKgLPTfi-71">
          <mxGeometry relative="1" as="geometry" />
        </mxCell>
        <mxCell id="X_BS0S3T8XjdQKgLPTfi-77" value="Dashboard" style="rounded=1;whiteSpace=wrap;html=1;fontSize=12;glass=0;strokeWidth=1;shadow=0;fillColor=#fff2cc;gradientColor=#ffd966;strokeColor=#d6b656;" vertex="1" parent="1">
          <mxGeometry x="139" y="4619" width="120" height="40" as="geometry" />
        </mxCell>
        <mxCell id="X_BS0S3T8XjdQKgLPTfi-78" style="edgeStyle=orthogonalEdgeStyle;rounded=0;orthogonalLoop=1;jettySize=auto;html=1;entryX=1;entryY=0.5;entryDx=0;entryDy=0;entryPerimeter=0;strokeColor=#171717;fontColor=#5AA9E6;fillColor=#FFE45E;strokeWidth=3;" edge="1" parent="1" source="X_BS0S3T8XjdQKgLPTfi-82" target="X_BS0S3T8XjdQKgLPTfi-75">
          <mxGeometry relative="1" as="geometry">
            <Array as="points">
              <mxPoint x="269" y="4479" />
              <mxPoint x="269" y="4339" />
            </Array>
          </mxGeometry>
        </mxCell>
        <mxCell id="X_BS0S3T8XjdQKgLPTfi-79" value="Não" style="edgeLabel;html=1;align=center;verticalAlign=middle;resizable=0;points=[];fontColor=#171717;" connectable="0" vertex="1" parent="X_BS0S3T8XjdQKgLPTfi-78">
          <mxGeometry x="-0.2105" relative="1" as="geometry">
            <mxPoint x="-1" as="offset" />
          </mxGeometry>
        </mxCell>
        <mxCell id="X_BS0S3T8XjdQKgLPTfi-80" style="edgeStyle=orthogonalEdgeStyle;rounded=0;orthogonalLoop=1;jettySize=auto;html=1;entryX=0.5;entryY=0;entryDx=0;entryDy=0;strokeColor=#171717;fontColor=#5AA9E6;fillColor=#FFE45E;strokeWidth=3;" edge="1" parent="1" source="X_BS0S3T8XjdQKgLPTfi-82" target="X_BS0S3T8XjdQKgLPTfi-77">
          <mxGeometry relative="1" as="geometry" />
        </mxCell>
        <mxCell id="X_BS0S3T8XjdQKgLPTfi-81" value="Sim" style="edgeLabel;html=1;align=center;verticalAlign=middle;resizable=0;points=[];fontColor=#171717;" connectable="0" vertex="1" parent="X_BS0S3T8XjdQKgLPTfi-80">
          <mxGeometry x="-0.2308" y="-3" relative="1" as="geometry">
            <mxPoint as="offset" />
          </mxGeometry>
        </mxCell>
        <mxCell id="X_BS0S3T8XjdQKgLPTfi-82" value="Tem acesso?" style="rhombus;whiteSpace=wrap;html=1;fillColor=#fff2cc;strokeColor=#d6b656;strokeWidth=2;gradientColor=#ffd966;" vertex="1" parent="1">
          <mxGeometry x="149" y="4439" width="100" height="100" as="geometry" />
        </mxCell>
        <mxCell id="X_BS0S3T8XjdQKgLPTfi-84" value="" style="edgeStyle=orthogonalEdgeStyle;rounded=0;orthogonalLoop=1;jettySize=auto;html=1;strokeWidth=3;" edge="1" parent="1" source="X_BS0S3T8XjdQKgLPTfi-85" target="X_BS0S3T8XjdQKgLPTfi-89">
          <mxGeometry relative="1" as="geometry" />
        </mxCell>
        <mxCell id="X_BS0S3T8XjdQKgLPTfi-85" value="Lista de Reagentes" style="whiteSpace=wrap;html=1;fillColor=#fff2cc;strokeColor=#d6b656;rounded=1;glass=0;strokeWidth=1;shadow=0;gradientColor=#ffd966;" vertex="1" parent="1">
          <mxGeometry x="609" y="4766.5" width="110" height="55" as="geometry" />
        </mxCell>
        <mxCell id="X_BS0S3T8XjdQKgLPTfi-86" value="Logout" style="ellipse;whiteSpace=wrap;html=1;fillColor=#fff2cc;strokeColor=#d6b656;rounded=1;glass=0;strokeWidth=1;shadow=0;gradientColor=#ffd966;" vertex="1" parent="1">
          <mxGeometry x="987" y="4603.5" width="104" height="71" as="geometry" />
        </mxCell>
        <mxCell id="X_BS0S3T8XjdQKgLPTfi-87" value="" style="endArrow=none;html=1;rounded=0;strokeColor=#171717;strokeWidth=3;fontColor=#171717;fillColor=#FFE45E;" edge="1" parent="1">
          <mxGeometry width="50" height="50" relative="1" as="geometry">
            <mxPoint x="44" y="4262.75" as="sourcePoint" />
            <mxPoint x="1124" y="4262.75" as="targetPoint" />
          </mxGeometry>
        </mxCell>
        <mxCell id="X_BS0S3T8XjdQKgLPTfi-88" value="&lt;div style=&quot;&quot;&gt;&lt;span style=&quot;font-size: 24px;&quot;&gt;&lt;b&gt;Flow Chart Diagram:&lt;/b&gt;&amp;nbsp;&lt;/span&gt;&lt;/div&gt;&lt;font style=&quot;&quot;&gt;&lt;div style=&quot;&quot;&gt;&lt;span style=&quot;font-size: 24px;&quot;&gt;Visualizar dados de Reagentes&lt;/span&gt;&lt;/div&gt;&lt;div style=&quot;&quot;&gt;&lt;span style=&quot;font-size: 24px;&quot;&gt;&lt;br&gt;&lt;/span&gt;&lt;/div&gt;&lt;div style=&quot;&quot;&gt;&lt;span style=&quot;background-color: initial;&quot;&gt;Projeto: HematologyApp&lt;/span&gt;&lt;/div&gt;&lt;/font&gt;" style="text;html=1;align=left;verticalAlign=middle;resizable=0;points=[];autosize=1;strokeColor=none;fillColor=none;fontColor=#171717;" vertex="1" parent="1">
          <mxGeometry x="44" y="4155" width="360" height="110" as="geometry" />
        </mxCell>
        <mxCell id="X_BS0S3T8XjdQKgLPTfi-99" style="edgeStyle=orthogonalEdgeStyle;rounded=0;orthogonalLoop=1;jettySize=auto;html=1;entryX=-0.015;entryY=0.462;entryDx=0;entryDy=0;entryPerimeter=0;strokeWidth=3;" edge="1" parent="1" source="X_BS0S3T8XjdQKgLPTfi-89" target="X_BS0S3T8XjdQKgLPTfi-96">
          <mxGeometry relative="1" as="geometry" />
        </mxCell>
        <mxCell id="X_BS0S3T8XjdQKgLPTfi-89" value="Selecionar Reagente" style="whiteSpace=wrap;html=1;fillColor=#fff2cc;strokeColor=#d6b656;rounded=1;glass=0;strokeWidth=1;shadow=0;gradientColor=#ffd966;" vertex="1" parent="1">
          <mxGeometry x="609" y="4609" width="110" height="55" as="geometry" />
        </mxCell>
        <mxCell id="X_BS0S3T8XjdQKgLPTfi-98" style="edgeStyle=orthogonalEdgeStyle;rounded=0;orthogonalLoop=1;jettySize=auto;html=1;strokeWidth=3;entryX=-0.019;entryY=0.514;entryDx=0;entryDy=0;entryPerimeter=0;" edge="1" parent="1" source="X_BS0S3T8XjdQKgLPTfi-96" target="X_BS0S3T8XjdQKgLPTfi-86">
          <mxGeometry relative="1" as="geometry">
            <mxPoint x="980" y="4640" as="targetPoint" />
            <Array as="points">
              <mxPoint x="930" y="4640" />
              <mxPoint x="930" y="4640" />
            </Array>
          </mxGeometry>
        </mxCell>
        <mxCell id="X_BS0S3T8XjdQKgLPTfi-96" value="Visualizar&lt;br&gt;Reagente" style="whiteSpace=wrap;html=1;fillColor=#fff2cc;strokeColor=#d6b656;rounded=1;glass=0;strokeWidth=1;shadow=0;gradientColor=#ffd966;" vertex="1" parent="1">
          <mxGeometry x="790" y="4611.5" width="110" height="55" as="geometry" />
        </mxCell>
        <mxCell id="co-05nlRd9qGghaAfIDu-1" style="edgeStyle=orthogonalEdgeStyle;rounded=0;orthogonalLoop=1;jettySize=auto;html=1;entryX=0;entryY=0.5;entryDx=0;entryDy=0;strokeWidth=3;strokeColor=#171717;" edge="1" parent="1" source="co-05nlRd9qGghaAfIDu-5" target="co-05nlRd9qGghaAfIDu-7">
          <mxGeometry relative="1" as="geometry">
            <mxPoint x="1104" y="5554" as="targetPoint" />
          </mxGeometry>
        </mxCell>
        <mxCell id="co-05nlRd9qGghaAfIDu-2" value="Sim" style="edgeLabel;html=1;align=center;verticalAlign=middle;resizable=0;points=[];fontSize=11;" connectable="0" vertex="1" parent="co-05nlRd9qGghaAfIDu-1">
          <mxGeometry x="-0.3805" relative="1" as="geometry">
            <mxPoint as="offset" />
          </mxGeometry>
        </mxCell>
        <mxCell id="co-05nlRd9qGghaAfIDu-3" style="edgeStyle=orthogonalEdgeStyle;rounded=0;orthogonalLoop=1;jettySize=auto;html=1;entryX=0;entryY=0.5;entryDx=0;entryDy=0;strokeColor=#171717;fontColor=#5AA9E6;fillColor=#FFE45E;strokeWidth=3;" edge="1" parent="1" source="co-05nlRd9qGghaAfIDu-5" target="co-05nlRd9qGghaAfIDu-11">
          <mxGeometry relative="1" as="geometry">
            <Array as="points">
              <mxPoint x="114" y="5609" />
              <mxPoint x="114" y="5454" />
            </Array>
          </mxGeometry>
        </mxCell>
        <mxCell id="co-05nlRd9qGghaAfIDu-4" value="Não" style="edgeLabel;html=1;align=center;verticalAlign=middle;resizable=0;points=[];fontColor=#171717;" connectable="0" vertex="1" parent="co-05nlRd9qGghaAfIDu-3">
          <mxGeometry x="-0.2179" y="-3" relative="1" as="geometry">
            <mxPoint as="offset" />
          </mxGeometry>
        </mxCell>
        <mxCell id="co-05nlRd9qGghaAfIDu-5" value="Permissão para emitir relatórios?" style="rhombus;whiteSpace=wrap;html=1;shadow=0;fontFamily=Helvetica;fontSize=12;align=center;strokeWidth=1;spacing=6;spacingTop=-4;fillColor=#fff2cc;gradientColor=#ffd966;strokeColor=#d6b656;" vertex="1" parent="1">
          <mxGeometry x="134" y="5554" width="120" height="110" as="geometry" />
        </mxCell>
        <mxCell id="co-05nlRd9qGghaAfIDu-6" value="" style="edgeStyle=orthogonalEdgeStyle;rounded=0;orthogonalLoop=1;jettySize=auto;html=1;strokeColor=#171717;fontColor=#5AA9E6;fillColor=#FFE45E;strokeWidth=3;" edge="1" parent="1" source="co-05nlRd9qGghaAfIDu-7" target="co-05nlRd9qGghaAfIDu-19">
          <mxGeometry relative="1" as="geometry" />
        </mxCell>
        <mxCell id="co-05nlRd9qGghaAfIDu-7" value="Suprimentos" style="rounded=1;whiteSpace=wrap;html=1;fontSize=12;glass=0;strokeWidth=1;shadow=0;fillColor=#fff2cc;gradientColor=#ffd966;strokeColor=#d6b656;" vertex="1" parent="1">
          <mxGeometry x="394" y="5581.5" width="120" height="55" as="geometry" />
        </mxCell>
        <mxCell id="co-05nlRd9qGghaAfIDu-8" value="" style="edgeStyle=orthogonalEdgeStyle;rounded=0;orthogonalLoop=1;jettySize=auto;html=1;strokeColor=#171717;fontColor=#5AA9E6;fillColor=#FFE45E;strokeWidth=3;" edge="1" parent="1" source="co-05nlRd9qGghaAfIDu-9" target="co-05nlRd9qGghaAfIDu-16">
          <mxGeometry relative="1" as="geometry" />
        </mxCell>
        <mxCell id="co-05nlRd9qGghaAfIDu-9" value="Login" style="strokeWidth=2;html=1;shape=mxgraph.flowchart.start_1;whiteSpace=wrap;fillColor=#fff2cc;strokeColor=#d6b656;gradientColor=#ffd966;" vertex="1" parent="1">
          <mxGeometry x="144" y="5124" width="100" height="60" as="geometry" />
        </mxCell>
        <mxCell id="co-05nlRd9qGghaAfIDu-10" style="edgeStyle=orthogonalEdgeStyle;rounded=0;orthogonalLoop=1;jettySize=auto;html=1;entryX=0.5;entryY=0;entryDx=0;entryDy=0;strokeWidth=3;fontSize=12;startSize=3;endSize=0;strokeColor=#171717;" edge="1" parent="1" source="co-05nlRd9qGghaAfIDu-11" target="co-05nlRd9qGghaAfIDu-5">
          <mxGeometry relative="1" as="geometry" />
        </mxCell>
        <mxCell id="co-05nlRd9qGghaAfIDu-11" value="Dashboard" style="rounded=1;whiteSpace=wrap;html=1;fontSize=12;glass=0;strokeWidth=1;shadow=0;fillColor=#fff2cc;gradientColor=#ffd966;strokeColor=#d6b656;" vertex="1" parent="1">
          <mxGeometry x="134" y="5434" width="120" height="40" as="geometry" />
        </mxCell>
        <mxCell id="co-05nlRd9qGghaAfIDu-12" style="edgeStyle=orthogonalEdgeStyle;rounded=0;orthogonalLoop=1;jettySize=auto;html=1;entryX=1;entryY=0.5;entryDx=0;entryDy=0;entryPerimeter=0;strokeColor=#171717;fontColor=#5AA9E6;fillColor=#FFE45E;strokeWidth=3;" edge="1" parent="1" source="co-05nlRd9qGghaAfIDu-16" target="co-05nlRd9qGghaAfIDu-9">
          <mxGeometry relative="1" as="geometry">
            <Array as="points">
              <mxPoint x="264" y="5294" />
              <mxPoint x="264" y="5154" />
            </Array>
          </mxGeometry>
        </mxCell>
        <mxCell id="co-05nlRd9qGghaAfIDu-13" value="Não" style="edgeLabel;html=1;align=center;verticalAlign=middle;resizable=0;points=[];fontColor=#171717;" connectable="0" vertex="1" parent="co-05nlRd9qGghaAfIDu-12">
          <mxGeometry x="-0.2105" relative="1" as="geometry">
            <mxPoint x="-1" as="offset" />
          </mxGeometry>
        </mxCell>
        <mxCell id="co-05nlRd9qGghaAfIDu-14" style="edgeStyle=orthogonalEdgeStyle;rounded=0;orthogonalLoop=1;jettySize=auto;html=1;entryX=0.5;entryY=0;entryDx=0;entryDy=0;strokeColor=#171717;fontColor=#5AA9E6;fillColor=#FFE45E;strokeWidth=3;" edge="1" parent="1" source="co-05nlRd9qGghaAfIDu-16" target="co-05nlRd9qGghaAfIDu-11">
          <mxGeometry relative="1" as="geometry" />
        </mxCell>
        <mxCell id="co-05nlRd9qGghaAfIDu-15" value="Sim" style="edgeLabel;html=1;align=center;verticalAlign=middle;resizable=0;points=[];fontColor=#171717;" connectable="0" vertex="1" parent="co-05nlRd9qGghaAfIDu-14">
          <mxGeometry x="-0.2308" y="-3" relative="1" as="geometry">
            <mxPoint as="offset" />
          </mxGeometry>
        </mxCell>
        <mxCell id="co-05nlRd9qGghaAfIDu-16" value="Tem acesso?" style="rhombus;whiteSpace=wrap;html=1;fillColor=#fff2cc;strokeColor=#d6b656;strokeWidth=2;gradientColor=#ffd966;" vertex="1" parent="1">
          <mxGeometry x="144" y="5254" width="100" height="100" as="geometry" />
        </mxCell>
        <mxCell id="co-05nlRd9qGghaAfIDu-18" value="" style="edgeStyle=orthogonalEdgeStyle;rounded=0;orthogonalLoop=1;jettySize=auto;html=1;strokeWidth=3;" edge="1" parent="1" source="co-05nlRd9qGghaAfIDu-19" target="co-05nlRd9qGghaAfIDu-24">
          <mxGeometry relative="1" as="geometry" />
        </mxCell>
        <mxCell id="co-05nlRd9qGghaAfIDu-19" value="Lista de Reagentes" style="whiteSpace=wrap;html=1;fillColor=#fff2cc;strokeColor=#d6b656;rounded=1;glass=0;strokeWidth=1;shadow=0;gradientColor=#ffd966;" vertex="1" parent="1">
          <mxGeometry x="604" y="5581.5" width="110" height="55" as="geometry" />
        </mxCell>
        <mxCell id="co-05nlRd9qGghaAfIDu-20" value="Logout" style="ellipse;whiteSpace=wrap;html=1;fillColor=#fff2cc;strokeColor=#d6b656;rounded=1;glass=0;strokeWidth=1;shadow=0;gradientColor=#ffd966;" vertex="1" parent="1">
          <mxGeometry x="982" y="5418.5" width="104" height="71" as="geometry" />
        </mxCell>
        <mxCell id="co-05nlRd9qGghaAfIDu-21" value="" style="endArrow=none;html=1;rounded=0;strokeColor=#171717;strokeWidth=3;fontColor=#171717;fillColor=#FFE45E;" edge="1" parent="1">
          <mxGeometry width="50" height="50" relative="1" as="geometry">
            <mxPoint x="39" y="5077.75" as="sourcePoint" />
            <mxPoint x="1119" y="5077.75" as="targetPoint" />
          </mxGeometry>
        </mxCell>
        <mxCell id="co-05nlRd9qGghaAfIDu-22" value="&lt;div style=&quot;&quot;&gt;&lt;span style=&quot;font-size: 24px;&quot;&gt;&lt;b&gt;Flow Chart Diagram:&lt;/b&gt;&amp;nbsp;&lt;/span&gt;&lt;/div&gt;&lt;font style=&quot;&quot;&gt;&lt;div style=&quot;&quot;&gt;&lt;span style=&quot;background-color: initial;&quot;&gt;&lt;span style=&quot;font-size: 24px;&quot;&gt;Baixar Reagente Utilizado&lt;/span&gt;&lt;/span&gt;&lt;/div&gt;&lt;div style=&quot;&quot;&gt;&lt;span style=&quot;background-color: initial;&quot;&gt;&lt;span style=&quot;font-size: 24px;&quot;&gt;&lt;br&gt;&lt;/span&gt;&lt;/span&gt;&lt;/div&gt;&lt;div style=&quot;&quot;&gt;&lt;span style=&quot;background-color: initial;&quot;&gt;Projeto: HematologyApp&lt;/span&gt;&lt;br&gt;&lt;/div&gt;&lt;/font&gt;" style="text;html=1;align=left;verticalAlign=middle;resizable=0;points=[];autosize=1;strokeColor=none;fillColor=none;fontColor=#171717;" vertex="1" parent="1">
          <mxGeometry x="39" y="4970" width="300" height="110" as="geometry" />
        </mxCell>
        <mxCell id="co-05nlRd9qGghaAfIDu-33" style="edgeStyle=orthogonalEdgeStyle;rounded=0;orthogonalLoop=1;jettySize=auto;html=1;entryX=0;entryY=0.5;entryDx=0;entryDy=0;strokeWidth=3;" edge="1" parent="1" source="co-05nlRd9qGghaAfIDu-24" target="co-05nlRd9qGghaAfIDu-31">
          <mxGeometry relative="1" as="geometry">
            <Array as="points">
              <mxPoint x="659" y="5188" />
              <mxPoint x="744" y="5188" />
            </Array>
          </mxGeometry>
        </mxCell>
        <mxCell id="co-05nlRd9qGghaAfIDu-24" value="Selecionar Reagente" style="whiteSpace=wrap;html=1;fillColor=#fff2cc;strokeColor=#d6b656;rounded=1;glass=0;strokeWidth=1;shadow=0;gradientColor=#ffd966;" vertex="1" parent="1">
          <mxGeometry x="604" y="5424" width="110" height="55" as="geometry" />
        </mxCell>
        <mxCell id="co-05nlRd9qGghaAfIDu-34" style="edgeStyle=orthogonalEdgeStyle;rounded=0;orthogonalLoop=1;jettySize=auto;html=1;entryX=0.5;entryY=0;entryDx=0;entryDy=0;strokeWidth=3;" edge="1" parent="1" source="co-05nlRd9qGghaAfIDu-31" target="co-05nlRd9qGghaAfIDu-20">
          <mxGeometry relative="1" as="geometry" />
        </mxCell>
        <mxCell id="co-05nlRd9qGghaAfIDu-31" value="Utilizar Reagente" style="whiteSpace=wrap;html=1;fillColor=#fff2cc;strokeColor=#d6b656;rounded=1;glass=0;strokeWidth=1;shadow=0;gradientColor=#ffd966;" vertex="1" parent="1">
          <mxGeometry x="773.25" y="5160" width="110" height="55" as="geometry" />
        </mxCell>
      </root>
    </mxGraphModel>
  </diagram>
  <diagram name="Flowchart Diagram - Gerenciamentos de Usuários" id="yEGT32-igGGcLsnjLhHq">
    <mxGraphModel grid="1" page="1" gridSize="10" guides="1" tooltips="1" connect="1" arrows="1" fold="1" pageScale="1" pageWidth="1169" pageHeight="827" math="0" shadow="0">
      <root>
        <mxCell id="35KLVuq-ZRe5jciEuNwH-0" />
        <mxCell id="35KLVuq-ZRe5jciEuNwH-1" parent="35KLVuq-ZRe5jciEuNwH-0" />
        <mxCell id="zSkRJHGt5gZSODRYn_vm-1" style="edgeStyle=orthogonalEdgeStyle;rounded=0;orthogonalLoop=1;jettySize=auto;html=1;entryX=0;entryY=0.5;entryDx=0;entryDy=0;strokeWidth=3;" edge="1" parent="35KLVuq-ZRe5jciEuNwH-1" source="35KLVuq-ZRe5jciEuNwH-8" target="zSkRJHGt5gZSODRYn_vm-0">
          <mxGeometry relative="1" as="geometry" />
        </mxCell>
        <mxCell id="35KLVuq-ZRe5jciEuNwH-8" value="Usuários" style="rounded=1;whiteSpace=wrap;html=1;fontSize=12;glass=0;strokeWidth=1;shadow=0;fillColor=#fff2cc;gradientColor=#ffd966;strokeColor=#d6b656;" vertex="1" parent="35KLVuq-ZRe5jciEuNwH-1">
          <mxGeometry x="399" y="637.5" width="120" height="55" as="geometry" />
        </mxCell>
        <mxCell id="35KLVuq-ZRe5jciEuNwH-9" value="" style="edgeStyle=orthogonalEdgeStyle;rounded=0;orthogonalLoop=1;jettySize=auto;html=1;strokeColor=#171717;fontColor=#5AA9E6;fillColor=#FFE45E;strokeWidth=3;" edge="1" parent="35KLVuq-ZRe5jciEuNwH-1" source="35KLVuq-ZRe5jciEuNwH-10" target="35KLVuq-ZRe5jciEuNwH-41">
          <mxGeometry relative="1" as="geometry" />
        </mxCell>
        <mxCell id="35KLVuq-ZRe5jciEuNwH-10" value="Login" style="strokeWidth=2;html=1;shape=mxgraph.flowchart.start_1;whiteSpace=wrap;fillColor=#fff2cc;strokeColor=#d6b656;gradientColor=#ffd966;" vertex="1" parent="35KLVuq-ZRe5jciEuNwH-1">
          <mxGeometry x="229" y="180" width="100" height="60" as="geometry" />
        </mxCell>
        <mxCell id="35KLVuq-ZRe5jciEuNwH-11" style="edgeStyle=orthogonalEdgeStyle;rounded=0;orthogonalLoop=1;jettySize=auto;html=1;entryX=0;entryY=0.5;entryDx=0;entryDy=0;strokeWidth=3;fontSize=12;startSize=3;endSize=0;strokeColor=#171717;" edge="1" parent="35KLVuq-ZRe5jciEuNwH-1" source="35KLVuq-ZRe5jciEuNwH-12" target="35KLVuq-ZRe5jciEuNwH-8">
          <mxGeometry relative="1" as="geometry">
            <mxPoint x="279" y="610" as="targetPoint" />
            <Array as="points">
              <mxPoint x="279" y="665" />
            </Array>
          </mxGeometry>
        </mxCell>
        <mxCell id="35KLVuq-ZRe5jciEuNwH-12" value="Dashboard" style="rounded=1;whiteSpace=wrap;html=1;fontSize=12;glass=0;strokeWidth=1;shadow=0;fillColor=#fff2cc;gradientColor=#ffd966;strokeColor=#d6b656;" vertex="1" parent="35KLVuq-ZRe5jciEuNwH-1">
          <mxGeometry x="219" y="490" width="120" height="40" as="geometry" />
        </mxCell>
        <mxCell id="35KLVuq-ZRe5jciEuNwH-13" value="" style="edgeStyle=orthogonalEdgeStyle;rounded=0;orthogonalLoop=1;jettySize=auto;html=1;strokeWidth=3;" edge="1" parent="35KLVuq-ZRe5jciEuNwH-1" source="35KLVuq-ZRe5jciEuNwH-14" target="35KLVuq-ZRe5jciEuNwH-19">
          <mxGeometry relative="1" as="geometry" />
        </mxCell>
        <mxCell id="35KLVuq-ZRe5jciEuNwH-14" value="Tela de Login" style="ellipse;whiteSpace=wrap;html=1;fillColor=#fff2cc;strokeColor=#d6b656;gradientColor=#ffd966;" vertex="1" parent="35KLVuq-ZRe5jciEuNwH-1">
          <mxGeometry x="189" y="2649" width="120" height="80" as="geometry" />
        </mxCell>
        <mxCell id="35KLVuq-ZRe5jciEuNwH-15" style="edgeStyle=orthogonalEdgeStyle;rounded=0;orthogonalLoop=1;jettySize=auto;html=1;entryX=1;entryY=0.5;entryDx=0;entryDy=0;strokeWidth=3;" edge="1" parent="35KLVuq-ZRe5jciEuNwH-1" source="35KLVuq-ZRe5jciEuNwH-19" target="35KLVuq-ZRe5jciEuNwH-14">
          <mxGeometry relative="1" as="geometry">
            <Array as="points">
              <mxPoint x="329" y="2859" />
              <mxPoint x="329" y="2689" />
            </Array>
          </mxGeometry>
        </mxCell>
        <mxCell id="35KLVuq-ZRe5jciEuNwH-16" value="Não" style="edgeLabel;html=1;align=center;verticalAlign=middle;resizable=0;points=[];" connectable="0" vertex="1" parent="35KLVuq-ZRe5jciEuNwH-15">
          <mxGeometry x="-0.0823" y="-1" relative="1" as="geometry">
            <mxPoint as="offset" />
          </mxGeometry>
        </mxCell>
        <mxCell id="35KLVuq-ZRe5jciEuNwH-17" value="" style="edgeStyle=orthogonalEdgeStyle;rounded=0;orthogonalLoop=1;jettySize=auto;html=1;strokeWidth=3;fontSize=12;entryX=0.5;entryY=0;entryDx=0;entryDy=0;" edge="1" parent="35KLVuq-ZRe5jciEuNwH-1" source="35KLVuq-ZRe5jciEuNwH-19" target="35KLVuq-ZRe5jciEuNwH-25">
          <mxGeometry relative="1" as="geometry">
            <mxPoint x="249" y="2969" as="targetPoint" />
            <Array as="points" />
          </mxGeometry>
        </mxCell>
        <mxCell id="35KLVuq-ZRe5jciEuNwH-18" value="Sim" style="edgeLabel;html=1;align=center;verticalAlign=middle;resizable=0;points=[];fontSize=12;" connectable="0" vertex="1" parent="35KLVuq-ZRe5jciEuNwH-17">
          <mxGeometry x="-0.2593" relative="1" as="geometry">
            <mxPoint as="offset" />
          </mxGeometry>
        </mxCell>
        <mxCell id="35KLVuq-ZRe5jciEuNwH-19" value="Usuário tem acesso ao sistema?" style="rhombus;whiteSpace=wrap;html=1;fillColor=#fff2cc;strokeColor=#d6b656;gradientColor=#ffd966;" vertex="1" parent="35KLVuq-ZRe5jciEuNwH-1">
          <mxGeometry x="199" y="2809" width="100" height="100" as="geometry" />
        </mxCell>
        <mxCell id="35KLVuq-ZRe5jciEuNwH-20" value="" style="edgeStyle=orthogonalEdgeStyle;rounded=0;orthogonalLoop=1;jettySize=auto;html=1;strokeWidth=3;fontSize=12;" edge="1" parent="35KLVuq-ZRe5jciEuNwH-1">
          <mxGeometry relative="1" as="geometry">
            <mxPoint x="299" y="3239" as="sourcePoint" />
            <mxPoint x="399" y="3239" as="targetPoint" />
          </mxGeometry>
        </mxCell>
        <mxCell id="35KLVuq-ZRe5jciEuNwH-21" style="edgeStyle=orthogonalEdgeStyle;rounded=0;orthogonalLoop=1;jettySize=auto;html=1;entryX=0;entryY=0.5;entryDx=0;entryDy=0;strokeWidth=3;fontSize=12;" edge="1" parent="35KLVuq-ZRe5jciEuNwH-1" target="35KLVuq-ZRe5jciEuNwH-25">
          <mxGeometry relative="1" as="geometry">
            <mxPoint x="199" y="3239" as="sourcePoint" />
            <Array as="points">
              <mxPoint x="169" y="3239" />
              <mxPoint x="169" y="3059" />
            </Array>
          </mxGeometry>
        </mxCell>
        <mxCell id="35KLVuq-ZRe5jciEuNwH-22" value="Não" style="edgeLabel;html=1;align=center;verticalAlign=middle;resizable=0;points=[];fontSize=12;" connectable="0" vertex="1" parent="35KLVuq-ZRe5jciEuNwH-21">
          <mxGeometry x="-0.03" relative="1" as="geometry">
            <mxPoint as="offset" />
          </mxGeometry>
        </mxCell>
        <mxCell id="35KLVuq-ZRe5jciEuNwH-23" value="Permissão?" style="rhombus;whiteSpace=wrap;html=1;fillColor=#fff2cc;strokeColor=#d6b656;gradientColor=#ffd966;" vertex="1" parent="35KLVuq-ZRe5jciEuNwH-1">
          <mxGeometry x="199" y="3189" width="100" height="100" as="geometry" />
        </mxCell>
        <mxCell id="35KLVuq-ZRe5jciEuNwH-24" style="edgeStyle=orthogonalEdgeStyle;rounded=0;orthogonalLoop=1;jettySize=auto;html=1;entryX=0.5;entryY=0;entryDx=0;entryDy=0;strokeWidth=3;fontSize=12;" edge="1" parent="35KLVuq-ZRe5jciEuNwH-1" source="35KLVuq-ZRe5jciEuNwH-25">
          <mxGeometry relative="1" as="geometry">
            <mxPoint x="249" y="3189" as="targetPoint" />
          </mxGeometry>
        </mxCell>
        <mxCell id="35KLVuq-ZRe5jciEuNwH-25" value="Dashboard" style="whiteSpace=wrap;html=1;fillColor=#fff2cc;strokeColor=#d6b656;gradientColor=#ffd966;" vertex="1" parent="35KLVuq-ZRe5jciEuNwH-1">
          <mxGeometry x="189" y="3029" width="120" height="60" as="geometry" />
        </mxCell>
        <mxCell id="35KLVuq-ZRe5jciEuNwH-26" value="" style="edgeStyle=orthogonalEdgeStyle;rounded=0;orthogonalLoop=1;jettySize=auto;html=1;strokeWidth=3;fontSize=12;" edge="1" parent="35KLVuq-ZRe5jciEuNwH-1" source="35KLVuq-ZRe5jciEuNwH-27" target="35KLVuq-ZRe5jciEuNwH-31">
          <mxGeometry relative="1" as="geometry" />
        </mxCell>
        <mxCell id="zSkRJHGt5gZSODRYn_vm-80" style="edgeStyle=orthogonalEdgeStyle;rounded=0;orthogonalLoop=1;jettySize=auto;html=1;entryX=0.5;entryY=1;entryDx=0;entryDy=0;strokeWidth=3;" edge="1" parent="35KLVuq-ZRe5jciEuNwH-1" source="35KLVuq-ZRe5jciEuNwH-27" target="zSkRJHGt5gZSODRYn_vm-78">
          <mxGeometry relative="1" as="geometry" />
        </mxCell>
        <mxCell id="35KLVuq-ZRe5jciEuNwH-27" value="Permissões" style="whiteSpace=wrap;html=1;fillColor=#fff2cc;strokeColor=#d6b656;gradientColor=#ffd966;" vertex="1" parent="35KLVuq-ZRe5jciEuNwH-1">
          <mxGeometry x="399" y="3029" width="120" height="60" as="geometry" />
        </mxCell>
        <mxCell id="35KLVuq-ZRe5jciEuNwH-28" style="edgeStyle=orthogonalEdgeStyle;rounded=0;orthogonalLoop=1;jettySize=auto;html=1;entryX=0.5;entryY=1;entryDx=0;entryDy=0;strokeWidth=3;fontSize=12;" edge="1" parent="35KLVuq-ZRe5jciEuNwH-1" source="35KLVuq-ZRe5jciEuNwH-29" target="35KLVuq-ZRe5jciEuNwH-27">
          <mxGeometry relative="1" as="geometry" />
        </mxCell>
        <mxCell id="35KLVuq-ZRe5jciEuNwH-29" value="Usuários" style="whiteSpace=wrap;html=1;fillColor=#fff2cc;strokeColor=#d6b656;gradientColor=#ffd966;" vertex="1" parent="35KLVuq-ZRe5jciEuNwH-1">
          <mxGeometry x="399" y="3209" width="120" height="60" as="geometry" />
        </mxCell>
        <mxCell id="35KLVuq-ZRe5jciEuNwH-30" value="" style="edgeStyle=orthogonalEdgeStyle;rounded=0;orthogonalLoop=1;jettySize=auto;html=1;strokeWidth=3;fontSize=12;" edge="1" parent="35KLVuq-ZRe5jciEuNwH-1" source="35KLVuq-ZRe5jciEuNwH-31" target="35KLVuq-ZRe5jciEuNwH-33">
          <mxGeometry relative="1" as="geometry" />
        </mxCell>
        <mxCell id="35KLVuq-ZRe5jciEuNwH-31" value="Consultar Grupos de Usuários" style="whiteSpace=wrap;html=1;fillColor=#fff2cc;strokeColor=#d6b656;gradientColor=#ffd966;" vertex="1" parent="35KLVuq-ZRe5jciEuNwH-1">
          <mxGeometry x="680" y="3029" width="120" height="60" as="geometry" />
        </mxCell>
        <mxCell id="35KLVuq-ZRe5jciEuNwH-32" value="" style="edgeStyle=orthogonalEdgeStyle;rounded=0;orthogonalLoop=1;jettySize=auto;html=1;strokeWidth=3;fontSize=12;" edge="1" parent="35KLVuq-ZRe5jciEuNwH-1" source="35KLVuq-ZRe5jciEuNwH-33" target="35KLVuq-ZRe5jciEuNwH-35">
          <mxGeometry relative="1" as="geometry" />
        </mxCell>
        <mxCell id="35KLVuq-ZRe5jciEuNwH-33" value="Alterar Dados" style="whiteSpace=wrap;html=1;fillColor=#fff2cc;strokeColor=#d6b656;gradientColor=#ffd966;" vertex="1" parent="35KLVuq-ZRe5jciEuNwH-1">
          <mxGeometry x="680" y="2889" width="120" height="60" as="geometry" />
        </mxCell>
        <mxCell id="35KLVuq-ZRe5jciEuNwH-34" value="" style="edgeStyle=orthogonalEdgeStyle;rounded=0;orthogonalLoop=1;jettySize=auto;html=1;strokeWidth=3;fontSize=12;" edge="1" parent="35KLVuq-ZRe5jciEuNwH-1" source="35KLVuq-ZRe5jciEuNwH-35" target="35KLVuq-ZRe5jciEuNwH-36">
          <mxGeometry relative="1" as="geometry" />
        </mxCell>
        <mxCell id="35KLVuq-ZRe5jciEuNwH-35" value="Salvar Grupo" style="whiteSpace=wrap;html=1;fillColor=#fff2cc;strokeColor=#d6b656;gradientColor=#ffd966;" vertex="1" parent="35KLVuq-ZRe5jciEuNwH-1">
          <mxGeometry x="880" y="2889" width="120" height="60" as="geometry" />
        </mxCell>
        <mxCell id="35KLVuq-ZRe5jciEuNwH-36" value="Logout" style="ellipse;whiteSpace=wrap;html=1;fillColor=#fff2cc;strokeColor=#d6b656;gradientColor=#ffd966;" vertex="1" parent="35KLVuq-ZRe5jciEuNwH-1">
          <mxGeometry x="883.25" y="3049" width="113.5" height="70" as="geometry" />
        </mxCell>
        <mxCell id="35KLVuq-ZRe5jciEuNwH-37" style="edgeStyle=orthogonalEdgeStyle;rounded=0;orthogonalLoop=1;jettySize=auto;html=1;entryX=1;entryY=0.5;entryDx=0;entryDy=0;entryPerimeter=0;strokeColor=#171717;fontColor=#5AA9E6;fillColor=#FFE45E;strokeWidth=3;" edge="1" parent="35KLVuq-ZRe5jciEuNwH-1" source="35KLVuq-ZRe5jciEuNwH-41" target="35KLVuq-ZRe5jciEuNwH-10">
          <mxGeometry relative="1" as="geometry">
            <Array as="points">
              <mxPoint x="349" y="350" />
              <mxPoint x="349" y="210" />
            </Array>
          </mxGeometry>
        </mxCell>
        <mxCell id="35KLVuq-ZRe5jciEuNwH-38" value="Não" style="edgeLabel;html=1;align=center;verticalAlign=middle;resizable=0;points=[];fontColor=#171717;" connectable="0" vertex="1" parent="35KLVuq-ZRe5jciEuNwH-37">
          <mxGeometry x="-0.2105" relative="1" as="geometry">
            <mxPoint x="-1" as="offset" />
          </mxGeometry>
        </mxCell>
        <mxCell id="35KLVuq-ZRe5jciEuNwH-39" style="edgeStyle=orthogonalEdgeStyle;rounded=0;orthogonalLoop=1;jettySize=auto;html=1;entryX=0.5;entryY=0;entryDx=0;entryDy=0;strokeColor=#171717;fontColor=#5AA9E6;fillColor=#FFE45E;strokeWidth=3;" edge="1" parent="35KLVuq-ZRe5jciEuNwH-1" source="35KLVuq-ZRe5jciEuNwH-41" target="35KLVuq-ZRe5jciEuNwH-12">
          <mxGeometry relative="1" as="geometry" />
        </mxCell>
        <mxCell id="35KLVuq-ZRe5jciEuNwH-40" value="Sim" style="edgeLabel;html=1;align=center;verticalAlign=middle;resizable=0;points=[];fontColor=#171717;" connectable="0" vertex="1" parent="35KLVuq-ZRe5jciEuNwH-39">
          <mxGeometry x="-0.2308" y="-3" relative="1" as="geometry">
            <mxPoint as="offset" />
          </mxGeometry>
        </mxCell>
        <mxCell id="35KLVuq-ZRe5jciEuNwH-41" value="Tem acesso?" style="rhombus;whiteSpace=wrap;html=1;fillColor=#fff2cc;strokeColor=#d6b656;strokeWidth=2;gradientColor=#ffd966;" vertex="1" parent="35KLVuq-ZRe5jciEuNwH-1">
          <mxGeometry x="229" y="310" width="100" height="100" as="geometry" />
        </mxCell>
        <mxCell id="35KLVuq-ZRe5jciEuNwH-42" value="" style="edgeStyle=orthogonalEdgeStyle;rounded=0;orthogonalLoop=1;jettySize=auto;html=1;strokeColor=#171717;fontColor=#5AA9E6;fillColor=#FFE45E;strokeWidth=3;" edge="1" parent="35KLVuq-ZRe5jciEuNwH-1" source="35KLVuq-ZRe5jciEuNwH-43" target="35KLVuq-ZRe5jciEuNwH-46">
          <mxGeometry relative="1" as="geometry">
            <mxPoint x="744" y="503" as="targetPoint" />
          </mxGeometry>
        </mxCell>
        <mxCell id="35KLVuq-ZRe5jciEuNwH-43" value="Consultar Usuário" style="whiteSpace=wrap;html=1;fillColor=#fff2cc;strokeColor=#d6b656;rounded=1;glass=0;strokeWidth=1;shadow=0;gradientColor=#ffd966;" vertex="1" parent="35KLVuq-ZRe5jciEuNwH-1">
          <mxGeometry x="790" y="637.5" width="110" height="55" as="geometry" />
        </mxCell>
        <mxCell id="35KLVuq-ZRe5jciEuNwH-46" value="Logout" style="ellipse;whiteSpace=wrap;html=1;fillColor=#fff2cc;strokeColor=#d6b656;rounded=1;glass=0;strokeWidth=1;shadow=0;gradientColor=#ffd966;" vertex="1" parent="35KLVuq-ZRe5jciEuNwH-1">
          <mxGeometry x="923" y="435" width="105" height="76" as="geometry" />
        </mxCell>
        <mxCell id="35KLVuq-ZRe5jciEuNwH-47" style="edgeStyle=orthogonalEdgeStyle;rounded=0;orthogonalLoop=1;jettySize=auto;html=1;entryX=0;entryY=0.5;entryDx=0;entryDy=0;strokeWidth=3;strokeColor=#171717;" edge="1" parent="35KLVuq-ZRe5jciEuNwH-1" source="35KLVuq-ZRe5jciEuNwH-51" target="35KLVuq-ZRe5jciEuNwH-53">
          <mxGeometry relative="1" as="geometry">
            <mxPoint x="1109" y="1430" as="targetPoint" />
          </mxGeometry>
        </mxCell>
        <mxCell id="35KLVuq-ZRe5jciEuNwH-48" value="Sim" style="edgeLabel;html=1;align=center;verticalAlign=middle;resizable=0;points=[];fontSize=11;" connectable="0" vertex="1" parent="35KLVuq-ZRe5jciEuNwH-47">
          <mxGeometry x="-0.3805" relative="1" as="geometry">
            <mxPoint as="offset" />
          </mxGeometry>
        </mxCell>
        <mxCell id="35KLVuq-ZRe5jciEuNwH-49" style="edgeStyle=orthogonalEdgeStyle;rounded=0;orthogonalLoop=1;jettySize=auto;html=1;entryX=0;entryY=0.5;entryDx=0;entryDy=0;strokeColor=#171717;fontColor=#5AA9E6;fillColor=#FFE45E;strokeWidth=3;" edge="1" parent="35KLVuq-ZRe5jciEuNwH-1" source="35KLVuq-ZRe5jciEuNwH-51" target="35KLVuq-ZRe5jciEuNwH-57">
          <mxGeometry relative="1" as="geometry">
            <Array as="points">
              <mxPoint x="119" y="1485" />
              <mxPoint x="119" y="1330" />
            </Array>
          </mxGeometry>
        </mxCell>
        <mxCell id="35KLVuq-ZRe5jciEuNwH-50" value="Não" style="edgeLabel;html=1;align=center;verticalAlign=middle;resizable=0;points=[];fontColor=#171717;" connectable="0" vertex="1" parent="35KLVuq-ZRe5jciEuNwH-49">
          <mxGeometry x="-0.2179" y="-3" relative="1" as="geometry">
            <mxPoint as="offset" />
          </mxGeometry>
        </mxCell>
        <mxCell id="35KLVuq-ZRe5jciEuNwH-51" value="Admin" style="rhombus;whiteSpace=wrap;html=1;shadow=0;fontFamily=Helvetica;fontSize=12;align=center;strokeWidth=1;spacing=6;spacingTop=-4;fillColor=#fff2cc;gradientColor=#ffd966;strokeColor=#d6b656;" vertex="1" parent="35KLVuq-ZRe5jciEuNwH-1">
          <mxGeometry x="139" y="1430" width="120" height="110" as="geometry" />
        </mxCell>
        <mxCell id="35KLVuq-ZRe5jciEuNwH-52" value="" style="edgeStyle=orthogonalEdgeStyle;rounded=0;orthogonalLoop=1;jettySize=auto;html=1;strokeColor=#171717;fontColor=#5AA9E6;fillColor=#FFE45E;strokeWidth=3;" edge="1" parent="35KLVuq-ZRe5jciEuNwH-1" source="35KLVuq-ZRe5jciEuNwH-53" target="35KLVuq-ZRe5jciEuNwH-64">
          <mxGeometry relative="1" as="geometry" />
        </mxCell>
        <mxCell id="35KLVuq-ZRe5jciEuNwH-53" value="Usuários" style="rounded=1;whiteSpace=wrap;html=1;fontSize=12;glass=0;strokeWidth=1;shadow=0;fillColor=#fff2cc;gradientColor=#ffd966;strokeColor=#d6b656;" vertex="1" parent="35KLVuq-ZRe5jciEuNwH-1">
          <mxGeometry x="399" y="1457.5" width="120" height="55" as="geometry" />
        </mxCell>
        <mxCell id="35KLVuq-ZRe5jciEuNwH-54" value="" style="edgeStyle=orthogonalEdgeStyle;rounded=0;orthogonalLoop=1;jettySize=auto;html=1;strokeColor=#171717;fontColor=#5AA9E6;fillColor=#FFE45E;strokeWidth=3;" edge="1" parent="35KLVuq-ZRe5jciEuNwH-1" source="35KLVuq-ZRe5jciEuNwH-55" target="35KLVuq-ZRe5jciEuNwH-62">
          <mxGeometry relative="1" as="geometry" />
        </mxCell>
        <mxCell id="35KLVuq-ZRe5jciEuNwH-55" value="Login" style="strokeWidth=2;html=1;shape=mxgraph.flowchart.start_1;whiteSpace=wrap;fillColor=#fff2cc;strokeColor=#d6b656;gradientColor=#ffd966;" vertex="1" parent="35KLVuq-ZRe5jciEuNwH-1">
          <mxGeometry x="149" y="1000" width="100" height="60" as="geometry" />
        </mxCell>
        <mxCell id="35KLVuq-ZRe5jciEuNwH-56" style="edgeStyle=orthogonalEdgeStyle;rounded=0;orthogonalLoop=1;jettySize=auto;html=1;entryX=0.5;entryY=0;entryDx=0;entryDy=0;strokeWidth=3;fontSize=12;startSize=3;endSize=0;strokeColor=#171717;" edge="1" parent="35KLVuq-ZRe5jciEuNwH-1" source="35KLVuq-ZRe5jciEuNwH-57" target="35KLVuq-ZRe5jciEuNwH-51">
          <mxGeometry relative="1" as="geometry" />
        </mxCell>
        <mxCell id="35KLVuq-ZRe5jciEuNwH-57" value="Dashboard" style="rounded=1;whiteSpace=wrap;html=1;fontSize=12;glass=0;strokeWidth=1;shadow=0;fillColor=#fff2cc;gradientColor=#ffd966;strokeColor=#d6b656;" vertex="1" parent="35KLVuq-ZRe5jciEuNwH-1">
          <mxGeometry x="139" y="1310" width="120" height="40" as="geometry" />
        </mxCell>
        <mxCell id="35KLVuq-ZRe5jciEuNwH-58" style="edgeStyle=orthogonalEdgeStyle;rounded=0;orthogonalLoop=1;jettySize=auto;html=1;entryX=1;entryY=0.5;entryDx=0;entryDy=0;entryPerimeter=0;strokeColor=#171717;fontColor=#5AA9E6;fillColor=#FFE45E;strokeWidth=3;" edge="1" parent="35KLVuq-ZRe5jciEuNwH-1" source="35KLVuq-ZRe5jciEuNwH-62" target="35KLVuq-ZRe5jciEuNwH-55">
          <mxGeometry relative="1" as="geometry">
            <Array as="points">
              <mxPoint x="269" y="1170" />
              <mxPoint x="269" y="1030" />
            </Array>
          </mxGeometry>
        </mxCell>
        <mxCell id="35KLVuq-ZRe5jciEuNwH-59" value="Não" style="edgeLabel;html=1;align=center;verticalAlign=middle;resizable=0;points=[];fontColor=#171717;" connectable="0" vertex="1" parent="35KLVuq-ZRe5jciEuNwH-58">
          <mxGeometry x="-0.2105" relative="1" as="geometry">
            <mxPoint x="-1" as="offset" />
          </mxGeometry>
        </mxCell>
        <mxCell id="35KLVuq-ZRe5jciEuNwH-60" style="edgeStyle=orthogonalEdgeStyle;rounded=0;orthogonalLoop=1;jettySize=auto;html=1;entryX=0.5;entryY=0;entryDx=0;entryDy=0;strokeColor=#171717;fontColor=#5AA9E6;fillColor=#FFE45E;strokeWidth=3;" edge="1" parent="35KLVuq-ZRe5jciEuNwH-1" source="35KLVuq-ZRe5jciEuNwH-62" target="35KLVuq-ZRe5jciEuNwH-57">
          <mxGeometry relative="1" as="geometry" />
        </mxCell>
        <mxCell id="35KLVuq-ZRe5jciEuNwH-61" value="Sim" style="edgeLabel;html=1;align=center;verticalAlign=middle;resizable=0;points=[];fontColor=#171717;" connectable="0" vertex="1" parent="35KLVuq-ZRe5jciEuNwH-60">
          <mxGeometry x="-0.2308" y="-3" relative="1" as="geometry">
            <mxPoint as="offset" />
          </mxGeometry>
        </mxCell>
        <mxCell id="35KLVuq-ZRe5jciEuNwH-62" value="Tem acesso?" style="rhombus;whiteSpace=wrap;html=1;fillColor=#fff2cc;strokeColor=#d6b656;strokeWidth=2;gradientColor=#ffd966;" vertex="1" parent="35KLVuq-ZRe5jciEuNwH-1">
          <mxGeometry x="149" y="1130" width="100" height="100" as="geometry" />
        </mxCell>
        <mxCell id="35KLVuq-ZRe5jciEuNwH-63" value="" style="edgeStyle=orthogonalEdgeStyle;rounded=0;orthogonalLoop=1;jettySize=auto;html=1;strokeColor=#171717;fontColor=#5AA9E6;fillColor=#FFE45E;strokeWidth=3;" edge="1" parent="35KLVuq-ZRe5jciEuNwH-1" source="35KLVuq-ZRe5jciEuNwH-64" target="35KLVuq-ZRe5jciEuNwH-68">
          <mxGeometry relative="1" as="geometry" />
        </mxCell>
        <mxCell id="35KLVuq-ZRe5jciEuNwH-64" value="Novo Usuário" style="whiteSpace=wrap;html=1;fillColor=#fff2cc;strokeColor=#d6b656;rounded=1;glass=0;strokeWidth=1;shadow=0;gradientColor=#ffd966;" vertex="1" parent="35KLVuq-ZRe5jciEuNwH-1">
          <mxGeometry x="609" y="1457.5" width="110" height="55" as="geometry" />
        </mxCell>
        <mxCell id="35KLVuq-ZRe5jciEuNwH-65" style="edgeStyle=orthogonalEdgeStyle;rounded=0;orthogonalLoop=1;jettySize=auto;html=1;entryX=0;entryY=0.5;entryDx=0;entryDy=0;strokeColor=#171717;strokeWidth=3;fontColor=#5AA9E6;fillColor=#FFE45E;" edge="1" parent="35KLVuq-ZRe5jciEuNwH-1" source="35KLVuq-ZRe5jciEuNwH-68" target="35KLVuq-ZRe5jciEuNwH-71">
          <mxGeometry relative="1" as="geometry" />
        </mxCell>
        <mxCell id="35KLVuq-ZRe5jciEuNwH-68" value="Inserir Dados" style="whiteSpace=wrap;html=1;fillColor=#fff2cc;strokeColor=#d6b656;rounded=1;glass=0;strokeWidth=1;shadow=0;gradientColor=#ffd966;" vertex="1" parent="35KLVuq-ZRe5jciEuNwH-1">
          <mxGeometry x="604" y="1300" width="120" height="60" as="geometry" />
        </mxCell>
        <mxCell id="35KLVuq-ZRe5jciEuNwH-69" value="Logout" style="ellipse;whiteSpace=wrap;html=1;fillColor=#fff2cc;strokeColor=#d6b656;rounded=1;glass=0;strokeWidth=1;shadow=0;gradientColor=#ffd966;" vertex="1" parent="35KLVuq-ZRe5jciEuNwH-1">
          <mxGeometry x="1020" y="1294.5" width="104" height="71" as="geometry" />
        </mxCell>
        <mxCell id="35KLVuq-ZRe5jciEuNwH-70" style="edgeStyle=orthogonalEdgeStyle;rounded=0;orthogonalLoop=1;jettySize=auto;html=1;entryX=0;entryY=0.5;entryDx=0;entryDy=0;strokeColor=#171717;strokeWidth=3;fontColor=#171717;fillColor=#FFE45E;" edge="1" parent="35KLVuq-ZRe5jciEuNwH-1" source="35KLVuq-ZRe5jciEuNwH-71" target="35KLVuq-ZRe5jciEuNwH-69">
          <mxGeometry relative="1" as="geometry" />
        </mxCell>
        <mxCell id="35KLVuq-ZRe5jciEuNwH-71" value="&lt;font color=&quot;#171717&quot;&gt;Salvar Usuário&lt;/font&gt;" style="whiteSpace=wrap;html=1;fillColor=#fff2cc;strokeColor=#d6b656;rounded=1;glass=0;strokeWidth=1;shadow=0;gradientColor=#ffd966;fontColor=#5AA9E6;" vertex="1" parent="35KLVuq-ZRe5jciEuNwH-1">
          <mxGeometry x="799" y="1160" width="120" height="60" as="geometry" />
        </mxCell>
        <mxCell id="35KLVuq-ZRe5jciEuNwH-76" value="" style="endArrow=none;html=1;rounded=0;strokeColor=#171717;strokeWidth=3;fontColor=#171717;fillColor=#FFE45E;" edge="1" parent="35KLVuq-ZRe5jciEuNwH-1">
          <mxGeometry width="50" height="50" relative="1" as="geometry">
            <mxPoint x="39" y="118.75" as="sourcePoint" />
            <mxPoint x="1119" y="118.75" as="targetPoint" />
          </mxGeometry>
        </mxCell>
        <mxCell id="35KLVuq-ZRe5jciEuNwH-77" value="&lt;div style=&quot;&quot;&gt;&lt;span style=&quot;font-size: 24px;&quot;&gt;&lt;b&gt;Flow Chart Diagram:&lt;/b&gt;&amp;nbsp;&lt;/span&gt;&lt;/div&gt;&lt;font style=&quot;font-size: 24px;&quot;&gt;Listar Usuários&lt;br&gt;&lt;/font&gt;&lt;font style=&quot;&quot;&gt;&lt;div style=&quot;&quot;&gt;&lt;span style=&quot;background-color: initial;&quot;&gt;Projeto: HematologyApp&lt;/span&gt;&lt;/div&gt;&lt;/font&gt;" style="text;html=1;align=left;verticalAlign=middle;resizable=0;points=[];autosize=1;strokeColor=none;fillColor=none;fontColor=#171717;" vertex="1" parent="35KLVuq-ZRe5jciEuNwH-1">
          <mxGeometry x="39" y="21" width="260" height="90" as="geometry" />
        </mxCell>
        <mxCell id="35KLVuq-ZRe5jciEuNwH-78" value="" style="endArrow=none;html=1;rounded=0;strokeColor=#171717;strokeWidth=3;fontColor=#171717;fillColor=#FFE45E;" edge="1" parent="35KLVuq-ZRe5jciEuNwH-1">
          <mxGeometry width="50" height="50" relative="1" as="geometry">
            <mxPoint x="44" y="953.75" as="sourcePoint" />
            <mxPoint x="1123.9999999999995" y="953.75" as="targetPoint" />
          </mxGeometry>
        </mxCell>
        <mxCell id="35KLVuq-ZRe5jciEuNwH-79" value="&lt;div style=&quot;&quot;&gt;&lt;span style=&quot;font-size: 24px;&quot;&gt;&lt;b&gt;Flow Chart Diagram:&lt;/b&gt;&amp;nbsp;&lt;/span&gt;&lt;/div&gt;&lt;font style=&quot;font-size: 24px;&quot;&gt;Novo Usuário&lt;br&gt;&lt;br&gt;&lt;/font&gt;&lt;font style=&quot;&quot;&gt;&lt;div style=&quot;&quot;&gt;&lt;span style=&quot;background-color: initial;&quot;&gt;Projeto: HematologyApp&lt;/span&gt;&lt;/div&gt;&lt;/font&gt;" style="text;html=1;align=left;verticalAlign=middle;resizable=0;points=[];autosize=1;strokeColor=none;fillColor=none;fontColor=#171717;" vertex="1" parent="35KLVuq-ZRe5jciEuNwH-1">
          <mxGeometry x="44" y="846" width="260" height="110" as="geometry" />
        </mxCell>
        <mxCell id="35KLVuq-ZRe5jciEuNwH-82" value="&lt;div style=&quot;&quot;&gt;&lt;span style=&quot;font-size: 24px;&quot;&gt;&lt;b&gt;Flow Chart Diagram:&lt;/b&gt;&amp;nbsp;&lt;/span&gt;&lt;/div&gt;&lt;font style=&quot;font-size: 24px;&quot;&gt;Administração de Usuários&lt;br&gt;&lt;br&gt;&lt;/font&gt;&lt;font style=&quot;&quot;&gt;&lt;div style=&quot;&quot;&gt;&lt;span style=&quot;background-color: initial;&quot;&gt;Projeto: HematologyApp&lt;/span&gt;&lt;/div&gt;&lt;/font&gt;" style="text;html=1;align=left;verticalAlign=middle;resizable=0;points=[];autosize=1;strokeColor=none;fillColor=none;fontColor=#171717;" vertex="1" parent="35KLVuq-ZRe5jciEuNwH-1">
          <mxGeometry x="44" y="2501" width="310" height="110" as="geometry" />
        </mxCell>
        <mxCell id="35KLVuq-ZRe5jciEuNwH-83" value="" style="endArrow=none;html=1;rounded=0;strokeColor=#171717;strokeWidth=3;fontColor=#171717;fillColor=#FFE45E;" edge="1" parent="35KLVuq-ZRe5jciEuNwH-1">
          <mxGeometry width="50" height="50" relative="1" as="geometry">
            <mxPoint x="44" y="2608.75" as="sourcePoint" />
            <mxPoint x="1123.9999999999995" y="2608.75" as="targetPoint" />
          </mxGeometry>
        </mxCell>
        <mxCell id="zSkRJHGt5gZSODRYn_vm-2" style="edgeStyle=orthogonalEdgeStyle;rounded=0;orthogonalLoop=1;jettySize=auto;html=1;entryX=0;entryY=0.5;entryDx=0;entryDy=0;strokeWidth=3;" edge="1" parent="35KLVuq-ZRe5jciEuNwH-1" source="zSkRJHGt5gZSODRYn_vm-0" target="35KLVuq-ZRe5jciEuNwH-43">
          <mxGeometry relative="1" as="geometry" />
        </mxCell>
        <mxCell id="zSkRJHGt5gZSODRYn_vm-0" value="LIsta Usuários" style="rounded=1;whiteSpace=wrap;html=1;fontSize=12;glass=0;strokeWidth=1;shadow=0;fillColor=#fff2cc;gradientColor=#ffd966;strokeColor=#d6b656;" vertex="1" parent="35KLVuq-ZRe5jciEuNwH-1">
          <mxGeometry x="599" y="637.5" width="120" height="55" as="geometry" />
        </mxCell>
        <mxCell id="zSkRJHGt5gZSODRYn_vm-3" style="edgeStyle=orthogonalEdgeStyle;rounded=0;orthogonalLoop=1;jettySize=auto;html=1;entryX=0;entryY=0.5;entryDx=0;entryDy=0;strokeWidth=3;strokeColor=#171717;" edge="1" parent="35KLVuq-ZRe5jciEuNwH-1" source="zSkRJHGt5gZSODRYn_vm-7" target="zSkRJHGt5gZSODRYn_vm-9">
          <mxGeometry relative="1" as="geometry">
            <mxPoint x="1110" y="2254" as="targetPoint" />
          </mxGeometry>
        </mxCell>
        <mxCell id="zSkRJHGt5gZSODRYn_vm-4" value="Sim" style="edgeLabel;html=1;align=center;verticalAlign=middle;resizable=0;points=[];fontSize=11;" connectable="0" vertex="1" parent="zSkRJHGt5gZSODRYn_vm-3">
          <mxGeometry x="-0.3805" relative="1" as="geometry">
            <mxPoint as="offset" />
          </mxGeometry>
        </mxCell>
        <mxCell id="zSkRJHGt5gZSODRYn_vm-5" style="edgeStyle=orthogonalEdgeStyle;rounded=0;orthogonalLoop=1;jettySize=auto;html=1;entryX=0;entryY=0.5;entryDx=0;entryDy=0;strokeColor=#171717;fontColor=#5AA9E6;fillColor=#FFE45E;strokeWidth=3;" edge="1" parent="35KLVuq-ZRe5jciEuNwH-1" source="zSkRJHGt5gZSODRYn_vm-7" target="zSkRJHGt5gZSODRYn_vm-13">
          <mxGeometry relative="1" as="geometry">
            <Array as="points">
              <mxPoint x="120" y="2309" />
              <mxPoint x="120" y="2154" />
            </Array>
          </mxGeometry>
        </mxCell>
        <mxCell id="zSkRJHGt5gZSODRYn_vm-6" value="Não" style="edgeLabel;html=1;align=center;verticalAlign=middle;resizable=0;points=[];fontColor=#171717;" connectable="0" vertex="1" parent="zSkRJHGt5gZSODRYn_vm-5">
          <mxGeometry x="-0.2179" y="-3" relative="1" as="geometry">
            <mxPoint as="offset" />
          </mxGeometry>
        </mxCell>
        <mxCell id="zSkRJHGt5gZSODRYn_vm-7" value="Permissão" style="rhombus;whiteSpace=wrap;html=1;shadow=0;fontFamily=Helvetica;fontSize=12;align=center;strokeWidth=1;spacing=6;spacingTop=-4;fillColor=#fff2cc;gradientColor=#ffd966;strokeColor=#d6b656;" vertex="1" parent="35KLVuq-ZRe5jciEuNwH-1">
          <mxGeometry x="140" y="2254" width="120" height="110" as="geometry" />
        </mxCell>
        <mxCell id="zSkRJHGt5gZSODRYn_vm-8" value="" style="edgeStyle=orthogonalEdgeStyle;rounded=0;orthogonalLoop=1;jettySize=auto;html=1;strokeColor=#171717;fontColor=#5AA9E6;fillColor=#FFE45E;strokeWidth=3;" edge="1" parent="35KLVuq-ZRe5jciEuNwH-1" source="zSkRJHGt5gZSODRYn_vm-9" target="zSkRJHGt5gZSODRYn_vm-20">
          <mxGeometry relative="1" as="geometry" />
        </mxCell>
        <mxCell id="zSkRJHGt5gZSODRYn_vm-9" value="Usuários" style="rounded=1;whiteSpace=wrap;html=1;fontSize=12;glass=0;strokeWidth=1;shadow=0;fillColor=#fff2cc;gradientColor=#ffd966;strokeColor=#d6b656;" vertex="1" parent="35KLVuq-ZRe5jciEuNwH-1">
          <mxGeometry x="400" y="2281.5" width="120" height="55" as="geometry" />
        </mxCell>
        <mxCell id="zSkRJHGt5gZSODRYn_vm-10" value="" style="edgeStyle=orthogonalEdgeStyle;rounded=0;orthogonalLoop=1;jettySize=auto;html=1;strokeColor=#171717;fontColor=#5AA9E6;fillColor=#FFE45E;strokeWidth=3;" edge="1" parent="35KLVuq-ZRe5jciEuNwH-1" source="zSkRJHGt5gZSODRYn_vm-11" target="zSkRJHGt5gZSODRYn_vm-18">
          <mxGeometry relative="1" as="geometry" />
        </mxCell>
        <mxCell id="zSkRJHGt5gZSODRYn_vm-11" value="Login" style="strokeWidth=2;html=1;shape=mxgraph.flowchart.start_1;whiteSpace=wrap;fillColor=#fff2cc;strokeColor=#d6b656;gradientColor=#ffd966;" vertex="1" parent="35KLVuq-ZRe5jciEuNwH-1">
          <mxGeometry x="150" y="1824" width="100" height="60" as="geometry" />
        </mxCell>
        <mxCell id="zSkRJHGt5gZSODRYn_vm-12" style="edgeStyle=orthogonalEdgeStyle;rounded=0;orthogonalLoop=1;jettySize=auto;html=1;entryX=0.5;entryY=0;entryDx=0;entryDy=0;strokeWidth=3;fontSize=12;startSize=3;endSize=0;strokeColor=#171717;" edge="1" parent="35KLVuq-ZRe5jciEuNwH-1" source="zSkRJHGt5gZSODRYn_vm-13" target="zSkRJHGt5gZSODRYn_vm-7">
          <mxGeometry relative="1" as="geometry" />
        </mxCell>
        <mxCell id="zSkRJHGt5gZSODRYn_vm-13" value="Dashboard" style="rounded=1;whiteSpace=wrap;html=1;fontSize=12;glass=0;strokeWidth=1;shadow=0;fillColor=#fff2cc;gradientColor=#ffd966;strokeColor=#d6b656;" vertex="1" parent="35KLVuq-ZRe5jciEuNwH-1">
          <mxGeometry x="140" y="2134" width="120" height="40" as="geometry" />
        </mxCell>
        <mxCell id="zSkRJHGt5gZSODRYn_vm-14" style="edgeStyle=orthogonalEdgeStyle;rounded=0;orthogonalLoop=1;jettySize=auto;html=1;entryX=1;entryY=0.5;entryDx=0;entryDy=0;entryPerimeter=0;strokeColor=#171717;fontColor=#5AA9E6;fillColor=#FFE45E;strokeWidth=3;" edge="1" parent="35KLVuq-ZRe5jciEuNwH-1" source="zSkRJHGt5gZSODRYn_vm-18" target="zSkRJHGt5gZSODRYn_vm-11">
          <mxGeometry relative="1" as="geometry">
            <Array as="points">
              <mxPoint x="270" y="1994" />
              <mxPoint x="270" y="1854" />
            </Array>
          </mxGeometry>
        </mxCell>
        <mxCell id="zSkRJHGt5gZSODRYn_vm-15" value="Não" style="edgeLabel;html=1;align=center;verticalAlign=middle;resizable=0;points=[];fontColor=#171717;" connectable="0" vertex="1" parent="zSkRJHGt5gZSODRYn_vm-14">
          <mxGeometry x="-0.2105" relative="1" as="geometry">
            <mxPoint x="-1" as="offset" />
          </mxGeometry>
        </mxCell>
        <mxCell id="zSkRJHGt5gZSODRYn_vm-16" style="edgeStyle=orthogonalEdgeStyle;rounded=0;orthogonalLoop=1;jettySize=auto;html=1;entryX=0.5;entryY=0;entryDx=0;entryDy=0;strokeColor=#171717;fontColor=#5AA9E6;fillColor=#FFE45E;strokeWidth=3;" edge="1" parent="35KLVuq-ZRe5jciEuNwH-1" source="zSkRJHGt5gZSODRYn_vm-18" target="zSkRJHGt5gZSODRYn_vm-13">
          <mxGeometry relative="1" as="geometry" />
        </mxCell>
        <mxCell id="zSkRJHGt5gZSODRYn_vm-17" value="Sim" style="edgeLabel;html=1;align=center;verticalAlign=middle;resizable=0;points=[];fontColor=#171717;" connectable="0" vertex="1" parent="zSkRJHGt5gZSODRYn_vm-16">
          <mxGeometry x="-0.2308" y="-3" relative="1" as="geometry">
            <mxPoint as="offset" />
          </mxGeometry>
        </mxCell>
        <mxCell id="zSkRJHGt5gZSODRYn_vm-18" value="Tem acesso?" style="rhombus;whiteSpace=wrap;html=1;fillColor=#fff2cc;strokeColor=#d6b656;strokeWidth=2;gradientColor=#ffd966;" vertex="1" parent="35KLVuq-ZRe5jciEuNwH-1">
          <mxGeometry x="150" y="1954" width="100" height="100" as="geometry" />
        </mxCell>
        <mxCell id="zSkRJHGt5gZSODRYn_vm-19" value="" style="edgeStyle=orthogonalEdgeStyle;rounded=0;orthogonalLoop=1;jettySize=auto;html=1;strokeColor=#171717;fontColor=#5AA9E6;fillColor=#FFE45E;strokeWidth=3;" edge="1" parent="35KLVuq-ZRe5jciEuNwH-1" source="zSkRJHGt5gZSODRYn_vm-20" target="zSkRJHGt5gZSODRYn_vm-22">
          <mxGeometry relative="1" as="geometry" />
        </mxCell>
        <mxCell id="zSkRJHGt5gZSODRYn_vm-20" value="Consultar&amp;nbsp; Usuário" style="whiteSpace=wrap;html=1;fillColor=#fff2cc;strokeColor=#d6b656;rounded=1;glass=0;strokeWidth=1;shadow=0;gradientColor=#ffd966;" vertex="1" parent="35KLVuq-ZRe5jciEuNwH-1">
          <mxGeometry x="610" y="2281.5" width="110" height="55" as="geometry" />
        </mxCell>
        <mxCell id="zSkRJHGt5gZSODRYn_vm-21" style="edgeStyle=orthogonalEdgeStyle;rounded=0;orthogonalLoop=1;jettySize=auto;html=1;entryX=0;entryY=0.5;entryDx=0;entryDy=0;strokeColor=#171717;strokeWidth=3;fontColor=#5AA9E6;fillColor=#FFE45E;" edge="1" parent="35KLVuq-ZRe5jciEuNwH-1" source="zSkRJHGt5gZSODRYn_vm-22" target="zSkRJHGt5gZSODRYn_vm-25">
          <mxGeometry relative="1" as="geometry" />
        </mxCell>
        <mxCell id="zSkRJHGt5gZSODRYn_vm-22" value="Alterar Dados" style="whiteSpace=wrap;html=1;fillColor=#fff2cc;strokeColor=#d6b656;rounded=1;glass=0;strokeWidth=1;shadow=0;gradientColor=#ffd966;" vertex="1" parent="35KLVuq-ZRe5jciEuNwH-1">
          <mxGeometry x="605" y="2124" width="120" height="60" as="geometry" />
        </mxCell>
        <mxCell id="zSkRJHGt5gZSODRYn_vm-23" value="Logout" style="ellipse;whiteSpace=wrap;html=1;fillColor=#fff2cc;strokeColor=#d6b656;rounded=1;glass=0;strokeWidth=1;shadow=0;gradientColor=#ffd966;" vertex="1" parent="35KLVuq-ZRe5jciEuNwH-1">
          <mxGeometry x="1021" y="2118.5" width="104" height="71" as="geometry" />
        </mxCell>
        <mxCell id="zSkRJHGt5gZSODRYn_vm-24" style="edgeStyle=orthogonalEdgeStyle;rounded=0;orthogonalLoop=1;jettySize=auto;html=1;entryX=0;entryY=0.5;entryDx=0;entryDy=0;strokeColor=#171717;strokeWidth=3;fontColor=#171717;fillColor=#FFE45E;" edge="1" parent="35KLVuq-ZRe5jciEuNwH-1" source="zSkRJHGt5gZSODRYn_vm-25" target="zSkRJHGt5gZSODRYn_vm-23">
          <mxGeometry relative="1" as="geometry" />
        </mxCell>
        <mxCell id="zSkRJHGt5gZSODRYn_vm-25" value="&lt;font color=&quot;#171717&quot;&gt;Salvar Usuário&lt;/font&gt;" style="whiteSpace=wrap;html=1;fillColor=#fff2cc;strokeColor=#d6b656;rounded=1;glass=0;strokeWidth=1;shadow=0;gradientColor=#ffd966;fontColor=#5AA9E6;" vertex="1" parent="35KLVuq-ZRe5jciEuNwH-1">
          <mxGeometry x="800" y="1984" width="120" height="60" as="geometry" />
        </mxCell>
        <mxCell id="zSkRJHGt5gZSODRYn_vm-26" value="" style="endArrow=none;html=1;rounded=0;strokeColor=#171717;strokeWidth=3;fontColor=#171717;fillColor=#FFE45E;" edge="1" parent="35KLVuq-ZRe5jciEuNwH-1">
          <mxGeometry width="50" height="50" relative="1" as="geometry">
            <mxPoint x="45" y="1777.75" as="sourcePoint" />
            <mxPoint x="1124.9999999999995" y="1777.75" as="targetPoint" />
          </mxGeometry>
        </mxCell>
        <mxCell id="zSkRJHGt5gZSODRYn_vm-27" value="&lt;div style=&quot;&quot;&gt;&lt;span style=&quot;font-size: 24px;&quot;&gt;&lt;b&gt;Flow Chart Diagram:&lt;/b&gt;&amp;nbsp;&lt;/span&gt;&lt;/div&gt;&lt;font style=&quot;font-size: 24px;&quot;&gt;Editar Usuário&lt;br&gt;&lt;br&gt;&lt;/font&gt;&lt;font style=&quot;&quot;&gt;&lt;div style=&quot;&quot;&gt;&lt;span style=&quot;background-color: initial;&quot;&gt;Projeto: HematologyApp&lt;/span&gt;&lt;/div&gt;&lt;/font&gt;" style="text;html=1;align=left;verticalAlign=middle;resizable=0;points=[];autosize=1;strokeColor=none;fillColor=none;fontColor=#171717;" vertex="1" parent="35KLVuq-ZRe5jciEuNwH-1">
          <mxGeometry x="45" y="1670" width="260" height="110" as="geometry" />
        </mxCell>
        <mxCell id="zSkRJHGt5gZSODRYn_vm-53" style="edgeStyle=orthogonalEdgeStyle;rounded=0;orthogonalLoop=1;jettySize=auto;html=1;entryX=0;entryY=0.5;entryDx=0;entryDy=0;strokeWidth=3;strokeColor=#171717;" edge="1" parent="35KLVuq-ZRe5jciEuNwH-1" source="zSkRJHGt5gZSODRYn_vm-57" target="zSkRJHGt5gZSODRYn_vm-59">
          <mxGeometry relative="1" as="geometry">
            <mxPoint x="1085" y="3924" as="targetPoint" />
          </mxGeometry>
        </mxCell>
        <mxCell id="zSkRJHGt5gZSODRYn_vm-54" value="Sim" style="edgeLabel;html=1;align=center;verticalAlign=middle;resizable=0;points=[];fontSize=11;" connectable="0" vertex="1" parent="zSkRJHGt5gZSODRYn_vm-53">
          <mxGeometry x="-0.3805" relative="1" as="geometry">
            <mxPoint as="offset" />
          </mxGeometry>
        </mxCell>
        <mxCell id="zSkRJHGt5gZSODRYn_vm-55" style="edgeStyle=orthogonalEdgeStyle;rounded=0;orthogonalLoop=1;jettySize=auto;html=1;entryX=0;entryY=0.5;entryDx=0;entryDy=0;strokeColor=#171717;fontColor=#5AA9E6;fillColor=#FFE45E;strokeWidth=3;" edge="1" parent="35KLVuq-ZRe5jciEuNwH-1" source="zSkRJHGt5gZSODRYn_vm-57" target="zSkRJHGt5gZSODRYn_vm-63">
          <mxGeometry relative="1" as="geometry">
            <Array as="points">
              <mxPoint x="95" y="3979" />
              <mxPoint x="95" y="3824" />
            </Array>
          </mxGeometry>
        </mxCell>
        <mxCell id="zSkRJHGt5gZSODRYn_vm-56" value="Não" style="edgeLabel;html=1;align=center;verticalAlign=middle;resizable=0;points=[];fontColor=#171717;" connectable="0" vertex="1" parent="zSkRJHGt5gZSODRYn_vm-55">
          <mxGeometry x="-0.2179" y="-3" relative="1" as="geometry">
            <mxPoint as="offset" />
          </mxGeometry>
        </mxCell>
        <mxCell id="zSkRJHGt5gZSODRYn_vm-57" value="Permissão" style="rhombus;whiteSpace=wrap;html=1;shadow=0;fontFamily=Helvetica;fontSize=12;align=center;strokeWidth=1;spacing=6;spacingTop=-4;fillColor=#fff2cc;gradientColor=#ffd966;strokeColor=#d6b656;" vertex="1" parent="35KLVuq-ZRe5jciEuNwH-1">
          <mxGeometry x="115" y="3924" width="120" height="110" as="geometry" />
        </mxCell>
        <mxCell id="zSkRJHGt5gZSODRYn_vm-58" value="" style="edgeStyle=orthogonalEdgeStyle;rounded=0;orthogonalLoop=1;jettySize=auto;html=1;strokeColor=#171717;fontColor=#5AA9E6;fillColor=#FFE45E;strokeWidth=3;" edge="1" parent="35KLVuq-ZRe5jciEuNwH-1" source="zSkRJHGt5gZSODRYn_vm-59" target="zSkRJHGt5gZSODRYn_vm-70">
          <mxGeometry relative="1" as="geometry" />
        </mxCell>
        <mxCell id="zSkRJHGt5gZSODRYn_vm-59" value="Usuários" style="rounded=1;whiteSpace=wrap;html=1;fontSize=12;glass=0;strokeWidth=1;shadow=0;fillColor=#fff2cc;gradientColor=#ffd966;strokeColor=#d6b656;" vertex="1" parent="35KLVuq-ZRe5jciEuNwH-1">
          <mxGeometry x="375" y="3951.5" width="120" height="55" as="geometry" />
        </mxCell>
        <mxCell id="zSkRJHGt5gZSODRYn_vm-60" value="" style="edgeStyle=orthogonalEdgeStyle;rounded=0;orthogonalLoop=1;jettySize=auto;html=1;strokeColor=#171717;fontColor=#5AA9E6;fillColor=#FFE45E;strokeWidth=3;" edge="1" parent="35KLVuq-ZRe5jciEuNwH-1" source="zSkRJHGt5gZSODRYn_vm-61" target="zSkRJHGt5gZSODRYn_vm-68">
          <mxGeometry relative="1" as="geometry" />
        </mxCell>
        <mxCell id="zSkRJHGt5gZSODRYn_vm-61" value="Login" style="strokeWidth=2;html=1;shape=mxgraph.flowchart.start_1;whiteSpace=wrap;fillColor=#fff2cc;strokeColor=#d6b656;gradientColor=#ffd966;" vertex="1" parent="35KLVuq-ZRe5jciEuNwH-1">
          <mxGeometry x="125" y="3494" width="100" height="60" as="geometry" />
        </mxCell>
        <mxCell id="zSkRJHGt5gZSODRYn_vm-62" style="edgeStyle=orthogonalEdgeStyle;rounded=0;orthogonalLoop=1;jettySize=auto;html=1;entryX=0.5;entryY=0;entryDx=0;entryDy=0;strokeWidth=3;fontSize=12;startSize=3;endSize=0;strokeColor=#171717;" edge="1" parent="35KLVuq-ZRe5jciEuNwH-1" source="zSkRJHGt5gZSODRYn_vm-63" target="zSkRJHGt5gZSODRYn_vm-57">
          <mxGeometry relative="1" as="geometry" />
        </mxCell>
        <mxCell id="zSkRJHGt5gZSODRYn_vm-63" value="Dashboard" style="rounded=1;whiteSpace=wrap;html=1;fontSize=12;glass=0;strokeWidth=1;shadow=0;fillColor=#fff2cc;gradientColor=#ffd966;strokeColor=#d6b656;" vertex="1" parent="35KLVuq-ZRe5jciEuNwH-1">
          <mxGeometry x="115" y="3804" width="120" height="40" as="geometry" />
        </mxCell>
        <mxCell id="zSkRJHGt5gZSODRYn_vm-64" style="edgeStyle=orthogonalEdgeStyle;rounded=0;orthogonalLoop=1;jettySize=auto;html=1;entryX=1;entryY=0.5;entryDx=0;entryDy=0;entryPerimeter=0;strokeColor=#171717;fontColor=#5AA9E6;fillColor=#FFE45E;strokeWidth=3;" edge="1" parent="35KLVuq-ZRe5jciEuNwH-1" source="zSkRJHGt5gZSODRYn_vm-68" target="zSkRJHGt5gZSODRYn_vm-61">
          <mxGeometry relative="1" as="geometry">
            <Array as="points">
              <mxPoint x="245" y="3664" />
              <mxPoint x="245" y="3524" />
            </Array>
          </mxGeometry>
        </mxCell>
        <mxCell id="zSkRJHGt5gZSODRYn_vm-65" value="Não" style="edgeLabel;html=1;align=center;verticalAlign=middle;resizable=0;points=[];fontColor=#171717;" connectable="0" vertex="1" parent="zSkRJHGt5gZSODRYn_vm-64">
          <mxGeometry x="-0.2105" relative="1" as="geometry">
            <mxPoint x="-1" as="offset" />
          </mxGeometry>
        </mxCell>
        <mxCell id="zSkRJHGt5gZSODRYn_vm-66" style="edgeStyle=orthogonalEdgeStyle;rounded=0;orthogonalLoop=1;jettySize=auto;html=1;entryX=0.5;entryY=0;entryDx=0;entryDy=0;strokeColor=#171717;fontColor=#5AA9E6;fillColor=#FFE45E;strokeWidth=3;" edge="1" parent="35KLVuq-ZRe5jciEuNwH-1" source="zSkRJHGt5gZSODRYn_vm-68" target="zSkRJHGt5gZSODRYn_vm-63">
          <mxGeometry relative="1" as="geometry" />
        </mxCell>
        <mxCell id="zSkRJHGt5gZSODRYn_vm-67" value="Sim" style="edgeLabel;html=1;align=center;verticalAlign=middle;resizable=0;points=[];fontColor=#171717;" connectable="0" vertex="1" parent="zSkRJHGt5gZSODRYn_vm-66">
          <mxGeometry x="-0.2308" y="-3" relative="1" as="geometry">
            <mxPoint as="offset" />
          </mxGeometry>
        </mxCell>
        <mxCell id="zSkRJHGt5gZSODRYn_vm-68" value="Tem acesso?" style="rhombus;whiteSpace=wrap;html=1;fillColor=#fff2cc;strokeColor=#d6b656;strokeWidth=2;gradientColor=#ffd966;" vertex="1" parent="35KLVuq-ZRe5jciEuNwH-1">
          <mxGeometry x="125" y="3624" width="100" height="100" as="geometry" />
        </mxCell>
        <mxCell id="zSkRJHGt5gZSODRYn_vm-69" value="" style="edgeStyle=orthogonalEdgeStyle;rounded=0;orthogonalLoop=1;jettySize=auto;html=1;strokeColor=#171717;fontColor=#5AA9E6;fillColor=#FFE45E;strokeWidth=3;" edge="1" parent="35KLVuq-ZRe5jciEuNwH-1" source="zSkRJHGt5gZSODRYn_vm-70" target="zSkRJHGt5gZSODRYn_vm-72">
          <mxGeometry relative="1" as="geometry" />
        </mxCell>
        <mxCell id="zSkRJHGt5gZSODRYn_vm-70" value="Consultar Usuário" style="whiteSpace=wrap;html=1;fillColor=#fff2cc;strokeColor=#d6b656;rounded=1;glass=0;strokeWidth=1;shadow=0;gradientColor=#ffd966;" vertex="1" parent="35KLVuq-ZRe5jciEuNwH-1">
          <mxGeometry x="585" y="3951.5" width="110" height="55" as="geometry" />
        </mxCell>
        <mxCell id="zSkRJHGt5gZSODRYn_vm-71" style="edgeStyle=orthogonalEdgeStyle;rounded=0;orthogonalLoop=1;jettySize=auto;html=1;entryX=0;entryY=0.5;entryDx=0;entryDy=0;strokeColor=#171717;strokeWidth=3;fontColor=#5AA9E6;fillColor=#FFE45E;" edge="1" parent="35KLVuq-ZRe5jciEuNwH-1" source="zSkRJHGt5gZSODRYn_vm-72" target="zSkRJHGt5gZSODRYn_vm-75">
          <mxGeometry relative="1" as="geometry" />
        </mxCell>
        <mxCell id="zSkRJHGt5gZSODRYn_vm-72" value="Alterar Permissões" style="whiteSpace=wrap;html=1;fillColor=#fff2cc;strokeColor=#d6b656;rounded=1;glass=0;strokeWidth=1;shadow=0;gradientColor=#ffd966;" vertex="1" parent="35KLVuq-ZRe5jciEuNwH-1">
          <mxGeometry x="580" y="3794" width="120" height="60" as="geometry" />
        </mxCell>
        <mxCell id="zSkRJHGt5gZSODRYn_vm-73" value="Logout" style="ellipse;whiteSpace=wrap;html=1;fillColor=#fff2cc;strokeColor=#d6b656;rounded=1;glass=0;strokeWidth=1;shadow=0;gradientColor=#ffd966;" vertex="1" parent="35KLVuq-ZRe5jciEuNwH-1">
          <mxGeometry x="996" y="3788.5" width="104" height="71" as="geometry" />
        </mxCell>
        <mxCell id="zSkRJHGt5gZSODRYn_vm-74" style="edgeStyle=orthogonalEdgeStyle;rounded=0;orthogonalLoop=1;jettySize=auto;html=1;entryX=0;entryY=0.5;entryDx=0;entryDy=0;strokeColor=#171717;strokeWidth=3;fontColor=#171717;fillColor=#FFE45E;" edge="1" parent="35KLVuq-ZRe5jciEuNwH-1" source="zSkRJHGt5gZSODRYn_vm-75" target="zSkRJHGt5gZSODRYn_vm-73">
          <mxGeometry relative="1" as="geometry" />
        </mxCell>
        <mxCell id="zSkRJHGt5gZSODRYn_vm-75" value="&lt;font color=&quot;#171717&quot;&gt;Salvar Permissões do &lt;br&gt;Usuário&lt;/font&gt;" style="whiteSpace=wrap;html=1;fillColor=#fff2cc;strokeColor=#d6b656;rounded=1;glass=0;strokeWidth=1;shadow=0;gradientColor=#ffd966;fontColor=#5AA9E6;" vertex="1" parent="35KLVuq-ZRe5jciEuNwH-1">
          <mxGeometry x="775" y="3654" width="120" height="60" as="geometry" />
        </mxCell>
        <mxCell id="zSkRJHGt5gZSODRYn_vm-76" value="" style="endArrow=none;html=1;rounded=0;strokeColor=#171717;strokeWidth=3;fontColor=#171717;fillColor=#FFE45E;" edge="1" parent="35KLVuq-ZRe5jciEuNwH-1">
          <mxGeometry width="50" height="50" relative="1" as="geometry">
            <mxPoint x="20" y="3447.75" as="sourcePoint" />
            <mxPoint x="1099.9999999999995" y="3447.75" as="targetPoint" />
          </mxGeometry>
        </mxCell>
        <mxCell id="zSkRJHGt5gZSODRYn_vm-77" value="&lt;div style=&quot;&quot;&gt;&lt;span style=&quot;font-size: 24px;&quot;&gt;&lt;b&gt;Flow Chart Diagram:&lt;/b&gt;&amp;nbsp;&lt;/span&gt;&lt;/div&gt;&lt;font style=&quot;&quot;&gt;&lt;div style=&quot;&quot;&gt;&lt;span style=&quot;background-color: initial;&quot;&gt;&lt;span style=&quot;font-size: 24px;&quot;&gt;Alterar Permissões de Usuário&lt;/span&gt;&lt;/span&gt;&lt;/div&gt;&lt;div style=&quot;&quot;&gt;&lt;span style=&quot;background-color: initial;&quot;&gt;&lt;br&gt;&lt;/span&gt;&lt;/div&gt;&lt;div style=&quot;&quot;&gt;&lt;span style=&quot;background-color: initial;&quot;&gt;Projeto: HematologyApp&lt;/span&gt;&lt;/div&gt;&lt;/font&gt;" style="text;html=1;align=left;verticalAlign=middle;resizable=0;points=[];autosize=1;strokeColor=none;fillColor=none;fontColor=#171717;" vertex="1" parent="35KLVuq-ZRe5jciEuNwH-1">
          <mxGeometry x="20" y="3345" width="350" height="100" as="geometry" />
        </mxCell>
        <mxCell id="zSkRJHGt5gZSODRYn_vm-81" style="edgeStyle=orthogonalEdgeStyle;rounded=0;orthogonalLoop=1;jettySize=auto;html=1;entryX=0.5;entryY=1;entryDx=0;entryDy=0;strokeWidth=3;" edge="1" parent="35KLVuq-ZRe5jciEuNwH-1" source="zSkRJHGt5gZSODRYn_vm-78" target="zSkRJHGt5gZSODRYn_vm-79">
          <mxGeometry relative="1" as="geometry" />
        </mxCell>
        <mxCell id="zSkRJHGt5gZSODRYn_vm-78" value="Criar Novo Grupo" style="whiteSpace=wrap;html=1;fillColor=#fff2cc;strokeColor=#d6b656;gradientColor=#ffd966;" vertex="1" parent="35KLVuq-ZRe5jciEuNwH-1">
          <mxGeometry x="399" y="2860" width="120" height="60" as="geometry" />
        </mxCell>
        <mxCell id="zSkRJHGt5gZSODRYn_vm-82" style="edgeStyle=orthogonalEdgeStyle;rounded=0;orthogonalLoop=1;jettySize=auto;html=1;entryX=0.5;entryY=0;entryDx=0;entryDy=0;strokeWidth=3;" edge="1" parent="35KLVuq-ZRe5jciEuNwH-1" source="zSkRJHGt5gZSODRYn_vm-79" target="35KLVuq-ZRe5jciEuNwH-35">
          <mxGeometry relative="1" as="geometry" />
        </mxCell>
        <mxCell id="zSkRJHGt5gZSODRYn_vm-79" value="Inserir Dados" style="whiteSpace=wrap;html=1;fillColor=#fff2cc;strokeColor=#d6b656;gradientColor=#ffd966;" vertex="1" parent="35KLVuq-ZRe5jciEuNwH-1">
          <mxGeometry x="400" y="2710" width="120" height="60" as="geometry" />
        </mxCell>
      </root>
    </mxGraphModel>
  </diagram>
  <diagram id="6gFNKLUwg4UIPrS2FL6T" name="5Ys methodology">
    <mxGraphModel grid="0" page="1" gridSize="10" guides="1" tooltips="1" connect="1" arrows="1" fold="1" pageScale="1" pageWidth="1169" pageHeight="827" math="0" shadow="0">
      <root>
        <mxCell id="0" />
        <mxCell id="k1a3dhGW_8MNB3TJwGLc-219" value="Raiz do Problema" parent="0" />
        <mxCell id="k1a3dhGW_8MNB3TJwGLc-220" value="Raiz do problema" style="shape=step;perimeter=stepPerimeter;whiteSpace=wrap;html=1;fixedSize=1;fontSize=16;direction=north;fillColor=#f8cecc;strokeColor=#b85450;gradientColor=#ea6b66;" vertex="1" parent="k1a3dhGW_8MNB3TJwGLc-219">
          <mxGeometry x="680" y="720" width="210" height="80" as="geometry" />
        </mxCell>
        <mxCell id="WnQuV1NulPRfpc7C58jc-0" value="" style="endArrow=none;html=1;rounded=0;strokeColor=#171717;strokeWidth=3;fontColor=#171717;fillColor=#FFE45E;" edge="1" parent="k1a3dhGW_8MNB3TJwGLc-219">
          <mxGeometry width="50" height="50" relative="1" as="geometry">
            <mxPoint x="40" y="100" as="sourcePoint" />
            <mxPoint x="1120" y="100" as="targetPoint" />
          </mxGeometry>
        </mxCell>
        <mxCell id="WnQuV1NulPRfpc7C58jc-1" value="&lt;div style=&quot;text-align: left;&quot;&gt;&lt;span style=&quot;font-size: 24px;&quot;&gt;Os 5 por ques que motivaram o projeto&lt;/span&gt;&lt;/div&gt;&lt;div style=&quot;text-align: left;&quot;&gt;&lt;span style=&quot;font-size: 24px;&quot;&gt;&lt;br&gt;&lt;/span&gt;&lt;/div&gt;&lt;font style=&quot;&quot;&gt;&lt;div style=&quot;text-align: left;&quot;&gt;&lt;span style=&quot;background-color: initial;&quot;&gt;Projeto: HematologyApp&lt;/span&gt;&lt;/div&gt;&lt;/font&gt;" style="text;html=1;align=center;verticalAlign=middle;resizable=0;points=[];autosize=1;strokeColor=none;fillColor=none;fontColor=#171717;" vertex="1" parent="k1a3dhGW_8MNB3TJwGLc-219">
          <mxGeometry x="58" y="13" width="434" height="84" as="geometry" />
        </mxCell>
        <mxCell id="k1a3dhGW_8MNB3TJwGLc-159" value="Resposta " parent="0" />
        <mxCell id="k1a3dhGW_8MNB3TJwGLc-169" value="" style="shape=step;perimeter=stepPerimeter;whiteSpace=wrap;html=1;fixedSize=1;fillColor=#d5e8d4;gradientColor=#97d077;strokeColor=#82b366;" vertex="1" parent="k1a3dhGW_8MNB3TJwGLc-159">
          <mxGeometry x="550" y="630" width="520" height="80" as="geometry" />
        </mxCell>
        <mxCell id="k1a3dhGW_8MNB3TJwGLc-144" value="Por que?" parent="0" />
        <mxCell id="k1a3dhGW_8MNB3TJwGLc-153" value="&lt;font style=&quot;font-size: 16px;&quot;&gt;Por que?&lt;/font&gt;" style="shape=step;perimeter=stepPerimeter;whiteSpace=wrap;html=1;fixedSize=1;fillColor=#ffcd28;gradientColor=#ffa500;strokeColor=#d79b00;" vertex="1" parent="k1a3dhGW_8MNB3TJwGLc-144">
          <mxGeometry x="440" y="630" width="120" height="80" as="geometry" />
        </mxCell>
        <mxCell id="k1a3dhGW_8MNB3TJwGLc-129" value="Resposta" parent="0" />
        <mxCell id="k1a3dhGW_8MNB3TJwGLc-137" value="" style="shape=step;perimeter=stepPerimeter;whiteSpace=wrap;html=1;fixedSize=1;fillColor=#d5e8d4;gradientColor=#97d077;strokeColor=#82b366;" vertex="1" parent="k1a3dhGW_8MNB3TJwGLc-129">
          <mxGeometry x="470" y="530" width="520" height="80" as="geometry" />
        </mxCell>
        <mxCell id="k1a3dhGW_8MNB3TJwGLc-114" value="Por que?" parent="0" />
        <mxCell id="k1a3dhGW_8MNB3TJwGLc-121" value="&lt;font style=&quot;font-size: 16px;&quot;&gt;Por que?&lt;/font&gt;" style="shape=step;perimeter=stepPerimeter;whiteSpace=wrap;html=1;fixedSize=1;fillColor=#ffcd28;gradientColor=#ffa500;strokeColor=#d79b00;" vertex="1" parent="k1a3dhGW_8MNB3TJwGLc-114">
          <mxGeometry x="360" y="530" width="120" height="80" as="geometry" />
        </mxCell>
        <mxCell id="k1a3dhGW_8MNB3TJwGLc-99" value="Resposta" parent="0" />
        <mxCell id="k1a3dhGW_8MNB3TJwGLc-103" value="" style="shape=step;perimeter=stepPerimeter;whiteSpace=wrap;html=1;fixedSize=1;fillColor=#d5e8d4;gradientColor=#97d077;strokeColor=#82b366;" vertex="1" parent="k1a3dhGW_8MNB3TJwGLc-99">
          <mxGeometry x="390" y="440" width="520" height="80" as="geometry" />
        </mxCell>
        <mxCell id="k1a3dhGW_8MNB3TJwGLc-84" value="Por quê?" parent="0" />
        <mxCell id="k1a3dhGW_8MNB3TJwGLc-87" value="&lt;font style=&quot;font-size: 16px;&quot;&gt;Por que?&lt;/font&gt;" style="shape=step;perimeter=stepPerimeter;whiteSpace=wrap;html=1;fixedSize=1;fillColor=#ffcd28;gradientColor=#ffa500;strokeColor=#d79b00;" vertex="1" parent="k1a3dhGW_8MNB3TJwGLc-84">
          <mxGeometry x="280" y="440" width="120" height="80" as="geometry" />
        </mxCell>
        <mxCell id="k1a3dhGW_8MNB3TJwGLc-69" value="Resposta" parent="0" />
        <mxCell id="k1a3dhGW_8MNB3TJwGLc-71" value="" style="shape=step;perimeter=stepPerimeter;whiteSpace=wrap;html=1;fixedSize=1;fillColor=#d5e8d4;gradientColor=#97d077;strokeColor=#82b366;" vertex="1" parent="k1a3dhGW_8MNB3TJwGLc-69">
          <mxGeometry x="310" y="350" width="520" height="80" as="geometry" />
        </mxCell>
        <mxCell id="k1a3dhGW_8MNB3TJwGLc-54" value="Por quê?" parent="0" />
        <mxCell id="k1a3dhGW_8MNB3TJwGLc-68" value="&lt;font style=&quot;font-size: 16px;&quot;&gt;Por que?&lt;/font&gt;" style="shape=step;perimeter=stepPerimeter;whiteSpace=wrap;html=1;fixedSize=1;fillColor=#ffcd28;gradientColor=#ffa500;strokeColor=#d79b00;" vertex="1" parent="k1a3dhGW_8MNB3TJwGLc-54">
          <mxGeometry x="200" y="350" width="120" height="80" as="geometry" />
        </mxCell>
        <mxCell id="k1a3dhGW_8MNB3TJwGLc-39" value="Resposta" parent="0" />
        <mxCell id="k1a3dhGW_8MNB3TJwGLc-45" value="" style="shape=step;perimeter=stepPerimeter;whiteSpace=wrap;html=1;fixedSize=1;fillColor=#d5e8d4;gradientColor=#97d077;strokeColor=#82b366;" vertex="1" parent="k1a3dhGW_8MNB3TJwGLc-39">
          <mxGeometry x="230" y="260" width="520" height="80" as="geometry" />
        </mxCell>
        <mxCell id="k1a3dhGW_8MNB3TJwGLc-9" value="Por quê?" parent="0" />
        <mxCell id="k1a3dhGW_8MNB3TJwGLc-22" value="&lt;font style=&quot;font-size: 16px;&quot;&gt;Por que?&lt;/font&gt;" style="shape=step;perimeter=stepPerimeter;whiteSpace=wrap;html=1;fixedSize=1;fillColor=#ffcd28;gradientColor=#ffa500;strokeColor=#d79b00;" vertex="1" parent="k1a3dhGW_8MNB3TJwGLc-9">
          <mxGeometry x="120" y="260" width="120" height="80" as="geometry" />
        </mxCell>
        <mxCell id="k1a3dhGW_8MNB3TJwGLc-226" value="Problema" parent="0" />
        <mxCell id="k1a3dhGW_8MNB3TJwGLc-227" value="Problema:&amp;nbsp;" style="shape=step;perimeter=stepPerimeter;whiteSpace=wrap;html=1;fixedSize=1;fontSize=16;direction=south;fillColor=#f8cecc;strokeColor=#b85450;gradientColor=#ea6b66;" vertex="1" parent="k1a3dhGW_8MNB3TJwGLc-226">
          <mxGeometry x="75" y="170" width="210" height="80" as="geometry" />
        </mxCell>
      </root>
    </mxGraphModel>
  </diagram>
  <diagram id="uWHxwaXz6rDg9X26Ihu5" name="Ciclo de modelagem de processos">
    <mxGraphModel grid="0" page="1" gridSize="10" guides="1" tooltips="1" connect="1" arrows="1" fold="1" pageScale="1" pageWidth="1169" pageHeight="827" math="0" shadow="0">
      <root>
        <mxCell id="0" />
        <mxCell id="1" parent="0" />
        <mxCell id="dx6CBrT-OOgTlN5RKBOP-5" value="&lt;font style=&quot;font-size: 16px;&quot;&gt;Evolução:&lt;br&gt;Minerar Processos&lt;br&gt;Monitorar Atividades&amp;nbsp;&lt;/font&gt;" style="rounded=0;whiteSpace=wrap;html=1;fillColor=#dae8fc;strokeColor=#6c8ebf;gradientColor=#7ea6e0;" vertex="1" parent="1">
          <mxGeometry x="475" y="120" width="220" height="100" as="geometry" />
        </mxCell>
        <mxCell id="dx6CBrT-OOgTlN5RKBOP-6" value="&lt;font style=&quot;font-size: 16px;&quot;&gt;Projeto:&lt;br&gt;Identificar e Modelar Processos&lt;br&gt;&lt;br&gt;Análise:&lt;br&gt;Validar&lt;br&gt;Simular&lt;br&gt;Verificar&lt;br&gt;&lt;/font&gt;" style="rounded=0;whiteSpace=wrap;html=1;fillColor=#f8cecc;strokeColor=#b85450;gradientColor=#ea6b66;" vertex="1" parent="1">
          <mxGeometry x="981" y="317" width="170" height="194" as="geometry" />
        </mxCell>
        <mxCell id="dx6CBrT-OOgTlN5RKBOP-7" value="&lt;font style=&quot;font-size: 16px;&quot;&gt;Execução:&lt;br&gt;Operação&lt;br&gt;Monitoramento&lt;br&gt;Manutenção&lt;/font&gt;" style="rounded=0;whiteSpace=wrap;html=1;fillColor=#ffcd28;gradientColor=#ffa500;strokeColor=#d79b00;" vertex="1" parent="1">
          <mxGeometry x="75" y="360" width="160" height="100" as="geometry" />
        </mxCell>
        <mxCell id="dx6CBrT-OOgTlN5RKBOP-8" value="&lt;font style=&quot;font-size: 16px;&quot;&gt;Configurações:&lt;br&gt;Seleção do Sistema&lt;br&gt;Implementação&lt;br&gt;Teste e Entrega&lt;/font&gt;" style="rounded=0;whiteSpace=wrap;html=1;fillColor=#d5e8d4;gradientColor=#97d077;strokeColor=#82b366;" vertex="1" parent="1">
          <mxGeometry x="495" y="600" width="180" height="110" as="geometry" />
        </mxCell>
        <mxCell id="dx6CBrT-OOgTlN5RKBOP-9" value="" style="endArrow=classic;html=1;strokeWidth=4;rounded=1;" edge="1" parent="1">
          <mxGeometry width="50" height="50" relative="1" as="geometry">
            <mxPoint x="900" y="440" as="sourcePoint" />
            <mxPoint x="650" y="550" as="targetPoint" />
            <Array as="points">
              <mxPoint x="900" y="550" />
            </Array>
          </mxGeometry>
        </mxCell>
        <mxCell id="dx6CBrT-OOgTlN5RKBOP-13" value="" style="endArrow=classic;html=1;strokeWidth=4;rounded=1;" edge="1" parent="1">
          <mxGeometry width="50" height="50" relative="1" as="geometry">
            <mxPoint x="640" y="280" as="sourcePoint" />
            <mxPoint x="900" y="400" as="targetPoint" />
            <Array as="points">
              <mxPoint x="900" y="280" />
            </Array>
          </mxGeometry>
        </mxCell>
        <mxCell id="dx6CBrT-OOgTlN5RKBOP-14" value="" style="endArrow=classic;html=1;strokeWidth=4;rounded=1;" edge="1" parent="1">
          <mxGeometry width="50" height="50" relative="1" as="geometry">
            <mxPoint x="280" y="390" as="sourcePoint" />
            <mxPoint x="530" y="280" as="targetPoint" />
            <Array as="points">
              <mxPoint x="280" y="280" />
            </Array>
          </mxGeometry>
        </mxCell>
        <mxCell id="dx6CBrT-OOgTlN5RKBOP-15" value="" style="endArrow=classic;html=1;strokeWidth=4;rounded=1;" edge="1" parent="1">
          <mxGeometry width="50" height="50" relative="1" as="geometry">
            <mxPoint x="520" y="550" as="sourcePoint" />
            <mxPoint x="280" y="440" as="targetPoint" />
            <Array as="points">
              <mxPoint x="280" y="550" />
            </Array>
          </mxGeometry>
        </mxCell>
        <mxCell id="dx6CBrT-OOgTlN5RKBOP-16" value="&lt;font style=&quot;font-size: 16px;&quot;&gt;Evolução&lt;/font&gt;" style="text;html=1;resizable=0;autosize=1;align=center;verticalAlign=middle;points=[];fillColor=none;strokeColor=none;rounded=0;" vertex="1" parent="1">
          <mxGeometry x="530" y="260" width="90" height="30" as="geometry" />
        </mxCell>
        <mxCell id="dx6CBrT-OOgTlN5RKBOP-20" value="&lt;font style=&quot;font-size: 16px;&quot;&gt;Projeto e Análise&lt;/font&gt;" style="text;html=1;resizable=0;autosize=1;align=center;verticalAlign=middle;points=[];fillColor=none;strokeColor=none;rounded=0;" vertex="1" parent="1">
          <mxGeometry x="835" y="399" width="140" height="30" as="geometry" />
        </mxCell>
        <mxCell id="dx6CBrT-OOgTlN5RKBOP-21" value="&lt;font style=&quot;font-size: 16px;&quot;&gt;Configurações&lt;/font&gt;" style="text;html=1;resizable=0;autosize=1;align=center;verticalAlign=middle;points=[];fillColor=none;strokeColor=none;rounded=0;" vertex="1" parent="1">
          <mxGeometry x="520" y="541" width="130" height="30" as="geometry" />
        </mxCell>
        <mxCell id="dx6CBrT-OOgTlN5RKBOP-22" value="&lt;span style=&quot;font-size: 16px;&quot;&gt;Execução&lt;/span&gt;" style="text;html=1;resizable=0;autosize=1;align=center;verticalAlign=middle;points=[];fillColor=none;strokeColor=none;rounded=0;" vertex="1" parent="1">
          <mxGeometry x="235" y="399" width="90" height="30" as="geometry" />
        </mxCell>
        <mxCell id="XljnVczcMFMY6qRB0DPX-1" value="" style="endArrow=none;html=1;rounded=0;strokeColor=#171717;strokeWidth=3;fontColor=#171717;fillColor=#FFE45E;" edge="1" parent="1">
          <mxGeometry width="50" height="50" relative="1" as="geometry">
            <mxPoint x="44" y="94" as="sourcePoint" />
            <mxPoint x="1124" y="94" as="targetPoint" />
          </mxGeometry>
        </mxCell>
        <mxCell id="XljnVczcMFMY6qRB0DPX-2" value="&lt;div style=&quot;text-align: left;&quot;&gt;&lt;span style=&quot;font-size: 24px; background-color: initial;&quot;&gt;Ciclo de Modelagem de Processos&lt;/span&gt;&lt;/div&gt;&lt;div style=&quot;text-align: left;&quot;&gt;&lt;span style=&quot;font-size: 24px; background-color: initial;&quot;&gt;&lt;br&gt;&lt;/span&gt;&lt;/div&gt;&lt;font style=&quot;&quot;&gt;&lt;div style=&quot;text-align: left;&quot;&gt;&lt;span style=&quot;background-color: initial;&quot;&gt;Projeto: HematologyApp&lt;/span&gt;&lt;/div&gt;&lt;/font&gt;" style="text;html=1;align=center;verticalAlign=middle;resizable=0;points=[];autosize=1;strokeColor=none;fillColor=none;fontColor=#171717;" vertex="1" parent="1">
          <mxGeometry x="44" y="10" width="389" height="84" as="geometry" />
        </mxCell>
      </root>
    </mxGraphModel>
  </diagram>
</mxfile>
